<svg viewBox="0 0 24 24" fill="none" xmlns="http://www.w3.org/2000/svg">
    <path d="M19 2.00999H6C4.794 2.00999 3 2.80899 3 5.00999V19.01C3 21.211 4.794 22.01 6 22.01H21V20.01H6.012C5.55 19.998 5 19.815 5 19.01C5 18.909 5.009 18.819 5.024 18.737C5.136 18.162 5.607 18.02 6.011 18.01H20C20.018 18.01 20.031 18.001 20.049 18H21V4.00999C21 2.90699 20.103 2.00999 19 2.00999ZM19 16.01H5V5.00999C5 4.20399 5.55 4.02199 6 4.00999H13V11.01L15 10.01L17 11.01V4.00999H19V16.01Z" fill="currentColor"/>
</svg>

