<svg width="33" height="35" viewBox="0 0 33 35" fill="none" xmlns="http://www.w3.org/2000/svg">
<g clip-path="url(#clip0_1_341)">
<path d="M22.6875 6.5625C22.6875 2.93809 19.9173 0 16.5 0C13.0827 0 10.3125 2.93809 10.3125 6.5625C10.3125 10.1869 13.0827 13.125 16.5 13.125C19.9173 13.125 22.6875 10.1869 22.6875 6.5625ZM15.0556 16.4814C11.2316 13.9986 5.03766 13.3164 1.9207 13.1284C0.87334 13.0655 0 13.9118 0 14.9803V30.2107C0 31.1903 0.747012 32.0072 1.70736 32.0599C4.52139 32.2164 10.2145 32.7899 14.1494 34.892C14.7533 35.2146 15.4694 34.7751 15.4694 34.0806V17.2648C15.4688 16.9456 15.3199 16.653 15.0556 16.4814ZM31.0793 13.1284C27.963 13.3157 21.7684 13.9986 17.945 16.4814C17.6808 16.653 17.5319 16.9572 17.5319 17.2765V34.0785C17.5319 34.7751 18.2499 35.2153 18.8558 34.892C22.79 32.792 28.4799 32.2185 31.2933 32.0619C32.2536 32.0086 33.0006 31.1917 33.0006 30.2121V14.9803C33 13.9118 32.1267 13.0655 31.0793 13.1284Z" fill="white"/>
</g>
<defs>
<clipPath id="clip0_1_341">
<rect width="33" height="35" fill="white"/>
</clipPath>
</defs>
</svg>
