<svg viewBox="0 0 24 24" fill="none" xmlns="http://www.w3.org/2000/svg">
    <path d="M18.32 4.26005C16.8034 3.01486 14.9525 2.24595 13 2.05005V4.07005C14.46 4.25005 15.79 4.83005 16.9 5.69005L18.32 4.26005ZM19.93 11H21.95C21.75 8.99005 20.95 7.16005 19.74 5.68005L18.31 7.10005C19.1921 8.23 19.7519 9.57766 19.93 11ZM18.31 16.9L19.74 18.33C20.9835 16.8125 21.7522 14.9621 21.95 13.01H19.93C19.75 14.4289 19.1903 15.7728 18.31 16.9ZM13 19.93V21.9501C15.01 21.7501 16.84 20.95 18.32 19.74L16.89 18.31C15.79 19.17 14.46 19.75 13 19.93ZM13 12V7.00005H11V12H7L12 17L17 12H13ZM11 19.93V21.9501C5.95 21.4501 2 17.19 2 12C2 6.81005 5.95 2.55005 11 2.05005V4.07005C7.05 4.56005 4 7.92005 4 12C4 16.08 7.05 19.44 11 19.93Z" fill="currentColor"/>
</svg>
