<svg width="22" height="23" viewBox="0 0 22 23" fill="none" xmlns="http://www.w3.org/2000/svg">
<path d="M20.4286 0H1.56652C0.702232 0 0 0.74442 0 1.65826V21.3417C0 22.2556 0.702232 23 1.56652 23H20.4286C21.2929 23 22 22.2556 22 21.3417V1.65826C22 0.74442 21.2929 0 20.4286 0ZM6.64911 19.7143H3.38839V8.73795H6.65402V19.7143H6.64911ZM5.01875 7.23884C3.97277 7.23884 3.12812 6.35067 3.12812 5.26228C3.12812 4.17388 3.97277 3.28571 5.01875 3.28571C6.05982 3.28571 6.90937 4.17388 6.90937 5.26228C6.90937 6.3558 6.06473 7.23884 5.01875 7.23884ZM18.8719 19.7143H15.6112V14.375C15.6112 13.1018 15.5866 11.4641 13.917 11.4641C12.2179 11.4641 11.9576 12.8502 11.9576 14.2826V19.7143H8.69688V8.73795H11.825V10.2371H11.8692C12.3062 9.37455 13.3719 8.46585 14.958 8.46585C18.258 8.46585 18.8719 10.7402 18.8719 13.6973V19.7143Z" fill="currentcolor"/>
</svg>
