<?xml version="1.0" encoding="utf-8"?>
<!-- Generator: Adobe Illustrator 23.0.3, SVG Export Plug-In . SVG Version: 6.00 Build 0)  -->
<svg version="1.1" xmlns="http://www.w3.org/2000/svg" xmlns:xlink="http://www.w3.org/1999/xlink"
	 viewBox="0 0 30 30" xml:space="preserve"><path fill="currentcolor" d="M24,4H6C4.9,4,4,4.9,4,6v18c0,1.1,0.9,2,2,2h18c1.1,0,2-0.9,2-2V6C26,4.9,25.1,4,24,4z M11,22H8v-9.5H11V22z
	 M9.4,11.2c-1,0-1.7-0.8-1.7-1.7s0.8-1.7,1.7-1.7c0.9,0,1.7,0.8,1.7,1.7C11.2,10.4,10.4,11.2,9.4,11.2z M22,22h-2.9v-4.6
	c0-1.1,0-2.5-1.5-2.5c-1.5,0-1.8,1.2-1.8,2.4V22h-2.9v-9.5h2.8v1.3h0c0.4-0.7,1.4-1.5,2.8-1.5c3,0,3.5,2,3.5,4.5
	C22,16.8,22,22,22,22z"/>
</svg>
