<svg viewBox="0 0 28 21" fill="none" xmlns="http://www.w3.org/2000/svg">
<path d="M2.8 0C1.8676 0 1.04547 0.42929 0.538672 1.08948C0.197072 1.5331 0.347988 2.16193 0.842188 2.45068L13.1359 9.63354C13.6651 9.94329 14.3349 9.94329 14.8641 9.63354L27.1059 2.38916C27.6197 2.08466 27.7478 1.42287 27.3684 0.979248C26.8574 0.383373 26.0778 0 25.2 0H2.8ZM27.3219 5.36279C27.2048 5.364 27.0859 5.39425 26.9746 5.46021L14.8641 12.62C14.3349 12.9284 13.6651 12.9272 13.1359 12.6174L1.02266 5.54224C0.577456 5.28236 0 5.58325 0 6.07544V18.375C0 19.8253 1.253 21 2.8 21H25.2C26.747 21 28 19.8253 28 18.375V5.99084C28 5.62072 27.6731 5.35916 27.3219 5.36279Z" fill="currentcolor"/>
</svg>
