<svg width="34" height="27" viewBox="0 0 34 27" fill="none" xmlns="http://www.w3.org/2000/svg">
<path d="M31.45 0H2.55C1.8737 0 1.2251 0.266684 0.746878 0.741386C0.26866 1.21609 0 1.85992 0 2.53125L0 19.4062C0 20.0776 0.26866 20.7214 0.746878 21.1961C1.2251 21.6708 1.8737 21.9375 2.55 21.9375H15.3V23.625H5.95C5.72457 23.625 5.50837 23.7139 5.34896 23.8721C5.18955 24.0304 5.1 24.245 5.1 24.4688V26.1562C5.1 26.38 5.18955 26.5946 5.34896 26.7529C5.50837 26.9111 5.72457 27 5.95 27H28.05C28.2754 27 28.4916 26.9111 28.651 26.7529C28.8104 26.5946 28.9 26.38 28.9 26.1562V24.4688C28.9 24.245 28.8104 24.0304 28.651 23.8721C28.4916 23.7139 28.2754 23.625 28.05 23.625H18.7V21.9375H31.45C32.1263 21.9375 32.7749 21.6708 33.2531 21.1961C33.7313 20.7214 34 20.0776 34 19.4062V2.53125C34 1.85992 33.7313 1.21609 33.2531 0.741386C32.7749 0.266684 32.1263 0 31.45 0ZM30.6 18.5625H3.4V3.375H30.6V18.5625Z" fill="white"/>
</svg>
