<svg viewBox="0 0 169 213" fill="none" xmlns="http://www.w3.org/2000/svg">
    <path d="M51.189 0.0808105L121.36 19.0509C139.543 23.9665 152.57 32.5351 160.443 44.7567C168.315 56.9783 170.236 70.5429 166.206 85.4505C163.664 94.8564 158.737 102.57 151.426 108.593C144.291 114.662 136.392 117.954 127.729 118.469C136.333 123.08 142.821 130.262 147.193 140.014C151.614 149.588 152.265 160.143 149.146 171.679C144.924 187.296 135.974 198.684 122.294 205.841C108.839 212.868 93.373 214.019 75.8965 209.294L0.164751 188.821L51.189 0.0808105ZM71.5291 86.7075L94.3016 92.8639C101.716 94.8683 108.021 94.6684 113.217 92.2644C118.638 89.7306 122.212 85.2692 123.939 78.8802C125.619 72.6688 124.82 67.2156 121.543 62.5209C118.313 57.6486 112.727 54.1387 104.783 51.9911L82.54 45.978L71.5291 86.7075ZM50.227 165.505L76.4419 172.592C84.5623 174.787 91.4452 174.553 97.0905 171.889C102.784 169.048 106.542 164.256 108.365 157.512C110.14 150.945 109.285 145.001 105.798 139.678C102.312 134.356 96.5087 130.597 88.3883 128.401L62.1735 121.314L50.227 165.505Z" fill="currentColor"/>
</svg>

