<svg width="169" height="213" viewBox="0 0 169 213" fill="none" xmlns="http://www.w3.org/2000/svg">
<path d="M51.295 0L121.466 18.9701C139.649 23.8857 152.677 32.4542 160.549 44.6759C168.422 56.8975 170.343 70.4621 166.313 85.3697C163.77 94.7756 158.843 102.49 151.532 108.512C144.397 114.582 136.498 117.874 127.835 118.388C136.439 122.999 142.927 130.181 147.3 139.933C151.72 149.507 152.371 160.063 149.253 171.598C145.031 187.216 136.08 198.603 122.4 205.76C108.945 212.787 93.479 213.938 76.003 209.214L0.270996 188.74L51.295 0ZM71.635 86.6267L94.408 92.783C101.822 94.7874 108.127 94.5876 113.324 92.1836C118.745 89.6498 122.319 85.1884 124.046 78.7994C125.725 72.588 124.926 67.1348 121.649 62.44C118.42 57.5678 112.833 54.0579 104.889 51.9103L82.646 45.8972L71.635 86.6267ZM50.333 165.424L76.548 172.511C84.669 174.706 91.551 174.472 97.197 171.808C102.89 168.967 106.648 164.175 108.471 157.431C110.247 150.865 109.391 144.92 105.905 139.597C102.418 134.275 96.615 130.516 88.495 128.32L62.28 121.234L50.333 165.424Z" fill="#EDA38F"/>
</svg>
