<svg width="91" height="92" viewBox="0 0 91 92" fill="none" xmlns="http://www.w3.org/2000/svg">
<path d="M58.521 89.839C46.161 93.297 34.654 92.168 24 86.454C13.324 80.66 6.184 71.32 2.579 58.434C-1.004 45.627 0.292987 33.926 6.46999 23.333C12.626 12.66 21.724 5.63919 33.767 2.27029C39.788 0.585888 45.47 -0.0232134 50.811 0.443087C56.21 0.808287 60.824 2.03228 64.653 4.11518C68.482 6.19808 71.739 8.52629 74.423 11.0997C77.108 13.673 79.272 16.52 80.913 19.641L64.765 30.169C63.905 28.619 62.817 27.176 61.504 25.838C60.168 24.422 58.475 23.105 56.426 21.888C54.355 20.592 51.789 19.818 48.729 19.566C45.646 19.235 42.362 19.557 38.876 20.533C32.538 22.306 27.582 26.121 24.01 31.98C20.416 37.759 19.769 44.76 22.069 52.982C24.192 60.571 28.261 65.954 34.275 69.131C40.289 72.307 46.624 72.964 53.279 71.103C59.776 69.285 64.353 66.257 67.012 62.018C69.67 57.78 70.99 53.489 70.971 49.147L90.343 49.226C90.457 52.689 90.046 56.257 89.108 59.929C88.25 63.579 86.707 67.377 84.48 71.325C82.332 75.25 78.999 78.911 74.481 82.306C70.021 85.599 64.7 88.11 58.521 89.839Z" fill="white"/>
</svg>
