<svg width="227" height="220" viewBox="0 0 227 220" fill="none" xmlns="http://www.w3.org/2000/svg">
<path d="M212.973 61.3057L216.241 53.955C219.401 54.5141 222.663 52.877 224.026 49.8123C225.63 46.2053 224.005 41.968 220.403 40.3663C216.801 38.7646 212.566 40.396 210.962 44.0031C209.599 47.068 210.569 50.5868 213.1 52.5582L209.832 59.9089C206.672 59.3498 203.41 60.9869 202.047 64.0518C201.603 65.0502 201.407 66.0965 201.432 67.1222L192.794 69.3055C192.068 68.186 191.022 67.2565 189.715 66.6751C188.655 66.2036 187.54 66.0143 186.453 66.0712L175.31 51.0135C175.501 50.7143 175.672 50.3974 175.821 50.0633C177.425 46.4563 175.799 42.2189 172.198 40.6173C168.596 39.0156 164.361 40.647 162.757 44.254C162.608 44.5882 162.487 44.9277 162.393 45.27L156.315 45.8607C155.37 45.9525 154.677 46.7941 154.768 47.7399C154.829 48.38 155.234 48.904 155.781 49.1475C156.043 49.264 156.338 49.3164 156.644 49.2867L162.315 48.7357C162.796 50.8646 164.239 52.7482 166.38 53.7003C168.522 54.6525 170.886 54.462 172.789 53.3932L182.987 67.1737C181.831 67.9039 180.871 68.9713 180.274 70.3123C178.912 73.3772 179.881 76.8961 182.413 78.8674L176.457 92.2614C173.297 91.7024 170.035 93.3394 168.672 96.4041C168.133 97.6164 167.96 98.8998 168.103 100.131L151.28 101.766C150.799 99.6368 149.356 97.7532 147.215 96.801C145.073 95.8489 142.709 96.0394 140.805 97.1082L130.878 83.6936C131.933 82.9701 132.808 81.9566 133.365 80.704C134.727 77.6391 133.758 74.1202 131.226 72.1488L137.182 58.7548C140.342 59.3139 143.604 57.6768 144.967 54.6121C145.581 53.2307 145.72 51.7571 145.457 50.374L148.738 50.0551C149.683 49.9631 150.375 49.1217 150.285 48.1759C150.194 47.2295 149.354 46.5375 148.409 46.6293L143.885 47.0691C143.212 46.2749 142.356 45.6163 141.343 45.1661C137.741 43.5644 133.506 45.1958 131.902 48.8028C130.54 51.8677 131.509 55.3866 134.041 57.358L128.085 70.752C125.484 70.2917 122.815 71.32 121.192 73.4073L113.851 70.143C114.413 66.9799 112.781 63.7162 109.72 62.3553C106.118 60.7537 101.883 62.3851 100.279 65.9921C98.6754 69.5991 100.301 73.8364 103.903 75.4381C106.963 76.799 110.48 75.8248 112.452 73.2888L119.793 76.5528C119.231 79.716 120.863 82.9797 123.923 84.3405C125.088 84.8583 126.318 85.0364 127.505 84.9208L138.284 99.4873C138.093 99.7865 137.922 100.103 137.773 100.438C136.41 103.502 137.38 107.021 139.912 108.993L136.643 116.343C133.483 115.784 130.221 117.421 128.858 120.486C127.254 124.093 128.88 128.331 132.482 129.932C136.084 131.534 140.319 129.903 141.923 126.296C143.285 123.231 142.316 119.712 139.784 117.74L143.053 110.389C146.212 110.949 149.475 109.311 150.838 106.247C150.986 105.913 151.107 105.573 151.201 105.231L169.381 103.464C170.098 104.474 171.084 105.311 172.295 105.85C173.33 106.31 174.418 106.502 175.48 106.458L178.396 114.06C176.231 115.575 175.067 118.191 175.393 120.814L167.602 123.816C165.803 121.046 162.249 119.809 159.044 121.043C155.363 122.461 153.518 126.611 154.931 130.294C155.637 132.136 157.026 133.517 158.699 134.261C160.372 135.005 162.329 135.111 164.169 134.402C167.219 133.227 169.007 130.176 168.727 127.069L176.623 124.028C177.359 125.087 178.371 125.929 179.58 126.466C181.325 127.242 183.268 127.291 185.051 126.604C185.775 126.325 186.444 125.934 187.039 125.442C187.772 124.837 187.876 123.752 187.272 123.02C186.667 122.286 185.584 122.184 184.851 122.789C184.544 123.043 184.196 123.246 183.818 123.392C182.893 123.748 181.884 123.723 180.979 123.32C180.073 122.917 179.378 122.186 179.023 121.259C178.29 119.348 179.247 117.194 181.157 116.458C181.158 116.457 181.158 116.457 181.159 116.457C181.159 116.457 181.16 116.457 181.16 116.457C182.762 115.841 184.562 116.393 185.537 117.799C186.078 118.58 187.15 118.773 187.93 118.23C188.71 117.688 188.904 116.615 188.363 115.835C186.817 113.606 184.201 112.493 181.607 112.823L178.794 105.49C180.052 104.759 181.101 103.642 181.736 102.213C183.099 99.1485 182.129 95.6296 179.598 93.6583L185.554 80.2643C188.713 80.8233 191.976 79.1863 193.338 76.1216C193.852 74.9662 194.033 73.7464 193.925 72.5691L202.334 70.4435C203.061 71.7525 204.201 72.8446 205.67 73.498C209.272 75.0997 213.507 73.4683 215.111 69.8613C216.474 66.7964 215.504 63.2773 212.973 61.3057ZM167.778 50.5544C165.909 49.723 165.065 47.5232 165.897 45.6509C166.73 43.7785 168.928 42.9316 170.798 43.763C172.668 44.5944 173.512 46.7941 172.679 48.6665C171.847 50.5389 169.648 51.3858 167.778 50.5544ZM135.043 50.1995C135.876 48.3271 138.074 47.4802 139.944 48.3116C141.814 49.143 142.658 51.3427 141.825 53.2151C140.992 55.0875 138.794 55.9344 136.924 55.103C135.055 54.2716 134.211 52.0718 135.043 50.1995ZM105.302 72.2924C103.432 71.461 102.588 69.2613 103.421 67.3889C104.253 65.5165 106.452 64.6696 108.321 65.501C110.191 66.3324 111.035 68.5322 110.202 70.4045C109.37 72.2769 107.171 73.1238 105.302 72.2924ZM123.441 76.2916C124.274 74.4192 126.472 73.5723 128.342 74.4037C130.212 75.2351 131.055 77.4348 130.223 79.3072C129.405 81.1468 127.16 82.0124 125.322 81.1951C123.452 80.3634 122.609 78.1637 123.441 76.2916ZM138.781 124.899C137.949 126.771 135.75 127.618 133.88 126.787C132.011 125.955 131.167 123.756 131.999 121.883C132.832 120.011 135.03 119.164 136.9 119.995C138.77 120.827 139.614 123.026 138.781 124.899ZM142.795 106.738C140.926 105.906 140.082 103.707 140.914 101.834C141.747 99.962 143.946 99.1151 145.815 99.9465C147.685 100.778 148.529 102.978 147.696 104.85C146.864 106.722 144.665 107.569 142.795 106.738ZM162.937 131.19C161.027 131.926 158.875 130.971 158.142 129.058C157.408 127.146 158.366 124.992 160.277 124.256C161.232 123.888 162.248 123.943 163.116 124.329C163.984 124.715 164.705 125.432 165.072 126.388C165.806 128.3 164.848 130.454 162.937 131.19ZM214.103 45.3999C214.936 43.5275 217.134 42.6806 219.004 43.512C220.874 44.3434 221.717 46.5432 220.885 48.4155C220.052 50.2879 217.854 51.1348 215.984 50.3034C214.114 49.472 213.27 47.2722 214.103 45.3999ZM178.595 100.817C177.783 102.641 175.522 103.517 173.694 102.704C171.824 101.873 170.98 99.6733 171.813 97.801C172.646 95.9286 174.844 95.0817 176.714 95.9131C178.583 96.7444 179.427 98.9442 178.595 100.817ZM185.296 76.6123C183.426 75.7809 182.583 73.5812 183.415 71.7088C184.248 69.8364 186.446 68.9895 188.316 69.8209C190.186 70.6523 191.029 72.8521 190.197 74.7244C189.364 76.5968 187.166 77.4437 185.296 76.6123ZM207.069 70.3521C205.199 69.5207 204.355 67.321 205.188 65.4486C206.021 63.5763 208.219 62.7294 210.089 63.5608C211.959 64.3922 212.802 66.5919 211.97 68.4643C211.137 70.3366 208.939 71.1835 207.069 70.3521Z" stroke="#ACE0E1" stroke-width="2"/>
<path d="M131.116 137.77L134.384 130.42C137.544 130.979 140.806 129.342 142.169 126.277C143.773 122.67 142.147 118.433 138.545 116.831C134.944 115.229 130.708 116.861 129.105 120.468C127.742 123.533 128.711 127.051 131.243 129.023L127.974 136.374C124.815 135.814 121.552 137.452 120.19 140.516C119.746 141.515 119.55 142.561 119.575 143.587L110.937 145.77C110.21 144.651 109.165 143.721 107.858 143.14C106.798 142.668 105.683 142.479 104.596 142.536L93.4526 127.478C93.6437 127.179 93.8152 126.862 93.9638 126.528C95.5677 122.921 93.9423 118.684 90.3403 117.082C86.7384 115.48 82.5034 117.112 80.8994 120.719C80.7509 121.053 80.6302 121.392 80.5363 121.735L74.4578 122.325C73.5126 122.417 72.82 123.259 72.9108 124.205C72.9721 124.845 73.3764 125.369 73.9241 125.612C74.1861 125.729 74.4808 125.781 74.7867 125.751L80.4579 125.2C80.9391 127.329 82.3816 129.213 84.523 130.165C86.6643 131.117 89.0291 130.927 90.9322 129.858L101.13 143.638C99.9739 144.369 99.0136 145.436 98.4173 146.777C97.0544 149.842 98.0241 153.361 100.556 155.332L94.5998 168.726C91.4402 168.167 88.1779 169.804 86.8151 172.869C86.2761 174.081 86.1033 175.364 86.2463 176.595L69.4226 178.23C68.9414 176.101 67.4989 174.218 65.3576 173.266C63.2162 172.313 60.8514 172.504 58.9483 173.573L49.021 160.158C50.0758 159.435 50.9504 158.421 51.5074 157.169C52.8703 154.104 51.9006 150.585 49.369 148.613L55.3249 135.219C58.4845 135.779 61.7468 134.141 63.1096 131.077C63.7239 129.695 63.863 128.222 63.6002 126.839L66.8803 126.52C67.8257 126.428 68.5181 125.586 68.4274 124.641C68.3366 123.694 67.4971 123.002 66.5513 123.094L62.0273 123.534C61.355 122.74 60.4987 122.081 59.4861 121.631C55.8842 120.029 51.6492 121.66 50.0452 125.267C48.6824 128.332 49.652 131.851 52.1836 133.823L46.2278 147.217C43.6272 146.756 40.9579 147.785 39.3347 149.872L31.9937 146.608C32.5555 143.445 30.9234 140.181 27.8631 138.82C24.2611 137.218 20.0261 138.85 18.4221 142.457C16.8182 146.064 18.4436 150.301 22.0456 151.903C25.106 153.264 28.6227 152.289 30.5949 149.753L37.9354 153.017C37.3736 156.181 39.0057 159.444 42.0661 160.805C43.2305 161.323 44.461 161.501 45.6475 161.385L56.4271 175.952C56.2361 176.251 56.0646 176.568 55.916 176.902C54.5532 179.967 55.5228 183.486 58.0544 185.457L54.7858 192.808C51.6262 192.249 48.3639 193.886 47.001 196.951C45.3971 200.558 47.0225 204.795 50.6244 206.397C54.2264 207.999 58.4614 206.367 60.0654 202.76C61.4282 199.695 60.4586 196.176 57.9271 194.205L61.1957 186.854C64.3553 187.413 67.6176 185.776 68.9804 182.711C69.1289 182.377 69.2495 182.038 69.3435 181.695L87.5239 179.928C88.2405 180.939 89.2267 181.776 90.4377 182.314C91.4731 182.775 92.5607 182.967 93.6231 182.923L96.5391 190.524C94.3734 192.04 93.2101 194.655 93.5357 197.279L85.7444 200.28C83.9453 197.511 80.3915 196.274 77.1873 197.508C73.5063 198.926 71.661 203.076 73.0737 206.759C73.7801 208.6 75.1693 209.982 76.8422 210.726C78.5151 211.47 80.4714 211.576 82.3119 210.867C85.3623 209.692 87.1498 206.64 86.8697 203.534L94.7655 200.492C95.5016 201.551 96.5143 202.393 97.7227 202.931C99.4673 203.706 101.41 203.755 103.194 203.068C103.918 202.789 104.587 202.398 105.182 201.907C105.915 201.302 106.019 200.217 105.415 199.484C104.81 198.751 103.727 198.648 102.994 199.254C102.686 199.508 102.339 199.711 101.961 199.856C101.036 200.213 100.027 200.188 99.1215 199.785C98.2157 199.382 97.5212 198.65 97.1662 197.724C96.4328 195.813 97.3902 193.659 99.3001 192.922C99.3007 192.922 99.3012 192.922 99.3016 192.922C99.302 192.921 99.3026 192.921 99.3031 192.921C100.905 192.306 102.704 192.857 103.68 194.264C104.221 195.044 105.292 195.237 106.073 194.695C106.853 194.152 107.047 193.08 106.505 192.299C104.96 190.071 102.344 188.958 99.7498 189.288L96.9367 181.954C98.1947 181.224 99.2437 180.107 99.879 178.678C101.242 175.613 100.272 172.094 97.7406 170.123L103.696 156.729C106.856 157.288 110.118 155.651 111.481 152.586C111.995 151.431 112.176 150.211 112.068 149.034L120.477 146.908C121.203 148.217 122.344 149.309 123.813 149.963C127.415 151.564 131.65 149.933 133.254 146.326C134.617 143.261 133.647 139.742 131.116 137.77ZM85.9211 127.019C84.0514 126.188 83.2076 123.988 84.0402 122.115C84.8728 120.243 87.0713 119.396 88.941 120.228C90.8107 121.059 91.6546 123.259 90.822 125.131C89.9894 127.003 87.7909 127.85 85.9211 127.019ZM53.1861 126.664C54.0187 124.792 56.2172 123.945 58.0869 124.776C59.9567 125.608 60.8005 127.807 59.9679 129.68C59.1353 131.552 56.9368 132.399 55.0671 131.568C53.1973 130.736 52.3535 128.536 53.1861 126.664ZM23.4444 148.757C21.5747 147.926 20.7309 145.726 21.5634 143.854C22.396 141.981 24.5945 141.134 26.4643 141.966C28.334 142.797 29.1778 144.997 28.3452 146.869C27.5126 148.742 25.3141 149.588 23.4444 148.757ZM41.5838 152.756C42.4164 150.884 44.6149 150.037 46.4847 150.868C48.3544 151.7 49.1982 153.899 48.3656 155.772C47.5476 157.611 45.3029 158.477 43.4648 157.66C41.5952 156.828 40.7514 154.628 41.5838 152.756ZM56.924 201.364C56.0914 203.236 53.8929 204.083 52.0231 203.251C50.1534 202.42 49.3096 200.22 50.1422 198.348C50.9748 196.476 53.1733 195.629 55.043 196.46C56.9128 197.291 57.7567 199.491 56.924 201.364ZM60.9382 183.202C59.0685 182.371 58.2247 180.171 59.0573 178.299C59.8899 176.427 62.0884 175.58 63.9581 176.411C65.8278 177.242 66.6717 179.442 65.8391 181.315C65.0065 183.187 62.808 184.034 60.9382 183.202ZM81.0797 207.655C79.1694 208.391 77.0179 207.435 76.2843 205.523C75.5509 203.611 76.5088 201.456 78.4197 200.72C79.3751 200.352 80.3906 200.408 81.2587 200.794C82.1271 201.18 82.8482 201.897 83.2149 202.853C83.9486 204.765 82.9906 206.919 81.0797 207.655ZM132.246 121.865C133.078 119.992 135.277 119.145 137.147 119.977C139.016 120.808 139.86 123.008 139.028 124.88C138.195 126.752 135.997 127.599 134.127 126.768C132.257 125.937 131.413 123.737 132.246 121.865ZM96.7375 177.281C95.9261 179.106 93.6648 179.982 91.8366 179.169C89.9669 178.338 89.1233 176.138 89.9559 174.266C90.7885 172.393 92.987 171.546 94.8567 172.378C96.7262 173.209 97.57 175.409 96.7375 177.281ZM103.439 153.077C101.569 152.246 100.725 150.046 101.558 148.173C102.391 146.301 104.589 145.454 106.459 146.286C108.329 147.117 109.172 149.317 108.34 151.189C107.507 153.061 105.309 153.908 103.439 153.077ZM125.212 146.817C123.342 145.985 122.498 143.786 123.331 141.913C124.163 140.041 126.362 139.194 128.232 140.025C130.101 140.857 130.945 143.057 130.113 144.929C129.28 146.801 127.082 147.648 125.212 146.817Z" fill="#13ABB0"/>
</svg>
