<svg width="265" height="165" viewBox="0 0 265 165" fill="none" xmlns="http://www.w3.org/2000/svg">
<path d="M40.5771 164.912C39.2753 165.185 37.9487 164.552 37.3334 163.367C36.7205 162.194 36.9829 160.742 37.9518 159.84C43.3716 154.807 44.6529 148.583 41.9035 140.388L29.9044 142.908C21.9125 144.587 14.048 139.444 12.3668 131.439L0.319047 74.076C-1.36216 66.072 3.76863 58.199 11.7605 56.52L223.529 12.043C231.521 10.365 239.385 15.508 241.067 23.513L253.114 80.875C254.795 88.88 249.665 96.753 241.673 98.431L69.5582 134.58C65.3235 157.299 47.9917 163.354 40.5771 164.912Z" fill="#13ABB0"/>
<path d="M47.3334 153.367L48.2209 152.906L48.2198 152.904L47.3334 153.367ZM47.9518 149.84L47.2713 149.107L47.2704 149.108L47.9518 149.84ZM51.9035 130.388L52.8516 130.07L52.5686 129.227L51.698 129.41L51.9035 130.388ZM79.5582 124.58L79.3526 123.601L78.6977 123.739L78.5751 124.397L79.5582 124.58ZM49.7377 153.961C49.1894 153.895 48.6912 154.285 48.625 154.834C48.5588 155.382 48.9496 155.88 49.4979 155.946L49.7377 153.961ZM47.2117 154.856C47.6086 155.24 48.2417 155.23 48.6257 154.833C49.0097 154.436 48.9992 153.803 48.6023 153.419L47.2117 154.856ZM48.0255 152.308C47.9432 151.762 47.4337 151.386 46.8876 151.469C46.3415 151.551 45.9655 152.06 46.0478 152.606L48.0255 152.308ZM46.4866 150.12C46.2232 150.605 46.4032 151.212 46.8886 151.476C47.3741 151.739 47.9811 151.559 48.2445 151.074L46.4866 150.12ZM50.5425 148.555C50.8937 148.129 50.8329 147.498 50.4066 147.147C49.9804 146.796 49.3502 146.857 48.999 147.283L50.5425 148.555ZM51.4714 143.019C51.283 143.538 51.551 144.112 52.0701 144.3C52.5893 144.489 53.1629 144.221 53.3514 143.702L51.4714 143.019ZM54.3056 138.174C54.3083 137.621 53.8627 137.171 53.3104 137.169C52.7581 137.166 52.3083 137.612 52.3056 138.164L54.3056 138.174ZM51.6708 133.168C51.8013 133.704 52.3421 134.033 52.8787 133.903C53.4154 133.773 53.7446 133.232 53.6142 132.695L51.6708 133.168ZM48.6982 130.04C48.1577 130.153 47.8116 130.683 47.9251 131.224C48.0386 131.764 48.5688 132.11 49.1093 131.997L48.6982 130.04ZM43.1097 133.257C43.6502 133.143 43.9963 132.613 43.8828 132.073C43.7693 131.532 43.2391 131.186 42.6986 131.3L43.1097 133.257ZM37.0061 132.225C36.4539 132.231 36.011 132.684 36.0169 133.236C36.0227 133.788 36.4752 134.231 37.0275 134.225L37.0061 132.225ZM30.9625 133.075C31.4744 133.282 32.0574 133.035 32.2646 132.523C32.4717 132.011 32.2246 131.428 31.7127 131.221L30.9625 133.075ZM27.1994 128.267C26.8046 127.881 26.1715 127.888 25.7853 128.283C25.399 128.677 25.4059 129.311 25.8007 129.697L27.1994 128.267ZM22.3171 124.602C22.5334 125.11 23.1207 125.347 23.6289 125.13C24.1371 124.914 24.3736 124.327 24.1573 123.819L22.3171 124.602ZM22.743 118.365C22.6295 117.825 22.0993 117.478 21.5588 117.592C21.0183 117.706 20.6722 118.236 20.7857 118.776L22.743 118.365ZM19.581 113.04C19.6945 113.58 20.2247 113.927 20.7651 113.813C21.3056 113.7 21.6518 113.169 21.5382 112.629L19.581 113.04ZM20.3335 106.893C20.22 106.352 19.6898 106.006 19.1493 106.12C18.6088 106.233 18.2627 106.763 18.3762 107.304L20.3335 106.893ZM17.1714 101.567C17.2849 102.108 17.8151 102.454 18.3556 102.341C18.8961 102.227 19.2422 101.697 19.1287 101.156L17.1714 101.567ZM17.9239 95.42C17.8104 94.88 17.2802 94.534 16.7398 94.647C16.1993 94.761 15.8531 95.291 15.9667 95.831L17.9239 95.42ZM14.7619 90.095C14.8754 90.635 15.4056 90.982 15.9461 90.868C16.4866 90.755 16.8327 90.224 16.7192 89.684L14.7619 90.095ZM15.5144 83.948C15.4009 83.407 14.8707 83.061 14.3302 83.175C13.7897 83.288 13.4436 83.818 13.5571 84.359L15.5144 83.948ZM12.3524 78.622C12.4659 79.163 12.996 79.509 13.5365 79.396C14.077 79.282 14.4232 78.752 14.3096 78.211L12.3524 78.622ZM13.1049 72.475C12.9914 71.935 12.4612 71.589 11.9207 71.702C11.3802 71.816 11.0341 72.346 11.1476 72.886L13.1049 72.475ZM9.94276 67.15C10.0563 67.69 10.5865 68.037 11.127 67.923C11.6675 67.81 12.0136 67.279 11.9001 66.739L9.94276 67.15ZM11.001 61.177C10.9946 60.625 10.5417 60.182 9.98936 60.189C9.43716 60.195 8.99466 60.648 9.00106 61.2L11.001 61.177ZM10.1406 55.135C9.93456 55.647 10.183 56.229 10.6954 56.435C11.2078 56.641 11.7902 56.393 11.9962 55.881L10.1406 55.135ZM14.9397 51.36C15.3251 50.965 15.3168 50.332 14.9211 49.946C14.5255 49.561 13.8924 49.569 13.507 49.965L14.9397 51.36ZM18.597 46.472C18.0891 46.689 17.853 47.277 18.0698 47.785C18.2866 48.293 18.8741 48.529 19.382 48.312L18.597 46.472ZM24.9073 46.881C25.4478 46.768 25.7939 46.238 25.6804 45.697C25.5669 45.157 25.0367 44.81 24.4962 44.924L24.9073 46.881ZM30.3787 43.688C29.8382 43.802 29.4921 44.332 29.6056 44.873C29.7191 45.413 30.2493 45.759 30.7898 45.646L30.3787 43.688ZM36.6722 44.41C37.2127 44.297 37.5588 43.767 37.4453 43.226C37.3318 42.686 36.8016 42.339 36.2611 42.453L36.6722 44.41ZM42.1436 41.217C41.6031 41.331 41.257 41.861 41.3705 42.402C41.484 42.942 42.0142 43.288 42.5547 43.175L42.1436 41.217ZM48.4371 41.939C48.9776 41.826 49.3238 41.296 49.2102 40.755C49.0967 40.215 48.5665 39.868 48.026 39.982L48.4371 41.939ZM53.9085 38.747C53.368 38.86 53.0219 39.39 53.1354 39.931C53.2489 40.471 53.7791 40.817 54.3196 40.704L53.9085 38.747ZM60.202 39.468C60.7425 39.355 61.0887 38.825 60.9751 38.284C60.8616 37.744 60.3314 37.398 59.791 37.511L60.202 39.468ZM65.6734 36.276C65.1329 36.389 64.7868 36.919 64.9003 37.46C65.0138 38 65.544 38.346 66.0845 38.233L65.6734 36.276ZM71.967 36.997C72.5074 36.884 72.8536 36.354 72.7401 35.813C72.6265 35.273 72.0964 34.927 71.5559 35.04L71.967 36.997ZM77.4383 33.805C76.8978 33.918 76.5517 34.448 76.6652 34.989C76.7787 35.529 77.3089 35.875 77.8494 35.762L77.4383 33.805ZM83.7319 34.526C84.2724 34.413 84.6185 33.883 84.505 33.342C84.3914 32.802 83.8613 32.456 83.3208 32.569L83.7319 34.526ZM89.2032 31.334C88.6627 31.447 88.3166 31.977 88.4301 32.518C88.5436 33.058 89.0738 33.405 89.6143 33.291L89.2032 31.334ZM95.4968 32.056C96.0373 31.942 96.3834 31.412 96.2699 30.871C96.1563 30.331 95.6262 29.985 95.0857 30.098L95.4968 32.056ZM100.968 28.863C100.428 28.976 100.082 29.506 100.195 30.047C100.309 30.587 100.839 30.934 101.379 30.82L100.968 28.863ZM107.262 29.585C107.802 29.471 108.148 28.941 108.035 28.4C107.921 27.86 107.391 27.514 106.851 27.627L107.262 29.585ZM112.733 26.392C112.193 26.505 111.846 27.035 111.96 27.576C112.073 28.116 112.604 28.463 113.144 28.349L112.733 26.392ZM119.027 27.114C119.567 27 119.913 26.47 119.8 25.929C119.686 25.389 119.156 25.043 118.615 25.156L119.027 27.114ZM124.498 23.921C123.957 24.034 123.611 24.565 123.725 25.105C123.838 25.646 124.369 25.992 124.909 25.878L124.498 23.921ZM130.791 24.643C131.332 24.529 131.678 23.999 131.565 23.458C131.451 22.918 130.921 22.572 130.38 22.685L130.791 24.643ZM136.263 21.45C135.722 21.563 135.376 22.094 135.49 22.634C135.603 23.175 136.133 23.521 136.674 23.407L136.263 21.45ZM142.556 22.172C143.097 22.058 143.443 21.528 143.329 20.988C143.216 20.447 142.686 20.101 142.145 20.214L142.556 22.172ZM148.028 18.979C147.487 19.092 147.141 19.623 147.255 20.163C147.368 20.704 147.898 21.05 148.439 20.936L148.028 18.979ZM154.321 19.701C154.862 19.587 155.208 19.057 155.094 18.517C154.981 17.976 154.451 17.63 153.91 17.743L154.321 19.701ZM159.793 16.508C159.252 16.622 158.906 17.152 159.02 17.692C159.133 18.233 159.663 18.579 160.204 18.465L159.793 16.508ZM166.086 17.23C166.627 17.116 166.973 16.586 166.859 16.046C166.746 15.505 166.216 15.159 165.675 15.273L166.086 17.23ZM171.558 14.037C171.017 14.151 170.671 14.681 170.785 15.221C170.898 15.762 171.428 16.108 171.969 15.994L171.558 14.037ZM177.851 14.759C178.392 14.645 178.738 14.115 178.624 13.575C178.511 13.034 177.981 12.688 177.44 12.802L177.851 14.759ZM183.323 11.566C182.782 11.68 182.436 12.21 182.549 12.75C182.663 13.291 183.193 13.637 183.734 13.523L183.323 11.566ZM189.616 12.288C190.157 12.174 190.503 11.644 190.389 11.104C190.276 10.563 189.746 10.217 189.205 10.331L189.616 12.288ZM195.087 9.095C194.547 9.209 194.201 9.73899 194.314 10.279C194.428 10.82 194.958 11.166 195.499 11.052L195.087 9.095ZM201.381 9.81699C201.921 9.70299 202.268 9.17299 202.154 8.63299C202.041 8.09199 201.51 7.74598 200.97 7.85998L201.381 9.81699ZM206.852 6.62399C206.312 6.73799 205.966 7.26801 206.079 7.80801C206.193 8.34901 206.723 8.69499 207.263 8.58099L206.852 6.62399ZM213.146 7.34601C213.686 7.23301 214.033 6.70199 213.919 6.16199C213.806 5.62099 213.275 5.27501 212.735 5.38901L213.146 7.34601ZM218.617 4.15301C218.077 4.26701 217.731 4.797 217.844 5.337C217.958 5.878 218.488 6.22399 219.028 6.11099L218.617 4.15301ZM224.911 4.875C225.451 4.762 225.797 4.23101 225.684 3.69101C225.57 3.15001 225.04 2.804 224.5 2.918L224.911 4.875ZM230.382 1.68201C229.842 1.79601 229.496 2.326 229.609 2.866C229.723 3.407 230.253 3.75301 230.793 3.64001L230.382 1.68201ZM236.427 2.72601C236.979 2.72101 237.422 2.268 237.416 1.716C237.411 1.164 236.958 0.720989 236.406 0.726989L236.427 2.72601ZM242.471 1.87601C241.959 1.66901 241.376 1.91601 241.169 2.42801C240.962 2.94001 241.209 3.52301 241.721 3.73001L242.471 1.87601ZM246.234 6.68399C246.629 7.07099 247.262 7.06401 247.648 6.66901C248.034 6.27401 248.027 5.641 247.633 5.255L246.234 6.68399ZM251.116 10.35C250.9 9.84201 250.313 9.60501 249.804 9.82101C249.296 10.038 249.06 10.625 249.276 11.133L251.116 10.35ZM250.69 16.587C250.804 17.127 251.334 17.473 251.874 17.36C252.415 17.246 252.761 16.716 252.648 16.175L250.69 16.587ZM253.852 21.912C253.739 21.371 253.209 21.025 252.668 21.139C252.128 21.252 251.782 21.782 251.895 22.323L253.852 21.912ZM253.1 28.059C253.213 28.599 253.743 28.946 254.284 28.832C254.824 28.719 255.171 28.188 255.057 27.648L253.1 28.059ZM256.262 33.384C256.148 32.844 255.618 32.498 255.078 32.611C254.537 32.725 254.191 33.255 254.305 33.795L256.262 33.384ZM255.509 39.532C255.623 40.072 256.153 40.418 256.694 40.305C257.234 40.191 257.58 39.661 257.467 39.12L255.509 39.532ZM258.671 44.857C258.558 44.316 258.028 43.97 257.487 44.084C256.947 44.197 256.601 44.727 256.714 45.268L258.671 44.857ZM257.919 51.004C258.032 51.544 258.563 51.891 259.103 51.777C259.644 51.664 259.99 51.133 259.876 50.593L257.919 51.004ZM261.081 56.329C260.967 55.789 260.437 55.443 259.897 55.556C259.356 55.67 259.01 56.2 259.124 56.74L261.081 56.329ZM260.328 62.477C260.442 63.017 260.972 63.363 261.513 63.25C262.053 63.136 262.399 62.606 262.286 62.065L260.328 62.477ZM263.49 67.802C263.377 67.261 262.847 66.915 262.306 67.029C261.766 67.142 261.42 67.672 261.533 68.213L263.49 67.802ZM262.432 73.774C262.439 74.327 262.892 74.769 263.444 74.763C263.996 74.756 264.439 74.303 264.432 73.751L262.432 73.774ZM263.293 79.817C263.499 79.305 263.25 78.722 262.738 78.516C262.225 78.31 261.643 78.559 261.437 79.071L263.293 79.817ZM258.494 83.591C258.108 83.987 258.117 84.62 258.512 85.005C258.908 85.391 259.541 85.382 259.926 84.987L258.494 83.591ZM254.836 88.479C255.344 88.263 255.58 87.675 255.363 87.167C255.147 86.659 254.559 86.423 254.051 86.64L254.836 88.479ZM248.599 88.055C248.058 88.169 247.712 88.699 247.826 89.239C247.939 89.78 248.469 90.126 249.01 90.012L248.599 88.055ZM243.273 91.217C243.813 91.104 244.159 90.574 244.046 90.033C243.932 89.493 243.402 89.147 242.861 89.26L243.273 91.217ZM237.124 90.465C236.584 90.579 236.238 91.109 236.351 91.649C236.465 92.19 236.995 92.536 237.535 92.422L237.124 90.465ZM231.798 93.627C232.339 93.514 232.685 92.984 232.571 92.443C232.458 91.903 231.928 91.557 231.387 91.67L231.798 93.627ZM225.65 92.875C225.11 92.989 224.763 93.519 224.877 94.059C224.99 94.6 225.521 94.946 226.061 94.832L225.65 92.875ZM220.324 96.037C220.864 95.924 221.211 95.394 221.097 94.853C220.984 94.313 220.453 93.966 219.913 94.08L220.324 96.037ZM214.176 95.285C213.635 95.398 213.289 95.929 213.403 96.469C213.516 97.01 214.046 97.356 214.587 97.242L214.176 95.285ZM208.85 98.447C209.39 98.334 209.736 97.803 209.623 97.263C209.509 96.722 208.979 96.376 208.439 96.49L208.85 98.447ZM202.701 97.695C202.161 97.808 201.815 98.339 201.928 98.879C202.042 99.42 202.572 99.766 203.112 99.652L202.701 97.695ZM197.375 100.857C197.916 100.744 198.262 100.213 198.148 99.673C198.035 99.132 197.505 98.786 196.964 98.9L197.375 100.857ZM191.227 100.105C190.687 100.218 190.34 100.748 190.454 101.289C190.568 101.829 191.098 102.176 191.638 102.062L191.227 100.105ZM185.901 103.267C186.442 103.153 186.788 102.623 186.674 102.083C186.561 101.542 186.03 101.196 185.49 101.31L185.901 103.267ZM179.753 102.515C179.212 102.628 178.866 103.158 178.98 103.699C179.093 104.239 179.623 104.585 180.164 104.472L179.753 102.515ZM174.427 105.677C174.967 105.563 175.313 105.033 175.2 104.493C175.086 103.952 174.556 103.606 174.016 103.72L174.427 105.677ZM168.278 104.925C167.738 105.038 167.392 105.568 167.505 106.109C167.619 106.649 168.149 106.995 168.69 106.882L168.278 104.925ZM162.952 108.087C163.493 107.973 163.839 107.443 163.726 106.903C163.612 106.362 163.082 106.016 162.541 106.13L162.952 108.087ZM156.804 107.334C156.264 107.448 155.918 107.978 156.031 108.519C156.145 109.059 156.675 109.405 157.215 109.292L156.804 107.334ZM151.478 110.497C152.019 110.383 152.365 109.853 152.251 109.313C152.138 108.772 151.608 108.426 151.067 108.539L151.478 110.497ZM145.33 109.744C144.789 109.858 144.443 110.388 144.557 110.929C144.67 111.469 145.2 111.815 145.741 111.702L145.33 109.744ZM140.004 112.907C140.544 112.793 140.89 112.263 140.777 111.722C140.663 111.182 140.133 110.836 139.593 110.949L140.004 112.907ZM133.856 112.154C133.315 112.268 132.969 112.798 133.083 113.338C133.196 113.879 133.726 114.225 134.267 114.112L133.856 112.154ZM128.53 115.317C129.07 115.203 129.416 114.673 129.303 114.132C129.189 113.592 128.659 113.246 128.118 113.359L128.53 115.317ZM122.381 114.564C121.841 114.678 121.495 115.208 121.608 115.748C121.722 116.289 122.252 116.635 122.792 116.522L122.381 114.564ZM117.055 117.726C117.596 117.613 117.942 117.083 117.828 116.542C117.715 116.002 117.185 115.656 116.644 115.769L117.055 117.726ZM110.907 116.974C110.367 117.088 110.02 117.618 110.134 118.158C110.247 118.699 110.778 119.045 111.318 118.931L110.907 116.974ZM105.581 120.136C106.121 120.023 106.468 119.493 106.354 118.952C106.241 118.412 105.71 118.066 105.17 118.179L105.581 120.136ZM99.433 119.384C98.892 119.498 98.546 120.028 98.66 120.568C98.773 121.109 99.303 121.455 99.844 121.341L99.433 119.384ZM94.1066 122.546C94.6471 122.433 94.9933 121.903 94.8798 121.362C94.7662 120.822 94.2361 120.475 93.6956 120.589L94.1066 122.546ZM87.9584 121.794C87.4179 121.907 87.0718 122.438 87.1853 122.978C87.2988 123.519 87.829 123.865 88.3695 123.751L87.9584 121.794ZM82.6323 124.956C83.1728 124.843 83.519 124.312 83.4055 123.772C83.2919 123.232 82.7618 122.885 82.2213 122.999L82.6323 124.956ZM77.9957 127.077C77.8631 127.613 78.1903 128.155 78.7265 128.288C79.2626 128.421 79.8047 128.093 79.9372 127.557L77.9957 127.077ZM78.2193 133C78.4202 132.485 78.166 131.905 77.6515 131.705C77.1371 131.504 76.5572 131.758 76.3563 132.272L78.2193 133ZM74.0189 137.178C73.7445 137.657 73.9107 138.268 74.39 138.542C74.8693 138.817 75.4803 138.65 75.7546 138.171L74.0189 137.178ZM72.5187 142.91C72.8659 142.48 72.7992 141.85 72.3697 141.503C71.9402 141.156 71.3106 141.223 70.9634 141.652L72.5187 142.91ZM67.2253 145.571C66.8127 145.938 66.7759 146.571 67.1431 146.983C67.5103 147.396 68.1424 147.432 68.5549 147.065L67.2253 145.571ZM63.9779 150.525C64.4433 150.228 64.5794 149.609 64.2819 149.144C63.9845 148.679 63.3661 148.543 62.9008 148.84L63.9779 150.525ZM58.1188 151.413C57.6146 151.638 57.3885 152.23 57.6139 152.734C57.8393 153.238 58.4307 153.464 58.9349 153.239L58.1188 151.413ZM53.5563 155.2C54.0871 155.048 54.3939 154.494 54.2416 153.963C54.0892 153.433 53.5353 153.126 53.0045 153.278L53.5563 155.2ZM50.3716 153.933C50.1583 153.978 49.9448 153.986 49.7377 153.961L49.4979 155.946C49.9186 155.997 50.352 155.981 50.7827 155.89L50.3716 153.933ZM48.6023 153.419C48.4517 153.273 48.3221 153.101 48.2209 152.906L46.4459 153.828C46.648 154.217 46.9082 154.563 47.2117 154.856L48.6023 153.419ZM48.2198 152.904C48.1206 152.714 48.0564 152.513 48.0255 152.308L46.0478 152.606C46.111 153.026 46.2429 153.439 46.447 153.83L48.2198 152.904ZM48.2445 151.074C48.3445 150.889 48.4745 150.719 48.6331 150.572L47.2704 149.108C46.9503 149.406 46.6878 149.749 46.4866 150.12L48.2445 151.074ZM48.6322 150.573C49.3317 149.923 49.9689 149.251 50.5425 148.555L48.999 147.283C48.4859 147.906 47.9106 148.513 47.2713 149.107L48.6322 150.573ZM53.3514 143.702C53.9812 141.967 54.2963 140.127 54.3056 138.174L52.3056 138.164C52.2973 139.904 52.0176 141.515 51.4714 143.019L53.3514 143.702ZM53.6142 132.695C53.4061 131.839 53.1516 130.964 52.8516 130.07L50.9555 130.706C51.2389 131.551 51.4772 132.371 51.6708 133.168L53.6142 132.695ZM51.698 129.41L48.6982 130.04L49.1093 131.997L52.1091 131.367L51.698 129.41ZM42.6986 131.3L39.6988 131.93L40.1099 133.887L43.1097 133.257L42.6986 131.3ZM39.6988 131.93C38.7954 132.12 37.8945 132.216 37.0061 132.225L37.0275 134.225C38.046 134.214 39.0774 134.104 40.1099 133.887L39.6988 131.93ZM31.7127 131.221C30.0321 130.541 28.4962 129.536 27.1994 128.267L25.8007 129.697C27.2838 131.148 29.04 132.297 30.9625 133.075L31.7127 131.221ZM24.1573 123.819C23.8093 123.001 23.5352 122.137 23.3454 121.233L21.3881 121.644C21.6049 122.677 21.9183 123.665 22.3171 124.602L24.1573 123.819ZM23.3454 121.233L22.743 118.365L20.7857 118.776L21.3881 121.644L23.3454 121.233ZM21.5382 112.629L20.3335 106.893L18.3762 107.304L19.581 113.04L21.5382 112.629ZM19.1287 101.156L17.9239 95.42L15.9667 95.831L17.1714 101.567L19.1287 101.156ZM16.7192 89.684L15.5144 83.948L13.5571 84.359L14.7619 90.095L16.7192 89.684ZM14.3096 78.211L13.1049 72.475L11.1476 72.886L12.3524 78.622L14.3096 78.211ZM11.9001 66.739L11.2977 63.871L9.34036 64.282L9.94276 67.15L11.9001 66.739ZM11.2977 63.871C11.1079 62.967 11.0113 62.066 11.001 61.177L9.00106 61.2C9.01286 62.219 9.12356 63.25 9.34036 64.282L11.2977 63.871ZM11.9962 55.881C12.673 54.197 13.6748 52.659 14.9397 51.36L13.507 49.965C12.06 51.45 10.9146 53.209 10.1406 55.135L11.9962 55.881ZM19.382 48.312C20.1992 47.963 21.0626 47.689 21.9661 47.499L21.555 45.542C20.5225 45.758 19.5339 46.072 18.597 46.472L19.382 48.312ZM21.9661 47.499L24.9073 46.881L24.4962 44.924L21.555 45.542L21.9661 47.499ZM30.7898 45.646L36.6722 44.41L36.2611 42.453L30.3787 43.688L30.7898 45.646ZM42.5547 43.175L48.4371 41.939L48.026 39.982L42.1436 41.217L42.5547 43.175ZM54.3196 40.704L60.202 39.468L59.791 37.511L53.9085 38.747L54.3196 40.704ZM66.0845 38.233L71.967 36.997L71.5559 35.04L65.6734 36.276L66.0845 38.233ZM77.8494 35.762L83.7319 34.526L83.3208 32.569L77.4383 33.805L77.8494 35.762ZM89.6143 33.291L95.4968 32.056L95.0857 30.098L89.2032 31.334L89.6143 33.291ZM101.379 30.82L107.262 29.585L106.851 27.627L100.968 28.863L101.379 30.82ZM113.144 28.349L119.027 27.114L118.615 25.156L112.733 26.392L113.144 28.349ZM124.909 25.878L130.791 24.643L130.38 22.685L124.498 23.921L124.909 25.878ZM136.674 23.407L142.556 22.172L142.145 20.214L136.263 21.45L136.674 23.407ZM148.439 20.936L154.321 19.701L153.91 17.743L148.028 18.979L148.439 20.936ZM160.204 18.465L166.086 17.23L165.675 15.273L159.793 16.508L160.204 18.465ZM171.969 15.994L177.851 14.759L177.44 12.802L171.558 14.037L171.969 15.994ZM183.734 13.523L189.616 12.288L189.205 10.331L183.323 11.566L183.734 13.523ZM195.499 11.052L201.381 9.81699L200.97 7.85998L195.087 9.095L195.499 11.052ZM207.263 8.58099L213.146 7.34601L212.735 5.38901L206.852 6.62399L207.263 8.58099ZM219.028 6.11099L224.911 4.875L224.5 2.918L218.617 4.15301L219.028 6.11099ZM230.793 3.64001L233.734 3.022L233.323 1.065L230.382 1.68201L230.793 3.64001ZM233.734 3.022C234.638 2.832 235.539 2.73601 236.427 2.72601L236.406 0.726989C235.387 0.736989 234.356 0.848002 233.323 1.065L233.734 3.022ZM241.721 3.73001C243.401 4.41001 244.937 5.41599 246.234 6.68399L247.633 5.255C246.149 3.804 244.393 2.65401 242.471 1.87601L241.721 3.73001ZM249.276 11.133C249.624 11.951 249.898 12.815 250.088 13.718L252.045 13.307C251.828 12.275 251.515 11.287 251.116 10.35L249.276 11.133ZM250.088 13.718L250.69 16.587L252.648 16.175L252.045 13.307L250.088 13.718ZM251.895 22.323L253.1 28.059L255.057 27.648L253.852 21.912L251.895 22.323ZM254.305 33.795L255.509 39.532L257.467 39.12L256.262 33.384L254.305 33.795ZM256.714 45.268L257.919 51.004L259.876 50.593L258.671 44.857L256.714 45.268ZM259.124 56.74L260.328 62.477L262.286 62.065L261.081 56.329L259.124 56.74ZM261.533 68.213L262.136 71.081L264.093 70.67L263.49 67.802L261.533 68.213ZM262.136 71.081C262.325 71.985 262.422 72.886 262.432 73.774L264.432 73.751C264.42 72.733 264.31 71.702 264.093 70.67L262.136 71.081ZM261.437 79.071C260.76 80.754 259.759 82.293 258.494 83.591L259.926 84.987C261.373 83.501 262.519 81.742 263.293 79.817L261.437 79.071ZM254.051 86.64C253.234 86.989 252.371 87.263 251.467 87.453L251.878 89.41C252.911 89.193 253.899 88.879 254.836 88.479L254.051 86.64ZM251.467 87.453L248.599 88.055L249.01 90.012L251.878 89.41L251.467 87.453ZM242.861 89.26L237.124 90.465L237.535 92.422L243.273 91.217L242.861 89.26ZM231.387 91.67L225.65 92.875L226.061 94.832L231.798 93.627L231.387 91.67ZM219.913 94.08L214.176 95.285L214.587 97.242L220.324 96.037L219.913 94.08ZM208.439 96.49L202.701 97.695L203.112 99.652L208.85 98.447L208.439 96.49ZM196.964 98.9L191.227 100.105L191.638 102.062L197.375 100.857L196.964 98.9ZM185.49 101.31L179.753 102.515L180.164 104.472L185.901 103.267L185.49 101.31ZM174.016 103.72L168.278 104.925L168.69 106.882L174.427 105.677L174.016 103.72ZM162.541 106.13L156.804 107.334L157.215 109.292L162.952 108.087L162.541 106.13ZM151.067 108.539L145.33 109.744L145.741 111.702L151.478 110.497L151.067 108.539ZM139.593 110.949L133.856 112.154L134.267 114.112L140.004 112.907L139.593 110.949ZM128.118 113.359L122.381 114.564L122.792 116.522L128.53 115.317L128.118 113.359ZM116.644 115.769L110.907 116.974L111.318 118.931L117.055 117.726L116.644 115.769ZM105.17 118.179L99.433 119.384L99.844 121.341L105.581 120.136L105.17 118.179ZM93.6956 120.589L87.9584 121.794L88.3695 123.751L94.1066 122.546L93.6956 120.589ZM82.2213 122.999L79.3526 123.601L79.7637 125.559L82.6323 124.956L82.2213 122.999ZM78.5751 124.397C78.4033 125.319 78.2096 126.212 77.9957 127.077L79.9372 127.557C80.1606 126.654 80.3624 125.723 80.5413 124.763L78.5751 124.397ZM76.3563 132.272C75.6634 134.047 74.8771 135.678 74.0189 137.178L75.7546 138.171C76.6621 136.586 77.4909 134.866 78.2193 133L76.3563 132.272ZM70.9634 141.652C69.777 143.12 68.5192 144.42 67.2253 145.571L68.5549 147.065C69.9265 145.845 71.2606 144.466 72.5187 142.91L70.9634 141.652ZM62.9008 148.84C61.2814 149.875 59.6659 150.722 58.1188 151.413L58.9349 153.239C60.5632 152.511 62.2671 151.619 63.9779 150.525L62.9008 148.84ZM53.0045 153.278C52.033 153.557 51.146 153.77 50.3716 153.933L50.7827 155.89C51.6006 155.718 52.5348 155.494 53.5563 155.2L53.0045 153.278Z" fill="#3D3D3D"/>
</svg>
