<svg width="219" height="197" viewBox="0 0 219 197" fill="none" xmlns="http://www.w3.org/2000/svg">
<path d="M130.578 0.544899C113.397 -2.03768 96.5559 4.99784 86.1576 18.1949C81.0188 15.5145 75.4972 13.7033 69.7739 12.843C40.8744 8.49877 13.8284 28.4761 9.48423 57.3756C6.11537 79.7866 17.1427 101.32 36.7027 111.818C40.9854 133.599 58.3254 150.47 80.7364 153.839C89.2585 155.12 97.8334 154.296 105.925 151.449C112.341 156.476 119.825 159.715 127.906 160.93C144.573 163.435 161.27 156.852 171.824 143.979C195.18 141.058 213.994 123.051 217.553 99.3719C222.038 69.5395 201.016 41.3478 170.18 38.7599C166.525 19.2164 150.997 3.61437 130.578 0.544899ZM52.9552 160.382C48.7851 159.755 44.5367 160.811 41.1448 163.316C37.7528 165.821 35.4951 169.572 34.8683 173.742C34.2414 177.912 35.2968 182.16 37.8022 185.552C40.3077 188.944 44.058 191.202 48.228 191.829C52.3981 192.456 56.6464 191.4 60.0384 188.895C63.4304 186.389 65.6881 182.639 66.3149 178.469C66.9418 174.299 65.8864 170.051 63.381 166.659C60.8755 163.267 57.1252 161.009 52.9552 160.382ZM13.1159 175.832C10.3359 175.414 7.50367 176.117 5.24237 177.788C2.98107 179.458 1.4759 181.958 1.058 184.738C0.640099 187.518 1.34369 190.35 3.01398 192.612C4.68428 194.873 7.18447 196.378 9.96453 196.796C12.7446 197.214 15.5768 196.51 17.8381 194.84C20.0994 193.17 21.6046 190.67 22.0225 187.889C22.4404 185.109 21.7368 182.277 20.0665 180.016C18.3962 177.755 15.896 176.249 13.1159 175.832Z" fill="white"/>
</svg>
