<svg width="159" height="76" viewBox="0 0 159 76" fill="none" xmlns="http://www.w3.org/2000/svg">
<path d="M10.087 70.086C9.26401 69.961 8.626 69.3 8.525 68.473C8.423 67.652 8.89401 66.86 9.65901 66.545C13.936 64.788 16.049 61.429 16.233 56.035L8.65202 54.882C3.60302 54.115 0.121993 49.385 0.889993 44.336L6.39201 8.154C7.15901 3.105 11.889 -0.375992 16.938 0.392008L150.728 20.735C155.777 21.503 159.257 26.232 158.49 31.281L152.988 67.463C152.22 72.512 147.491 75.993 142.442 75.225L33.704 58.692C26.25 71.051 14.771 70.798 10.087 70.086Z" fill="#13ABB0"/>
<path fill-rule="evenodd" clip-rule="evenodd" d="M138.087 63.36L16.291 44.84L16.733 41.931L138.529 60.451L138.087 63.36Z" fill="white"/>
<path fill-rule="evenodd" clip-rule="evenodd" d="M139.562 53.663L17.765 35.143L18.207 32.234L140.004 50.754L139.562 53.663Z" fill="white"/>
<path fill-rule="evenodd" clip-rule="evenodd" d="M141.036 43.966L19.24 25.446L19.682 22.537L141.478 41.057L141.036 43.966Z" fill="white"/>
<path fill-rule="evenodd" clip-rule="evenodd" d="M142.51 34.268L20.714 15.749L21.156 12.84L142.953 31.359L142.51 34.268Z" fill="white"/>
</svg>
