<svg width="161" height="161" viewBox="0 0 161 161" fill="none" xmlns="http://www.w3.org/2000/svg">
<path d="M134.326 106.859C119.776 136.579 83.8895 148.876 54.1691 134.326C24.4487 119.776 12.1516 83.8895 26.7018 54.1691C41.2521 24.4487 77.1383 12.1516 106.859 26.7018C136.579 41.2521 148.876 77.1383 134.326 106.859Z" fill="#13ABB0"/>
<path d="M123.563 101.59C111.923 125.367 83.2144 135.204 59.4375 123.563C35.6607 111.923 25.8233 83.2149 37.4637 59.438C49.1042 35.6612 77.8123 25.8238 101.589 37.4642C125.366 49.1047 135.203 77.8128 123.563 101.59Z" fill="white"/>
<path d="M40.84 94.1088L82.4556 86.1809L120.187 66.9189L78.5717 74.8468L40.84 94.1088Z" fill="#C3EFF0"/>
<path d="M62.0739 118.18L85.8951 83.1486L98.954 42.8483L75.1327 77.8796L62.0739 118.18Z" fill="#C3EFF0"/>
<path d="M94.1085 120.187L86.1807 78.5719L66.9187 40.8402L74.8438 82.4545L94.1085 120.187Z" fill="#C3EFF0"/>
<path d="M42.8481 62.0739L76.5621 88.5858L84.4655 72.4421L42.8481 62.0739Z" fill="#EDA38F"/>
<path d="M84.4653 72.4421L76.5619 88.5857L118.179 98.954L84.4653 72.4421Z" fill="#FFBFAE"/>
<path d="M81.9706 84.7662C79.622 85.571 77.0686 84.321 76.2638 81.9724C75.459 79.6238 76.7091 77.0704 79.0577 76.2656C81.4063 75.4608 83.9611 76.7149 84.7645 79.0595C85.5693 81.4081 84.3205 83.9587 81.9706 84.7662Z" fill="white"/>
</svg>
