<svg width="119" height="98" viewBox="0 0 119 98" fill="none" xmlns="http://www.w3.org/2000/svg"><path d="M61.2509 9.18858C62.8695 15.4048 59.1469 21.7549 52.9363 23.3721C46.7257 24.9892 40.3789 21.2609 38.7604 15.0447C37.1418 8.82846 40.8643 2.4783 47.0749 0.861186C53.2855 -0.75593 59.6323 2.97237 61.2509 9.18858Z" fill="#EDA38F"></path><path d="M0.285021 55.2226L114.435 25.5002L118.859 42.4895L4.70871 72.2119L0.285021 55.2226Z" fill="#EDA38F"></path><path d="M80.3833 82.6675C82.0019 88.8837 78.2794 95.2338 72.0688 96.8509C65.8582 98.4681 59.5114 94.7398 57.8928 88.5235C56.2743 82.3073 59.9968 75.9572 66.2074 74.3401C72.418 72.723 78.7648 76.4513 80.3833 82.6675Z" fill="#EDA38F"></path></svg>