<svg viewBox="0 0 154 170" fill="none" xmlns="http://www.w3.org/2000/svg">
    <path d="M60.5225 1.16324C59.1997 0.60172 57.7104 0.583068 56.3815 1.11139C55.0526 1.6397 53.9927 2.67182 53.4342 3.98122C46.9542 18.6118 47.9487 33.4054 52.4135 47.3087C56.1583 58.9701 62.2454 70.2002 68.5745 81.2232C40.5978 87.3765 13.0475 95.1666 1.20747 121.899C0.00407108 124.616 1.25337 127.797 3.99121 129.009C6.72906 130.222 9.9238 129.01 11.1272 126.293C21.2963 103.333 46.7246 96.9594 74.2121 91.0206C79.8076 100.713 85.0238 110.243 88.7458 119.531L53.1646 103.772C53.1646 103.772 45.3724 105.722 40.307 109.831L93.0637 133.198C93.9216 137.324 94.3133 141.395 94.1653 145.44L30.4718 117.229C26.3233 120.822 23.6299 125.953 23.6299 125.953L92.3512 156.39C91.8355 158.069 91.2341 159.75 90.485 161.441C90.1874 162.088 90.0225 162.788 90 163.501C89.9775 164.213 90.0978 164.924 90.3539 165.593C90.6101 166.261 90.9969 166.872 91.492 167.392C91.9871 167.912 92.5805 168.33 93.2378 168.621C93.8951 168.912 94.6032 169.071 95.3209 169.088C96.0385 169.105 96.7515 168.981 97.4184 168.721C98.0852 168.462 98.6926 168.073 99.2053 167.578C99.718 167.082 100.126 166.49 100.405 165.834C106.885 151.204 105.89 136.41 101.426 122.507C96.9608 108.604 89.1792 95.2942 81.6101 82.2446C74.041 69.195 66.6861 56.4016 62.7349 44.0976C58.7837 31.7936 58.0829 20.2757 63.354 8.37475C63.6542 7.72144 63.819 7.01398 63.8387 6.29428C63.8583 5.57458 63.7324 4.85727 63.4684 4.18482C63.2043 3.51237 62.8076 2.89847 62.3016 2.37945C61.7955 1.86044 61.1906 1.44687 60.5225 1.16324ZM149.848 40.8065C147.11 39.5939 143.915 40.8059 142.712 43.523C141.965 45.2082 141.102 46.7731 140.197 48.286L71.5044 17.8617C71.5044 17.8617 69.5149 23.3042 69.6418 28.7909L133.316 56.9927C130.4 59.8392 127.073 62.2501 123.471 64.3864L70.7726 41.0458C71.1332 47.5587 74.9257 54.6394 74.9257 54.6394L110.565 70.4244C104.326 72.747 97.6481 74.658 90.6393 76.3262C90.7585 76.5259 90.8623 76.7142 90.9815 76.914C92.721 79.9118 94.487 82.9752 96.2358 86.0594C120.207 80.0796 142.347 71.1365 152.632 47.9165C153.835 45.1995 152.586 42.0191 149.848 40.8065Z" fill="currentColor"/>
</svg>
