<svg width="178" height="135" viewBox="0 0 178 135" fill="none" xmlns="http://www.w3.org/2000/svg">
<path d="M73.1523 118.283C113.073 127.036 152.531 101.769 161.283 61.8478C170.036 21.9269 144.768 -17.5306 104.848 -26.283C64.9267 -35.0354 25.4692 -9.76834 16.7168 30.1525C7.96441 70.0734 33.2314 109.531 73.1523 118.283Z" fill="#17C7FF"/>
<path d="M145.039 -2.3311L127.504 8.59334L123.856 25.2329L97.0201 43.9707L92.2658 65.6556L115.621 70.776L118.427 113.903C139.477 104.756 155.992 85.9794 161.283 61.8477C166.468 38.1966 159.712 14.7079 145.039 -2.3311Z" fill="#13ABB0"/>
<path d="M64.2259 67.0838L59.6024 54.7065L46.0746 51.7406L33.7728 30.1041L49.7655 33.6104L76.4758 16.7392L80.4377 -1.33162L66.2232 -4.44806L56.0874 -20.2763C36.7693 -10.6708 21.8083 7.25746 16.7643 29.9357L33.6664 56.505L31.7958 92.9396C38.4414 101.052 46.8382 107.794 56.5725 112.531L69.2578 94.7022L78.8954 92.0879L83.5002 71.3096L64.2259 67.0838Z" fill="#13ABB0"/>
</svg>
