<svg width="113" height="139" viewBox="0 0 113 139" fill="none" xmlns="http://www.w3.org/2000/svg"><path d="M1.13877 86.3703L30.9382 87.1654C29.9855 92.4198 30.8874 97.354 33.644 101.968C36.5607 106.483 41.0054 109.437 46.9782 110.831C52.3017 112.074 57.1602 111.497 61.5535 109.1C65.9772 106.572 68.8407 102.517 70.1441 96.9339C71.5384 90.9612 70.6668 85.8971 67.5293 81.7417C64.5216 77.6166 60.2911 74.9176 54.8377 73.6445C47.4367 71.9168 40.8923 73.2644 35.2046 77.6872L31.2836 75.1288C28.5094 73.5227 25.5556 71.8063 22.4222 69.9795C19.4186 68.183 16.5946 66.4969 13.9503 64.9211C11.3059 63.3454 9.93396 62.4775 9.83443 62.3173L39.3743 0.00102984L112.8 17.1418L106.799 42.8506L54.602 30.6656L43.9912 53.2447C50.2458 49.9126 57.9176 49.3075 67.0065 51.4292C80.2505 54.5209 89.9688 60.6918 96.1614 69.9417C102.354 79.1917 103.889 90.5036 100.767 103.877C97.8879 116.212 90.9531 125.684 79.9632 132.292C69.1031 138.93 56.0772 140.476 40.8857 136.93C27.3821 133.777 16.9302 127.23 9.53005 117.287C2.29005 107.245 -0.507046 96.9395 1.13877 86.3703Z" fill="#EDA38F"></path></svg>