<svg width="131" height="134" viewBox="0 0 131 134" fill="none" xmlns="http://www.w3.org/2000/svg">
<path d="M44.5416 2.12891C14.0904 8.96014 -4.85546 39.926 2.12229 71.0302C5.79441 87.3992 15.9341 100.643 29.1452 108.524C29.1457 108.526 29.1461 108.528 29.1466 108.53C33.811 111.31 37.1462 115.59 38.2798 120.644L40.3034 129.664C40.4277 130.257 40.6688 130.82 41.0127 131.319C41.3566 131.819 41.7965 132.245 42.3067 132.573C42.8169 132.901 43.3873 133.124 43.9847 133.23C44.5822 133.336 45.1947 133.322 45.7868 133.189C46.3789 133.056 46.9387 132.807 47.4337 132.456C47.9287 132.105 48.3491 131.66 48.6703 131.145C48.9915 130.631 49.2072 130.058 49.3048 129.459C49.4025 128.861 49.3801 128.249 49.239 127.659L47.2155 118.639C45.4839 110.92 40.4305 104.598 33.8418 100.67C22.731 94.0417 14.175 82.9204 11.0579 69.0257C5.13157 42.6081 21.0643 16.7723 46.5443 11.0563C70.5499 5.67098 94.4047 20.1229 102.06 43.898C102.335 44.7513 102.855 45.505 103.555 46.0656L121.816 60.6796C121.933 60.7734 121.944 60.6235 121.815 60.7041L110.845 67.5299C110.039 68.0321 109.41 68.7719 109.044 69.647C108.677 70.522 108.592 71.4891 108.8 72.4144L112.966 90.984C113.4 92.9218 112.562 94.8763 110.861 95.9003L95.4814 105.162C91.5566 107.524 89.5638 112.176 90.5658 116.643L90.9387 118.305C91.063 118.898 91.3041 119.461 91.648 119.96C91.9919 120.46 92.4317 120.886 92.942 121.214C93.4522 121.542 94.0225 121.765 94.62 121.871C95.2174 121.976 95.83 121.963 96.4221 121.83C97.0142 121.697 97.574 121.448 98.069 121.097C98.564 120.746 98.9843 120.301 99.3056 119.786C99.6268 119.272 99.8425 118.698 99.9401 118.1C100.038 117.502 100.015 116.89 99.8743 116.3L99.5014 114.638C99.3538 113.98 99.6249 113.352 100.204 113.003L115.588 103.734C120.639 100.693 123.19 94.7251 121.901 88.9794L118.446 73.5775L126.66 68.4628C131.905 65.1936 132.369 57.3949 127.545 53.5339L110.148 39.6113C100.582 12.4773 72.7065 -4.18945 44.5416 2.12891ZM51.3779 25.6301C38.2818 28.5718 29.9462 41.6591 32.8836 54.7528C34.4093 61.5537 38.9207 66.7237 44.4921 70.0289L51.3936 85.5673C53.4492 90.192 58.5517 92.7582 63.4937 91.6496L68.6189 90.4998C73.5609 89.3911 77.0783 84.8912 76.9614 79.8316L76.5697 62.8328C80.1979 57.4637 82.066 50.8627 80.5403 44.0618C77.603 30.9681 64.4756 22.6957 51.3779 25.6301ZM53.3806 34.5575C61.6642 32.7016 69.7502 37.7999 71.6047 46.0663C72.6847 50.8806 71.3671 55.6004 68.4482 59.124C67.7448 59.9733 67.3717 61.0476 67.3977 62.1494L67.4773 65.7455L53.9516 68.7798L52.4933 65.493C52.0461 64.4857 51.2499 63.6736 50.2511 63.2062C46.1091 61.2667 42.8992 57.5625 41.8192 52.7482C39.9648 44.4818 45.098 36.4179 53.3806 34.5575ZM57.7403 77.3064L67.694 75.0735L67.8078 80.0476C67.8253 80.8026 67.3513 81.4075 66.6162 81.5725L61.491 82.7222C60.7559 82.8871 60.069 82.5426 59.7622 81.8525L57.7403 77.3064Z" fill="#EDA38F"/>
</svg>
