<svg width="244" height="203" viewBox="0 0 244 203" fill="none" xmlns="http://www.w3.org/2000/svg"><path d="M116.778 56.6362C120.513 49.9357 128.552 45.5907 137.105 44.6277C149.964 43.0399 159.373 51.1901 160.684 63.972C162.283 76.8119 158.43 88.556 141.38 90.1963C128.579 91.4975 116.07 85.4061 114.532 67.8089C114.247 64.7711 114.765 62.1929 115.571 59.6722C116.03 58.8704 116.261 57.7246 116.778 56.6362Z" fill="white"></path><path d="M114.074 65.6307C115.396 63.5119 117.75 62.197 120.161 62.0855C124.122 61.6894 126.933 64.0429 127.332 67.9977C127.731 71.9526 126.753 75.3324 121.529 76.0707C117.568 76.4676 113.781 74.5132 113.325 69.3549C113.211 68.4378 113.384 67.5783 113.499 67.0054C113.959 66.2036 114.016 65.9173 114.074 65.6307Z" fill="#171009"></path><path d="M42.5612 137.691C42.5612 137.691 42.5037 137.977 41.8723 138.148C42.3318 137.347 42.3893 137.061 42.5612 137.691Z" fill="#EDA38F"></path>
<path d="M38.3811 38.1958C43.3724 38.6029 47.1581 43.5368 46.8104 49.7258C46.4619 55.915 42.2676 60.4376 36.93 60.2576C31.9365 59.8491 28.153 54.9164 28.5002 48.7277C28.7923 42.8254 33.3299 38.0744 38.3811 38.1958Z" fill="#3D3D3D"></path>
<path d="M133.62 20.381C131.381 21.1233 129.142 21.8653 126.96 22.321C124.779 22.7767 122.368 22.8881 120.244 23.0572C117.891 22.8823 115.537 22.7071 113.586 22.017C112.438 21.7862 111.348 21.2689 110.258 20.7516C109.167 20.2345 108.364 19.7749 107.331 18.9712L107.389 18.6847C108.537 18.9154 109.627 19.4327 110.775 19.6635C111.062 19.7212 111.349 19.7788 111.636 19.8365C111.923 19.8942 112.21 19.9519 112.497 20.0096C112.784 20.0673 113.071 20.125 113.358 20.1826L114.219 20.3557C115.367 20.5865 116.227 20.7595 117.433 20.7037C118.007 20.819 118.581 20.9347 118.925 20.7058C119.499 20.8212 120.131 20.6499 120.418 20.7076C122.484 20.8251 124.608 20.6557 127.019 20.5443C129.085 20.6618 131.209 20.4925 133.62 20.381Z" fill="#3D3D3D"></path>
<path d="M158.06 33.9382C158.347 33.9959 158.29 34.2822 158.577 34.3399C159.093 34.7418 159.322 35.0859 159.839 35.4878C160.585 36.2338 161.388 36.6934 162.133 37.4394C162.65 37.8413 162.879 38.1853 163.453 38.3007C163.969 38.7027 164.256 38.7604 164.773 39.1621C165.576 39.6217 166.609 40.4253 167.412 40.885C169.306 41.8617 171.142 43.125 173.035 44.1017L172.978 44.3883C170.682 43.9268 168.731 43.2364 166.55 42.202C164.657 41.2253 162.476 40.1906 160.64 38.9276C159.894 38.1814 158.862 37.3778 158.116 36.6318C157.37 35.8858 156.682 34.8533 155.936 34.1073C155.248 33.0748 154.79 32.3865 154.101 31.3539C153.7 30.3791 153.299 29.4043 152.955 28.143L153.243 28.2007C154.619 30.2658 155.823 31.7001 157.257 33.4786C157.486 33.8228 157.773 33.8805 158.06 33.9382Z" fill="#3D3D3D"></path>
<path d="M52.1535 45.4345C67.0889 38.4577 75.1185 38.1288 75.1185 38.1288L76.9223 40.4344C76.9223 40.4344 80.0398 61.174 92.2649 62.7375C101.276 63.9526 109.946 60.9267 114.542 54.3993C117.24 54.3453 119.879 56.0682 122.174 58.0198C123.206 58.8234 123.952 59.5694 124.698 60.3156C123.548 63.065 122.857 66.5027 123.084 69.8268C124.852 87.767 137.361 93.8585 150.449 92.615C167.786 91.0323 171.696 79.0028 170.155 65.8767C168.614 52.7505 159.206 44.6002 146.06 46.1303C137.22 47.0359 129.41 51.725 125.388 58.3677C124.642 57.6218 123.896 56.8758 122.864 56.0722C120.798 54.4646 118.446 52.7997 115.519 52.5093C116.496 50.6192 117.243 48.385 117.704 46.0934C118.281 41.7385 117.423 37.0952 115.819 33.1961C210.925 35.4512 221.868 140.056 221.868 140.056C200.3 113.754 167.658 122.253 161.523 128.521C148.648 141.676 149.304 175.543 149.304 175.543C120.09 172.351 85.5977 164.225 63.388 157.376C76.1463 134.01 84.6468 125.884 79.9491 112.123C79.7771 111.493 90.7393 113.399 97.5711 112.088C103.484 110.893 105.094 105.852 104.578 105.45C103.775 104.991 100.213 109.34 93.8989 109.562C87.5272 110.069 78.3454 106.733 76.4528 104.266C66.7622 88.6087 49.9582 66.7512 48.008 64.5708C44.9464 59.543 52.1535 45.4345 52.1535 45.4345Z" fill="#9B6544"></path>
<path d="M74.8728 47.0068C73.1036 36.174 81.3692 25.8191 93.3346 23.8787C105.3 21.9382 116.434 29.1469 118.203 39.9797C119.972 50.8126 111.707 61.1675 99.7413 63.1079C87.7761 65.0481 76.642 57.8396 74.8728 47.0068Z" fill="white"></path>
<path d="M125.673 58.4249C129.696 51.7821 137.505 47.0927 146.345 46.1875C159.491 44.6573 168.899 52.8076 170.44 65.9338C171.982 79.0599 168.071 91.0893 150.735 92.6721C137.647 93.9156 124.851 87.7665 123.37 69.884C123.085 66.8461 123.603 64.2679 124.408 61.7472C124.639 60.6014 125.156 59.513 125.673 58.4249Z" fill="white"></path>
<path d="M77.325 49.5099C74.1454 48.3205 72.6237 44.5383 73.9262 41.0621C75.2288 37.586 78.8623 35.7323 82.0418 36.9218C85.2214 38.1112 86.7432 41.8935 85.4406 45.3696C84.1381 48.8457 80.5046 50.6994 77.325 49.5099Z" fill="#272727"></path>
<path d="M122.97 67.4197C124.291 65.3009 126.645 63.9857 129.114 63.5879C133.075 63.1918 135.886 65.5453 136.285 69.5001C136.684 73.4551 135.649 77.1207 130.483 77.5729C126.521 77.9697 122.734 76.0154 122.336 70.5708C122.222 69.6538 122.395 68.7941 122.567 67.9349C122.51 68.2212 122.854 67.9926 122.97 67.4197Z" fill="#272727"></path>
<path d="M116.778 56.6362C120.513 49.9357 128.552 45.5907 137.105 44.6277C149.964 43.0399 159.373 51.1901 160.684 63.972C162.283 76.8119 158.43 88.556 141.38 90.1963C128.579 91.4975 116.07 85.4061 114.532 67.8089C114.247 64.7711 114.765 62.1929 115.571 59.6722C116.03 58.8704 116.261 57.7246 116.778 56.6362Z" fill="white"></path>
<path d="M114.074 65.6307C115.396 63.5119 117.75 62.197 120.161 62.0855C124.122 61.6894 126.933 64.0429 127.332 67.9977C127.731 71.9526 126.753 75.3324 121.529 76.0707C117.568 76.4676 113.781 74.5132 113.325 69.3549C113.211 68.4378 113.384 67.5783 113.499 67.0054C113.959 66.2036 114.016 65.9173 114.074 65.6307Z" fill="#171009"></path>
<path d="M42.5612 137.691C42.5612 137.691 42.5037 137.977 41.8722 138.148C42.3317 137.347 42.3892 137.061 42.5612 137.691Z" fill="#EDA38F"></path>
<path d="M38.3811 38.1958C43.3724 38.6029 47.1581 43.5368 46.8104 49.7258C46.4619 55.915 42.2676 60.4376 36.93 60.2576C31.9365 59.8491 28.153 54.9164 28.5002 48.7277C28.7923 42.8254 33.3299 38.0744 38.3811 38.1958Z" fill="#3D3D3D"></path>
<path d="M133.62 20.381C131.381 21.1233 129.142 21.8653 126.96 22.321C124.779 22.7767 122.368 22.8881 120.244 23.0572C117.891 22.8823 115.537 22.7071 113.586 22.017C112.438 21.7862 111.348 21.2689 110.258 20.7516C109.167 20.2345 108.364 19.7749 107.331 18.9712L107.389 18.6847C108.537 18.9154 109.627 19.4327 110.775 19.6635C111.062 19.7212 111.349 19.7788 111.636 19.8365C111.923 19.8942 112.21 19.9519 112.497 20.0096C112.784 20.0673 113.071 20.125 113.358 20.1826L114.219 20.3557C115.367 20.5865 116.227 20.7595 117.433 20.7037C118.007 20.819 118.581 20.9347 118.925 20.7058C119.499 20.8212 120.131 20.6499 120.418 20.7076C122.484 20.8251 124.608 20.6557 127.019 20.5443C129.085 20.6618 131.209 20.4925 133.62 20.381Z" fill="#3D3D3D"></path>
<path d="M158.06 33.9382C158.347 33.9959 158.29 34.2822 158.577 34.3399C159.093 34.7418 159.322 35.0859 159.839 35.4878C160.585 36.2338 161.388 36.6934 162.133 37.4394C162.65 37.8413 162.879 38.1853 163.453 38.3007C163.969 38.7027 164.256 38.7604 164.773 39.1621C165.576 39.6217 166.609 40.4253 167.412 40.885C169.306 41.8617 171.142 43.125 173.035 44.1017L172.978 44.3883C170.682 43.9268 168.731 43.2364 166.55 42.202C164.657 41.2253 162.476 40.1906 160.64 38.9276C159.894 38.1814 158.862 37.3778 158.116 36.6318C157.37 35.8858 156.682 34.8533 155.936 34.1073C155.248 33.0748 154.79 32.3865 154.101 31.3539C153.7 30.3791 153.299 29.4043 152.955 28.143L153.243 28.2007C154.619 30.2658 155.823 31.7001 157.257 33.4786C157.486 33.8228 157.773 33.8805 158.06 33.9382Z" fill="#3D3D3D"></path>
<path d="M52.1507 45.4336C67.0861 38.457 75.1157 38.1279 75.1157 38.1279L76.9195 40.4337C76.9195 40.4337 80.037 61.1733 92.2621 62.7366C101.273 63.952 109.943 60.9258 114.539 54.3984C117.237 54.3446 119.876 56.0673 122.171 58.0189C123.204 58.8227 123.949 59.5687 124.695 60.3146C123.545 63.0641 122.854 66.5018 123.081 69.8262C124.849 87.7661 137.358 93.8575 150.447 92.614C167.782 91.0313 171.694 79.0021 170.152 65.876C168.611 52.7498 159.203 44.5993 146.057 46.1296C137.217 47.0349 129.407 51.7243 125.385 58.3671C124.639 57.6211 123.894 56.8749 122.861 56.0712C120.796 54.4639 118.443 52.7989 115.516 52.5084C116.493 50.6185 117.241 48.3843 117.701 46.0924C118.278 41.7376 117.42 37.0943 115.816 33.1951C210.922 35.4505 222.4 121.366 221.865 140.055C221.331 158.743 215.911 178.084 215.911 178.084L205.584 178.562L201.65 179.046L149.301 175.542C120.087 172.35 85.5949 164.224 63.3852 157.375C76.1435 134.009 84.644 125.883 79.9461 112.122C79.7743 111.492 90.7363 113.398 97.568 112.087C103.481 110.892 105.092 105.851 104.575 105.449C103.772 104.99 100.21 109.339 93.8961 109.561C87.5244 110.068 78.3427 106.732 76.45 104.265C66.7595 88.6078 49.9555 66.7503 48.0053 64.5699C44.9436 59.5421 52.1507 45.4336 52.1507 45.4336Z" fill="#9B6544"></path>
<g filter="url(#filter0_d_73:1869)"><path d="M74.8728 47.0068C73.1036 36.174 81.3692 25.8191 93.3346 23.8787C105.3 21.9382 116.434 29.1469 118.203 39.9797C119.972 50.8126 111.707 61.1675 99.7413 63.1079C87.7761 65.0481 76.642 57.8396 74.8728 47.0068Z" fill="white"></path></g>
<path d="M125.673 58.4249C129.696 51.7821 137.505 47.0927 146.345 46.1875C159.491 44.6573 168.899 52.8076 170.44 65.9338C171.982 79.0599 168.071 91.0893 150.735 92.6721C137.647 93.9156 124.851 87.7665 123.37 69.884C123.085 66.8461 123.603 64.2679 124.408 61.7472C124.639 60.6014 125.156 59.513 125.673 58.4249Z" fill="white"></path>
<path d="M77.325 49.5099C74.1454 48.3205 72.6237 44.5383 73.9262 41.0621C75.2288 37.586 78.8623 35.7323 82.0418 36.9218C85.2214 38.1112 86.7432 41.8935 85.4406 45.3696C84.1381 48.8457 80.5046 50.6994 77.325 49.5099Z" fill="#272727"></path>
<path d="M122.97 67.4197C124.291 65.3009 126.645 63.9857 129.114 63.5879C133.075 63.1918 135.886 65.5453 136.285 69.5001C136.684 73.4551 135.649 77.1207 130.483 77.5729C126.521 77.9697 122.734 76.0154 122.336 70.5708C122.222 69.6538 122.395 68.7941 122.567 67.9349C122.51 68.2212 122.854 67.9926 122.97 67.4197Z" fill="#272727"></path>
<path d="M46.9609 99.6033C49.4359 100.283 52.0337 101.441 54.4516 102.898C64.4263 108.905 71.1092 121.049 63.9216 132.956L54.9371 147.838L49.5466 156.767C47.2104 160.637 43.9678 163.96 39.8757 165.959L37.4082 167.316C36.0855 168.141 34.5739 167.232 34.3858 165.496L34.7118 156.762C34.581 154.247 32.0402 152.313 29.7533 153.369L20.6052 157.6C19.4618 158.128 17.9486 157.219 17.8835 155.96L17.549 147.641C17.4178 145.128 14.9999 143.672 12.7132 144.728L5.85228 147.901C4.22433 148.547 2.89385 147.339 3.00857 145.784L3.30315 143.932C3.83158 141.004 4.9681 138.441 6.4065 136.059L23.117 108.377C29.2926 99.5159 38.4484 97.3193 46.9609 99.6033Z" fill="#FFBFAE"></path>
<path d="M182.222 131.574C184.776 131.404 187.61 131.634 190.378 132.19C201.795 134.485 212.242 143.404 209.607 156.511L206.313 172.895L204.337 182.726C203.481 186.986 201.586 191.037 198.44 194.157L196.594 196.172C195.639 197.343 193.909 196.995 193.135 195.477L190.432 187.432C189.443 185.187 186.395 184.234 184.616 185.923L177.499 192.674C176.61 193.518 174.879 193.17 174.385 192.048L171.205 184.59C170.216 182.345 167.448 181.789 165.669 183.477L160.331 188.542C159.03 189.644 157.366 188.967 156.937 187.517L156.574 185.741C156.064 182.909 156.245 180.219 156.772 177.596L162.898 147.122C165.286 137.031 173.457 132.198 182.222 131.574Z" fill="#FFBFAE"></path>
<defs>
<filter id="filter0_d_73:1869" x="73.6343" y="21.5631" width="45.8072" height="41.8603" filterUnits="userSpaceOnUse" color-interpolation-filters="sRGB">
<feFlood flood-opacity="0" result="BackgroundImageFix"></feFlood>
<feColorMatrix in="SourceAlpha" type="matrix" values="0 0 0 0 0 0 0 0 0 0 0 0 0 0 0 0 0 0 127 0" result="hardAlpha"></feColorMatrix>
<feOffset dy="-1"></feOffset>
<feGaussianBlur stdDeviation="0.5"></feGaussianBlur>
<feColorMatrix type="matrix" values="0 0 0 0 0 0 0 0 0 0 0 0 0 0 0 0 0 0 0.1 0"></feColorMatrix>
<feBlend mode="normal" in2="BackgroundImageFix" result="effect1_dropShadow_73:1869"></feBlend>
<feBlend mode="normal" in="SourceGraphic" in2="effect1_dropShadow_73:1869" result="shape"></feBlend>
</filter>
</defs>
</svg>