<svg width="183" height="173" viewBox="0 0 183 173" fill="none" xmlns="http://www.w3.org/2000/svg">
<path d="M168.916 141.048L125.472 150.75C124.224 151.029 122.932 150.444 122.324 149.315C109.964 126.603 100.605 123.349 94.9226 124.617C83.0433 127.27 80.9609 149.241 80.6299 158.568C80.5753 159.868 79.6626 160.98 78.3816 161.266L34.3788 171.092C33.5358 171.281 32.6643 171.084 31.9836 170.558C31.3138 170.03 30.9041 169.225 30.885 168.367C29.7357 125.439 31.8535 51.8953 47.0284 48.5066C50.5977 47.7095 54.7408 49.9453 59.8291 55.4873C62.0314 17.7879 67.8014 16.4994 70.3524 15.9297C78.1479 14.1889 91.8944 34.4644 111.248 76.2468C114.027 55.0281 118.297 54.0745 120.257 53.6369C134.567 50.4413 167.258 128.269 170.942 137.148C171.268 137.937 171.234 138.818 170.84 139.573C170.443 140.317 169.748 140.863 168.916 141.048Z" fill="#13ABB0"/>
<path d="M178.916 141.048L135.472 150.75C134.224 151.029 132.932 150.444 132.324 149.315C119.964 126.603 110.605 123.349 104.923 124.617C93.0433 127.27 90.9609 149.241 90.6299 158.568C90.5753 159.868 89.6626 160.98 88.3816 161.266L44.3788 171.092C43.5358 171.281 42.6643 171.084 41.9836 170.558C41.3138 170.03 40.9041 169.225 40.885 168.367C39.7357 125.439 41.8535 51.8953 57.0284 48.5066C60.5977 47.7095 64.7408 49.9453 69.8291 55.4873C72.0314 17.7879 77.8014 16.4994 80.3524 15.9297C88.1479 14.1889 101.894 34.4644 121.248 76.2468C124.027 55.0281 128.297 54.0745 130.257 53.6369C144.567 50.4413 177.258 128.269 180.942 137.148C181.268 137.937 181.234 138.818 180.84 139.573C180.443 140.317 179.748 140.863 178.916 141.048Z" stroke="#3D3D3D" stroke-width="2" stroke-linecap="round" stroke-dasharray="6 6"/>
</svg>
