<svg width="218" height="249" viewBox="0 0 218 249" fill="none" xmlns="http://www.w3.org/2000/svg"><path d="M0.406435 216.739L24.5175 173.842C34.9965 183.22 47.9716 189.888 63.443 193.846C83.0239 198.856 100.547 198.317 116.014 192.229C131.783 185.961 143.019 173.253 149.721 154.105C143.093 159.878 134.539 163.614 124.059 165.311C113.822 167.071 103.385 166.59 92.7482 163.868C69.7829 157.992 52.3302 145.671 40.3899 126.905C28.6914 108.201 25.8109 87.2447 31.7485 64.0377C37.9334 39.8637 51.466 22.2057 72.3462 11.0638C93.53 -0.257927 117.78 -2.42429 145.097 4.56473C173.139 11.7393 193.478 27.3746 206.115 51.4705C218.994 75.6284 220.795 105.838 211.518 142.099C200.756 184.162 181.497 214.134 153.741 232.016C126.047 249.657 92.1351 253.344 52.0062 243.077C29.5244 237.325 12.3245 228.545 0.406435 216.739ZM140.674 115.474C149.051 110.92 154.476 103.809 156.95 94.1391C159.424 84.4695 158.081 75.6262 152.92 67.6091C148.001 59.6539 140.465 54.3775 130.312 51.7798C120.159 49.1821 110.894 50.16 102.517 54.7135C94.3824 59.3288 89.0778 66.4712 86.6038 76.1408C84.1298 85.8104 85.3523 94.6228 90.2712 102.578C95.4318 110.595 103.089 115.902 113.242 118.5C123.153 121.036 132.297 120.027 140.674 115.474Z" fill="#13ABB0"></path></svg>