<svg width="112" height="107" viewBox="0 0 112 107" fill="none" xmlns="http://www.w3.org/2000/svg"><path d="M61.6583 105.321C50.4281 101.957 46.0315 92.2304 49.9079 79.2916C52.8081 69.6114 57.4378 58.8301 63.2838 45.1859C65.5477 39.9072 67.992 34.2198 70.5719 28.041L57.8343 24.2249L55.2481 30.5406C35.9051 77.7684 28.6682 95.4375 10.5703 90.0154C5.10378 88.3777 -1.05994 81.3838 1.59535 72.5209C3.57013 65.9295 7.22914 64.6429 11.0961 63.2798C17.3805 61.0679 27.8026 57.4005 42.8996 19.7505L38.5264 18.4403C32.3381 16.5863 27.0204 18.3128 21.7784 23.8792C19.6151 25.8105 16.4849 27.7644 12.0697 24.8569C11.3934 24.4114 10.9442 23.7101 10.825 22.911C10.7027 22.1224 10.9231 21.3094 11.4334 20.6873C16.0863 15.0023 20.542 10.0911 25.2662 4.90172L25.4763 4.66391C29.5194 0.357785 35.9562 -3.0577 65.9636 5.93244L109.441 18.9581C110.948 19.4097 111.793 20.9929 111.344 22.4895L107.274 36.0757C106.825 37.5723 105.25 38.4304 103.742 37.9788L87.2049 33.0242C75.5031 62.3917 69.2002 80.225 71.2778 84.5257C71.5816 85.1719 72.2038 85.6822 74.4434 86.3532C78.063 87.4376 82.9126 82.7948 83.9239 79.4194C84.3754 77.9122 85.948 77.0647 87.4553 77.5163L91.5313 78.7375C93.0386 79.189 93.8861 80.7616 93.4345 82.2688C87.4911 102.107 76.8053 109.859 61.6583 105.321Z" fill="white"></path></svg>