<svg width="169" height="118" viewBox="0 0 169 118" fill="none" xmlns="http://www.w3.org/2000/svg">
<path d="M114.123 6.10352e-05C108.782 6.10352e-05 103.659 2.10405 99.8823 5.84917C96.1054 9.59429 93.9836 14.6738 93.9836 19.9702C93.9836 25.2666 96.1054 30.346 99.8823 34.0912C103.659 37.8363 108.782 39.9403 114.123 39.9403C119.464 39.9403 124.587 37.8363 128.364 34.0912C132.14 30.346 134.262 25.2666 134.262 19.9702C134.262 14.6738 132.14 9.59429 128.364 5.84917C124.587 2.10405 119.464 6.10352e-05 114.123 6.10352e-05ZM59.4466 43.06C58.2709 41.4509 55.882 41.4141 54.6574 42.9864L3.77225 108.321C2.2377 110.291 3.64172 113.164 6.13909 113.164H154.581C157.146 113.164 158.528 110.154 156.856 108.209L114.599 59.0414C113.407 57.6551 111.264 57.6475 110.062 59.0253L75.3482 98.8433C74.7761 99.4995 73.9472 99.8748 73.0766 99.8718L62.0831 99.8341C59.5168 99.8252 58.1456 96.8075 59.8269 94.8686L78.5983 73.2221C79.5145 72.1656 79.5792 70.6161 78.7542 69.4869L59.4466 43.06Z" fill="#13ABB0"/>
<path d="M121.795 3.83613C116.454 3.83613 111.331 5.94012 107.554 9.68524C103.778 13.4304 101.656 18.5098 101.656 23.8062C101.656 29.1026 103.778 34.1821 107.554 37.9272C111.331 41.6723 116.454 43.7763 121.795 43.7763C127.136 43.7763 132.259 41.6723 136.036 37.9272C139.813 34.1821 141.934 29.1026 141.934 23.8062C141.934 18.5098 139.813 13.4304 136.036 9.68524C132.259 5.94012 127.136 3.83613 121.795 3.83613ZM67.1187 46.8961C65.9431 45.2869 63.5541 45.2502 62.3295 46.8225L11.4444 112.157C9.90982 114.127 11.3138 117 13.8112 117H162.253C164.818 117 166.2 113.99 164.528 112.045L122.271 62.8774C121.079 61.4911 118.936 61.4836 117.734 62.8614L83.0203 102.679C82.4482 103.336 81.6193 103.711 80.7487 103.708L69.7552 103.67C67.1889 103.661 65.8177 100.644 67.499 98.7047L86.2704 77.0582C87.1866 76.0016 87.2513 74.4522 86.4263 73.3229L67.1187 46.8961Z" stroke="#3D3D3D" stroke-width="2" stroke-linecap="round" stroke-dasharray="6 6"/>
</svg>
