<svg width="108" height="113" viewBox="0 0 108 113" fill="none" xmlns="http://www.w3.org/2000/svg">
<path d="M19.054 41.499C18.832 42.17 18.102 42.532 17.425 42.307C16.747 42.083 16.377 41.358 16.599 40.687C16.821 40.016 17.55 39.654 18.228 39.878C18.906 40.103 19.276 40.828 19.054 41.499Z" fill="white"/>
<path d="M23.144 42.852C22.923 43.523 22.193 43.885 21.515 43.661C20.838 43.437 20.468 42.711 20.69 42.04C20.912 41.37 21.641 41.008 22.319 41.232C22.997 41.456 23.366 42.182 23.144 42.852Z" fill="white"/>
<path d="M27.235 44.206C27.013 44.877 26.284 45.239 25.606 45.014C24.928 44.79 24.559 44.065 24.781 43.394C25.003 42.723 25.7319 42.361 26.4099 42.586C27.0879 42.81 27.457 43.535 27.235 44.206Z" fill="white"/>
<path d="M31.326 45.56C31.104 46.23 30.375 46.592 29.697 46.368C29.019 46.144 28.65 45.418 28.872 44.747C29.094 44.077 29.8229 43.715 30.5009 43.939C31.1789 44.163 31.548 44.889 31.326 45.56Z" fill="white"/>
<path d="M35.417 46.913C35.195 47.584 34.466 47.946 33.788 47.721C33.11 47.497 32.741 46.772 32.962 46.101C33.184 45.43 33.914 45.068 34.592 45.293C35.269 45.517 35.639 46.242 35.417 46.913Z" fill="white"/>
<path d="M39.508 48.267C39.286 48.937 38.557 49.299 37.879 49.075C37.201 48.851 36.831 48.125 37.053 47.454C37.275 46.784 38.005 46.422 38.682 46.646C39.36 46.87 39.73 47.596 39.508 48.267Z" fill="white"/>
<path d="M43.599 49.62C43.377 50.291 42.647 50.653 41.97 50.428C41.292 50.204 40.922 49.479 41.144 48.808C41.366 48.137 42.095 47.775 42.773 48C43.451 48.224 43.821 48.949 43.599 49.62Z" fill="white"/>
<path d="M47.69 50.974C47.468 51.644 46.738 52.006 46.06 51.782C45.383 51.558 45.013 50.832 45.235 50.162C45.457 49.491 46.186 49.129 46.864 49.353C47.542 49.577 47.911 50.303 47.69 50.974Z" fill="white"/>
<path d="M51.7799 52.327C51.5579 52.998 50.829 53.36 50.151 53.136C49.473 52.911 49.104 52.186 49.326 51.515C49.548 50.844 50.277 50.482 50.955 50.707C51.633 50.931 52.0019 51.656 51.7799 52.327Z" fill="white"/>
<path d="M55.8709 53.681C55.6489 54.351 54.92 54.713 54.242 54.489C53.564 54.265 53.195 53.539 53.417 52.869C53.639 52.198 54.368 51.836 55.046 52.06C55.724 52.284 56.0929 53.01 55.8709 53.681Z" fill="white"/>
<path d="M28.71 2.02701C28.488 2.69701 27.758 3.05903 27.081 2.83503C26.403 2.61103 26.033 1.88503 26.255 1.21403C26.477 0.544025 27.207 0.182027 27.884 0.406027C28.562 0.630027 28.932 1.35601 28.71 2.02701Z" fill="white"/>
<path d="M27.37 6.07501C27.148 6.74501 26.4189 7.10701 25.7409 6.88301C25.0629 6.65901 24.694 5.93301 24.916 5.26301C25.138 4.59201 25.867 4.23001 26.545 4.45401C27.223 4.67801 27.592 5.40401 27.37 6.07501Z" fill="white"/>
<path d="M26.031 10.123C25.809 10.794 25.08 11.155 24.402 10.931C23.724 10.707 23.355 9.98102 23.576 9.31102C23.798 8.64002 24.528 8.27801 25.206 8.50201C25.883 8.72701 26.253 9.45201 26.031 10.123Z" fill="white"/>
<path d="M24.692 14.171C24.47 14.842 23.74 15.204 23.062 14.979C22.385 14.755 22.015 14.03 22.237 13.359C22.459 12.688 23.188 12.326 23.866 12.55C24.544 12.775 24.913 13.5 24.692 14.171Z" fill="white"/>
<path d="M23.352 18.219C23.13 18.89 22.401 19.252 21.723 19.027C21.045 18.803 20.676 18.078 20.898 17.407C21.12 16.736 21.849 16.374 22.527 16.599C23.205 16.823 23.574 17.548 23.352 18.219Z" fill="white"/>
<path d="M22.013 22.267C21.791 22.938 21.061 23.3 20.384 23.076C19.706 22.851 19.336 22.126 19.558 21.455C19.78 20.784 20.51 20.422 21.187 20.647C21.865 20.871 22.235 21.597 22.013 22.267Z" fill="white"/>
<path d="M20.673 26.315C20.451 26.986 19.722 27.348 19.044 27.124C18.367 26.899 17.997 26.174 18.219 25.503C18.441 24.833 19.17 24.471 19.848 24.695C20.526 24.919 20.895 25.645 20.673 26.315Z" fill="white"/>
<path d="M19.334 30.363C19.112 31.034 18.383 31.396 17.705 31.172C17.027 30.948 16.6579 30.222 16.8789 29.551C17.1009 28.881 17.8309 28.519 18.5089 28.743C19.1859 28.967 19.556 29.693 19.334 30.363Z" fill="white"/>
<path d="M17.995 34.412C17.773 35.082 17.043 35.444 16.366 35.22C15.688 34.996 15.318 34.27 15.54 33.6C15.762 32.929 16.491 32.567 17.169 32.791C17.847 33.015 18.217 33.741 17.995 34.412Z" fill="white"/>
<path d="M16.6549 38.46C16.4329 39.13 15.704 39.492 15.026 39.268C14.348 39.044 13.979 38.318 14.201 37.648C14.423 36.977 15.152 36.615 15.83 36.839C16.508 37.064 16.8769 37.789 16.6549 38.46Z" fill="white"/>
<path d="M15.316 42.508C15.094 43.179 14.365 43.541 13.687 43.316C13.009 43.092 12.639 42.366 12.861 41.696C13.083 41.025 13.813 40.663 14.49 40.887C15.168 41.112 15.538 41.837 15.316 42.508Z" fill="white"/>
<path d="M13.976 46.556C13.754 47.227 13.025 47.589 12.347 47.364C11.67 47.14 11.3 46.415 11.522 45.744C11.744 45.073 12.473 44.711 13.151 44.936C13.829 45.16 14.198 45.885 13.976 46.556Z" fill="white"/>
<path d="M12.637 50.604C12.415 51.275 11.686 51.637 11.008 51.413C10.33 51.188 9.96096 50.463 10.183 49.792C10.404 49.121 11.134 48.759 11.812 48.984C12.489 49.208 12.859 49.933 12.637 50.604Z" fill="white"/>
<path d="M11.298 54.652C11.076 55.323 10.346 55.685 9.669 55.461C8.991 55.236 8.62101 54.511 8.84301 53.84C9.06501 53.169 9.79398 52.808 10.472 53.032C11.15 53.256 11.52 53.982 11.298 54.652Z" fill="white"/>
<path d="M9.95798 58.7C9.73598 59.371 9.00695 59.733 8.32895 59.509C7.65095 59.285 7.28194 58.559 7.50394 57.888C7.72594 57.218 8.45497 56.856 9.13297 57.08C9.81097 57.304 10.18 58.03 9.95798 58.7Z" fill="white"/>
<path d="M8.61902 62.749C8.39702 63.419 7.66799 63.781 6.98999 63.557C6.31199 63.333 5.942 62.607 6.164 61.936C6.386 61.266 7.11597 60.904 7.79297 61.128C8.47097 61.352 8.84102 62.078 8.61902 62.749Z" fill="white"/>
<path d="M7.27899 66.797C7.05799 67.467 6.32803 67.829 5.65003 67.605C4.97303 67.381 4.60301 66.655 4.82501 65.985C5.04701 65.314 5.77598 64.952 6.45398 65.176C7.13198 65.4 7.50099 66.126 7.27899 66.797Z" fill="white"/>
<path d="M5.93998 70.845C5.71798 71.516 4.98895 71.877 4.31095 71.653C3.63295 71.429 3.264 70.703 3.486 70.033C3.707 69.362 4.43697 69 5.11497 69.224C5.79197 69.449 6.16198 70.174 5.93998 70.845Z" fill="white"/>
<path d="M4.60101 74.893C4.37901 75.564 3.64898 75.926 2.97198 75.701C2.29398 75.477 1.92399 74.752 2.14599 74.081C2.36799 73.41 3.09702 73.048 3.77502 73.272C4.45302 73.497 4.82301 74.222 4.60101 74.893Z" fill="white"/>
<path d="M3.26096 78.941C3.03896 79.612 2.30999 79.974 1.63199 79.749C0.953992 79.525 0.58498 78.8 0.80698 78.129C1.02898 77.458 1.75795 77.096 2.43595 77.321C3.11395 77.545 3.48296 78.27 3.26096 78.941Z" fill="white"/>
<path d="M71.664 16.239C71.442 16.909 70.712 17.271 70.034 17.047C69.357 16.823 68.987 16.097 69.209 15.426C69.431 14.756 70.16 14.394 70.838 14.618C71.516 14.842 71.885 15.568 71.664 16.239Z" fill="white"/>
<path d="M70.3239 20.287C70.1019 20.957 69.373 21.319 68.695 21.095C68.017 20.871 67.648 20.145 67.87 19.475C68.092 18.804 68.821 18.442 69.499 18.666C70.177 18.89 70.5459 19.616 70.3239 20.287Z" fill="white"/>
<path d="M68.985 24.335C68.763 25.006 68.033 25.367 67.356 25.143C66.678 24.919 66.308 24.193 66.53 23.523C66.752 22.852 67.482 22.49 68.159 22.714C68.837 22.939 69.207 23.664 68.985 24.335Z" fill="white"/>
<path d="M67.645 28.383C67.423 29.054 66.694 29.416 66.016 29.191C65.339 28.967 64.969 28.242 65.191 27.571C65.413 26.9 66.142 26.538 66.82 26.762C67.498 26.987 67.867 27.712 67.645 28.383Z" fill="white"/>
<path d="M66.306 32.431C66.084 33.102 65.355 33.464 64.677 33.239C63.999 33.015 63.63 32.29 63.851 31.619C64.073 30.948 64.803 30.586 65.481 30.811C66.158 31.035 66.528 31.76 66.306 32.431Z" fill="white"/>
<path d="M64.967 36.479C64.745 37.15 64.015 37.512 63.338 37.288C62.66 37.063 62.29 36.338 62.512 35.667C62.734 34.996 63.463 34.634 64.141 34.859C64.819 35.083 65.189 35.808 64.967 36.479Z" fill="white"/>
<path d="M63.627 40.527C63.405 41.198 62.676 41.56 61.998 41.336C61.32 41.111 60.9509 40.386 61.1729 39.715C61.3949 39.045 62.124 38.683 62.802 38.907C63.48 39.131 63.849 39.857 63.627 40.527Z" fill="white"/>
<path d="M62.288 44.575C62.066 45.246 61.337 45.608 60.659 45.384C59.981 45.16 59.611 44.434 59.833 43.763C60.055 43.093 60.785 42.731 61.462 42.955C62.14 43.179 62.51 43.905 62.288 44.575Z" fill="white"/>
<path d="M60.948 48.624C60.726 49.294 59.997 49.656 59.319 49.432C58.642 49.208 58.272 48.482 58.494 47.811C58.716 47.141 59.445 46.779 60.123 47.003C60.801 47.227 61.17 47.953 60.948 48.624Z" fill="white"/>
<path d="M59.609 52.672C59.387 53.342 58.658 53.704 57.98 53.48C57.302 53.256 56.9329 52.53 57.1549 51.86C57.3759 51.189 58.106 50.827 58.784 51.051C59.461 51.275 59.831 52.001 59.609 52.672Z" fill="white"/>
<path d="M58.27 56.72C58.048 57.391 57.318 57.753 56.641 57.528C55.963 57.304 55.593 56.578 55.815 55.908C56.037 55.237 56.766 54.875 57.444 55.099C58.122 55.324 58.492 56.049 58.27 56.72Z" fill="white"/>
<path d="M56.93 60.768C56.708 61.439 55.979 61.801 55.301 61.576C54.623 61.352 54.254 60.627 54.476 59.956C54.698 59.285 55.427 58.923 56.105 59.148C56.783 59.372 57.152 60.097 56.93 60.768Z" fill="white"/>
<path d="M55.591 64.816C55.369 65.487 54.64 65.849 53.962 65.625C53.284 65.4 52.914 64.675 53.136 64.004C53.358 63.333 54.088 62.971 54.765 63.196C55.443 63.42 55.813 64.145 55.591 64.816Z" fill="white"/>
<path d="M54.251 68.864C54.03 69.535 53.3 69.897 52.622 69.673C51.945 69.448 51.575 68.723 51.797 68.052C52.019 67.381 52.748 67.02 53.426 67.244C54.104 67.468 54.473 68.194 54.251 68.864Z" fill="white"/>
<path d="M52.912 72.912C52.69 73.583 51.961 73.945 51.283 73.721C50.605 73.497 50.236 72.771 50.458 72.1C50.679 71.43 51.4089 71.068 52.0869 71.292C52.7639 71.516 53.134 72.242 52.912 72.912Z" fill="white"/>
<path d="M51.573 76.961C51.351 77.631 50.621 77.993 49.944 77.769C49.266 77.545 48.896 76.819 49.118 76.148C49.34 75.478 50.069 75.116 50.747 75.34C51.425 75.564 51.795 76.29 51.573 76.961Z" fill="white"/>
<path d="M50.2329 81.009C50.0109 81.679 49.282 82.041 48.604 81.817C47.926 81.593 47.557 80.867 47.779 80.197C48.001 79.526 48.73 79.164 49.408 79.388C50.086 79.612 50.4549 80.338 50.2329 81.009Z" fill="white"/>
<path d="M48.894 85.057C48.672 85.728 47.943 86.089 47.265 85.865C46.587 85.641 46.217 84.915 46.439 84.245C46.661 83.574 47.391 83.212 48.068 83.436C48.746 83.661 49.116 84.386 48.894 85.057Z" fill="white"/>
<path d="M47.554 89.105C47.333 89.776 46.603 90.138 45.925 89.913C45.248 89.689 44.878 88.964 45.1 88.293C45.322 87.622 46.051 87.26 46.729 87.484C47.407 87.709 47.776 88.434 47.554 89.105Z" fill="white"/>
<path d="M46.2149 93.153C45.9929 93.824 45.264 94.186 44.586 93.961C43.908 93.737 43.539 93.012 43.761 92.341C43.983 91.67 44.712 91.308 45.39 91.533C46.067 91.757 46.4369 92.482 46.2149 93.153Z" fill="white"/>
<path d="M73.138 62.538C72.916 63.208 72.187 63.57 71.509 63.346C70.831 63.122 70.461 62.396 70.683 61.725C70.905 61.055 71.635 60.693 72.312 60.917C72.99 61.141 73.36 61.867 73.138 62.538Z" fill="white"/>
<path d="M77.898 61.867C77.676 62.538 76.947 62.9 76.269 62.675C75.592 62.451 75.222 61.726 75.444 61.055C75.666 60.384 76.395 60.022 77.073 60.246C77.751 60.471 78.12 61.196 77.898 61.867Z" fill="white"/>
<path d="M82.458 61.804C82.236 62.474 81.507 62.836 80.829 62.612C80.151 62.388 79.7819 61.662 80.0039 60.992C80.2249 60.321 80.955 59.959 81.633 60.183C82.31 60.407 82.68 61.133 82.458 61.804Z" fill="white"/>
<path d="M86.683 62.752C86.461 63.423 85.732 63.785 85.054 63.561C84.376 63.336 84.006 62.611 84.228 61.94C84.45 61.27 85.18 60.908 85.857 61.132C86.535 61.356 86.905 62.082 86.683 62.752Z" fill="white"/>
<path d="M90.707 64.308C90.485 64.979 89.755 65.341 89.078 65.117C88.4 64.892 88.03 64.167 88.252 63.496C88.474 62.825 89.203 62.464 89.881 62.688C90.559 62.912 90.929 63.638 90.707 64.308Z" fill="white"/>
<path d="M94.53 66.471C94.308 67.142 93.578 67.504 92.901 67.28C92.223 67.056 91.853 66.33 92.075 65.659C92.297 64.989 93.026 64.627 93.704 64.851C94.382 65.075 94.752 65.801 94.53 66.471Z" fill="white"/>
<path d="M98.152 69.242C97.93 69.913 97.2 70.274 96.523 70.05C95.845 69.826 95.475 69.1 95.697 68.43C95.919 67.759 96.648 67.397 97.326 67.621C98.004 67.846 98.374 68.571 98.152 69.242Z" fill="white"/>
<path d="M101.573 72.619C101.351 73.29 100.622 73.652 99.944 73.428C99.266 73.204 98.896 72.478 99.118 71.807C99.34 71.137 100.07 70.775 100.747 70.999C101.425 71.223 101.795 71.949 101.573 72.619Z" fill="white"/>
<path d="M103.77 76.266C103.548 76.937 102.819 77.298 102.141 77.074C101.463 76.85 101.094 76.124 101.316 75.454C101.538 74.783 102.267 74.421 102.945 74.645C103.623 74.87 103.992 75.595 103.77 76.266Z" fill="white"/>
<path d="M105.562 80.452C105.341 81.123 104.611 81.484 103.933 81.26C103.256 81.036 102.886 80.31 103.108 79.64C103.33 78.969 104.059 78.607 104.737 78.831C105.415 79.056 105.784 79.781 105.562 80.452Z" fill="white"/>
<path d="M82.913 19.961C82.691 20.631 81.962 20.993 81.284 20.769C80.606 20.545 80.237 19.819 80.459 19.149C80.681 18.478 81.41 18.116 82.088 18.34C82.766 18.564 83.135 19.29 82.913 19.961Z" fill="white"/>
<path d="M81.574 24.009C81.352 24.68 80.623 25.042 79.945 24.817C79.267 24.593 78.898 23.867 79.119 23.197C79.341 22.526 80.071 22.164 80.749 22.388C81.426 22.613 81.796 23.338 81.574 24.009Z" fill="white"/>
<path d="M80.235 28.057C80.013 28.728 79.283 29.09 78.606 28.865C77.928 28.641 77.558 27.916 77.78 27.245C78.002 26.574 78.731 26.212 79.409 26.436C80.087 26.661 80.456 27.386 80.235 28.057Z" fill="white"/>
<path d="M78.895 32.105C78.673 32.776 77.944 33.138 77.266 32.914C76.588 32.689 76.219 31.964 76.441 31.293C76.663 30.622 77.392 30.26 78.07 30.485C78.748 30.709 79.117 31.434 78.895 32.105Z" fill="white"/>
<path d="M77.556 36.153C77.334 36.824 76.605 37.186 75.927 36.962C75.249 36.737 74.879 36.012 75.101 35.341C75.323 34.67 76.053 34.309 76.73 34.533C77.408 34.757 77.778 35.483 77.556 36.153Z" fill="white"/>
<path d="M76.216 40.201C75.994 40.872 75.265 41.234 74.587 41.01C73.91 40.786 73.54 40.06 73.762 39.389C73.984 38.719 74.713 38.357 75.391 38.581C76.069 38.805 76.438 39.531 76.216 40.201Z" fill="white"/>
<path d="M74.877 44.25C74.655 44.92 73.926 45.282 73.248 45.058C72.57 44.834 72.2009 44.108 72.4229 43.437C72.6439 42.767 73.374 42.405 74.052 42.629C74.729 42.853 75.099 43.579 74.877 44.25Z" fill="white"/>
<path d="M73.538 48.298C73.316 48.968 72.586 49.33 71.909 49.106C71.231 48.882 70.861 48.156 71.083 47.486C71.305 46.815 72.034 46.453 72.712 46.677C73.39 46.901 73.76 47.627 73.538 48.298Z" fill="white"/>
<path d="M72.198 52.346C71.976 53.017 71.2469 53.378 70.5689 53.154C69.8909 52.93 69.522 52.204 69.744 51.534C69.966 50.863 70.695 50.501 71.373 50.725C72.051 50.95 72.42 51.675 72.198 52.346Z" fill="white"/>
<path d="M70.859 56.394C70.637 57.065 69.908 57.427 69.23 57.202C68.552 56.978 68.182 56.253 68.404 55.582C68.626 54.911 69.356 54.549 70.033 54.773C70.711 54.998 71.081 55.723 70.859 56.394Z" fill="white"/>
<path d="M69.519 60.442C69.298 61.113 68.568 61.475 67.89 61.25C67.213 61.026 66.843 60.301 67.065 59.63C67.287 58.959 68.016 58.597 68.694 58.822C69.372 59.046 69.741 59.771 69.519 60.442Z" fill="white"/>
<path d="M68.18 64.49C67.958 65.161 67.229 65.523 66.551 65.299C65.873 65.074 65.504 64.349 65.726 63.678C65.947 63.007 66.677 62.645 67.355 62.87C68.032 63.094 68.402 63.819 68.18 64.49Z" fill="white"/>
<path d="M66.841 68.538C66.619 69.209 65.889 69.571 65.212 69.347C64.534 69.122 64.164 68.397 64.386 67.726C64.608 67.055 65.337 66.694 66.015 66.918C66.693 67.142 67.063 67.868 66.841 68.538Z" fill="white"/>
<path d="M65.5009 72.586C65.2789 73.257 64.55 73.619 63.872 73.395C63.194 73.171 62.825 72.445 63.047 71.774C63.269 71.104 63.998 70.742 64.676 70.966C65.354 71.19 65.7229 71.916 65.5009 72.586Z" fill="white"/>
<path d="M64.162 76.635C63.94 77.305 63.211 77.667 62.533 77.443C61.855 77.219 61.485 76.493 61.707 75.822C61.929 75.152 62.659 74.79 63.336 75.014C64.014 75.238 64.384 75.964 64.162 76.635Z" fill="white"/>
<path d="M62.822 80.683C62.601 81.353 61.871 81.715 61.193 81.491C60.516 81.267 60.146 80.541 60.368 79.871C60.59 79.2 61.319 78.838 61.997 79.062C62.675 79.286 63.044 80.012 62.822 80.683Z" fill="white"/>
<path d="M61.4829 84.731C61.2609 85.402 60.532 85.763 59.854 85.539C59.176 85.315 58.807 84.589 59.029 83.919C59.25 83.248 59.98 82.886 60.658 83.11C61.335 83.335 61.7049 84.06 61.4829 84.731Z" fill="white"/>
<path d="M60.144 88.779C59.922 89.45 59.192 89.812 58.515 89.587C57.837 89.363 57.467 88.638 57.689 87.967C57.911 87.296 58.64 86.934 59.318 87.158C59.996 87.383 60.366 88.108 60.144 88.779Z" fill="white"/>
<path d="M58.804 92.827C58.582 93.498 57.853 93.86 57.175 93.636C56.497 93.411 56.1279 92.686 56.3499 92.015C56.5719 91.344 57.301 90.982 57.979 91.207C58.657 91.431 59.026 92.156 58.804 92.827Z" fill="white"/>
<path d="M57.465 96.875C57.243 97.546 56.514 97.908 55.836 97.684C55.158 97.459 54.788 96.734 55.01 96.063C55.232 95.392 55.962 95.03 56.639 95.255C57.317 95.479 57.687 96.205 57.465 96.875Z" fill="white"/>
<path d="M106.741 84.435C106.519 85.105 105.79 85.467 105.112 85.243C104.434 85.019 104.064 84.293 104.286 83.623C104.508 82.952 105.238 82.59 105.915 82.814C106.593 83.039 106.963 83.764 106.741 84.435Z" fill="white"/>
<path d="M107.376 88.687C107.154 89.358 106.425 89.72 105.747 89.496C105.069 89.271 104.7 88.546 104.922 87.875C105.144 87.204 105.873 86.842 106.551 87.067C107.229 87.291 107.598 88.016 107.376 88.687Z" fill="white"/>
<path d="M107.398 92.737C107.176 93.407 106.447 93.769 105.769 93.545C105.091 93.321 104.722 92.595 104.944 91.924C105.166 91.254 105.895 90.892 106.573 91.116C107.25 91.34 107.62 92.066 107.398 92.737Z" fill="white"/>
<path d="M106.33 96.65C106.108 97.321 105.379 97.683 104.701 97.458C104.023 97.234 103.654 96.509 103.876 95.838C104.098 95.167 104.827 94.805 105.505 95.029C106.183 95.254 106.552 95.979 106.33 96.65Z" fill="white"/>
<path d="M105.058 100.496C104.836 101.166 104.107 101.528 103.429 101.304C102.751 101.08 102.381 100.354 102.603 99.684C102.825 99.013 103.555 98.651 104.232 98.875C104.91 99.099 105.28 99.825 105.058 100.496Z" fill="white"/>
<path d="M103.785 104.341C103.563 105.012 102.834 105.374 102.156 105.15C101.479 104.926 101.109 104.2 101.331 103.529C101.553 102.859 102.282 102.497 102.96 102.721C103.638 102.945 104.007 103.671 103.785 104.341Z" fill="white"/>
<path d="M102.58 107.985C102.358 108.655 101.629 109.017 100.951 108.793C100.273 108.569 99.903 107.843 100.125 107.173C100.347 106.502 101.077 106.14 101.754 106.364C102.432 106.588 102.802 107.314 102.58 107.985Z" fill="white"/>
<path d="M101.307 111.83C101.086 112.501 100.356 112.863 99.678 112.639C99.001 112.415 98.631 111.689 98.853 111.018C99.075 110.348 99.804 109.986 100.482 110.21C101.16 110.434 101.529 111.16 101.307 111.83Z" fill="white"/>
</svg>
