<svg width="116" height="113" viewBox="0 0 116 113" fill="none" xmlns="http://www.w3.org/2000/svg">
<path d="M74.9851 3.89301C69.1645 2.71112 63.4351 6.50648 62.2532 12.3272L52.5831 59.9509L71.6811 47.2997L98.1387 52.6719C103.959 53.8538 109.689 50.0584 110.871 44.2378L115.168 23.0717C116.35 17.251 112.555 11.5216 106.734 10.3397L74.9851 3.89301ZM53.5441 0.949097C35.8425 1.83965 20.135 13.5888 14.6192 30.8492L1.41268 44.5352C-0.713743 46.7316 -0.349075 50.31 2.17251 52.0286L9.07071 56.7437L5.87045 72.5046C4.68318 78.3517 8.45746 84.0493 14.3046 85.2365L24.8876 87.3854L21.6643 103.26L69.288 112.93L72.2532 98.3267C76.5994 76.9225 88.0589 77.8761 94.8013 63.0136L83.8255 60.785C82.0727 63.7459 79.9551 65.8225 77.45 68.2285C71.8601 73.5894 64.9011 80.2662 61.6702 96.1778L60.8539 100.198L34.3962 94.8259L37.6196 78.9513L16.4535 74.6535L21.0808 51.8648L15.1651 47.8227L14.003 47.0271L22.382 38.3548L24.1267 36.5461L24.8928 34.1512C28.7851 21.9828 39.2591 13.6944 51.2924 12.0386L53.5441 0.949097ZM72.8362 14.4761L104.585 20.9228L100.288 42.0889L68.5384 35.6422L72.8362 14.4761Z" fill="#13ABB0"/>
</svg>
