<svg width="52" height="52" viewBox="0 0 52 52" fill="none" xmlns="http://www.w3.org/2000/svg">
<path d="M3.36465 16.6516C-3.37939 21.6593 2.88033 30.0894 2.88033 30.0894L6.25235 27.5855C6.25235 27.5855 2.49652 22.5275 5.86854 20.0236C9.40973 17.3941 15.7688 21.0493 22.6668 25.5632L26.7175 51.6237C27.7866 50.83 28.6888 49.8334 29.3727 48.691C30.0566 47.5485 30.5087 46.2826 30.7034 44.9654L30.75 44.6498C30.8882 43.7172 30.895 42.7698 30.77 41.8353L29.1835 29.833C36.7074 34.7072 44.0931 38.7215 48.6357 35.3484C55.3797 30.3407 47.8681 20.2246 47.8681 20.2246L44.496 22.7285C44.496 22.7285 49.5038 29.4725 46.1318 31.9764C42.9481 34.3405 39.8865 31.1018 28.4465 24.2652L25.2828 0.376269L23.5046 1.69668C22.4568 2.47593 21.6047 3.48821 21.0155 4.65351C20.2211 6.22425 19.9387 8.00434 20.2077 9.74384L21.8837 20.5252C11.2795 14.8753 6.33886 14.4431 3.36465 16.6516Z" fill="#13ABB0"/>
</svg>
