<svg width="80" height="79" viewBox="0 0 80 79" fill="none" xmlns="http://www.w3.org/2000/svg">
<path d="M5.72913 25.0689C-4.59473 32.7348 4.98773 45.6397 4.98773 45.6397L10.1497 41.8067C10.1497 41.8067 4.40019 34.0638 9.56211 30.2308C14.983 26.2055 24.7175 31.8011 35.2771 38.7109L41.478 78.6047C43.1145 77.3896 44.4956 75.864 45.5425 74.1152C46.5894 72.3663 47.2816 70.4284 47.5795 68.412L47.6509 67.9289C47.8626 66.5012 47.8729 65.051 47.6816 63.6205L45.253 45.2472C56.7706 52.7087 68.0767 58.8538 75.0305 53.6903C85.3544 46.0243 73.8554 30.5385 73.8554 30.5385L68.6935 34.3715C68.6935 34.3715 76.3595 44.6954 71.1976 48.5283C66.3239 52.1473 61.6372 47.1894 44.1247 36.724L39.2817 0.154481L36.5596 2.17578C34.9556 3.36866 33.6512 4.91828 32.7493 6.70213C31.5332 9.10664 31.1008 11.8316 31.5127 14.4945L34.0784 30.9986C17.8453 22.3498 10.2821 21.6881 5.72913 25.0689Z" fill="#EDA38F"/>
</svg>
