<svg width="95" height="131" viewBox="0 0 95 131" fill="none" xmlns="http://www.w3.org/2000/svg">
<path d="M63.698 8.79284C62.9399 8.61831 62.1482 8.6535 61.4061 8.89471C60.664 9.13592 59.9987 9.57426 59.4802 10.1637L13.1563 57.5544L13.1544 57.5628C12.511 58.1626 12.0607 58.9438 11.8625 59.8041C11.6004 60.9371 11.7937 62.1265 12.4001 63.1109C13.0064 64.0952 13.9761 64.7937 15.0957 65.0529L38.3154 70.4263L22.3767 110.846C22.2564 111.113 22.1628 111.392 22.0974 111.678C21.8352 112.811 22.0285 114 22.6349 114.985C23.2412 115.969 24.2109 116.668 25.3306 116.927C26.098 117.103 26.8995 117.064 27.649 116.815C28.3986 116.566 29.0677 116.115 29.5847 115.512L29.5929 115.513L75.7667 68.2462L75.7428 68.1615C76.4049 67.5754 76.9508 66.8458 77.1661 65.9154C77.7117 63.5574 76.2633 61.206 73.9328 60.6667L50.7131 55.2933L66.45 15.2575C66.6696 14.8785 66.8318 14.4686 66.9312 14.0415C67.1934 12.9086 67.0001 11.7192 66.3937 10.7348C65.7874 9.75051 64.8177 9.05195 63.698 8.79284Z" fill="#13ABB0"/>
<path d="M68.698 13.7928C67.9399 13.6183 67.1482 13.6535 66.4061 13.8947C65.664 14.1359 64.9987 14.5743 64.4802 15.1637L18.1563 62.5544L18.1544 62.5628C17.511 63.1626 17.0607 63.9438 16.8625 64.8041C16.6004 65.9371 16.7937 67.1265 17.4 68.1109C18.0064 69.0952 18.9761 69.7937 20.0957 70.0529L43.3154 75.4263L27.3767 115.846C27.2564 116.113 27.1628 116.392 27.0974 116.678C26.8352 117.811 27.0285 119 27.6349 119.985C28.2412 120.969 29.2109 121.668 30.3306 121.927C31.098 122.103 31.8995 122.064 32.649 121.815C33.3986 121.566 34.0677 121.115 34.5847 120.512L34.5929 120.513L80.7667 73.2462L80.7428 73.1615C81.4049 72.5754 81.9508 71.8458 82.1661 70.9154C82.7117 68.5574 81.2633 66.206 78.9328 65.6667L55.7131 60.2933L71.45 20.2575C71.6696 19.8785 71.8318 19.4686 71.9312 19.0415C72.1934 17.9086 72.0001 16.7192 71.3937 15.7348C70.7874 14.7505 69.8177 14.052 68.698 13.7928V13.7928Z" stroke="#3D3D3D" stroke-width="2" stroke-dasharray="6 6"/>
</svg>
