<svg width="168" height="74" viewBox="0 0 168 74" fill="none" xmlns="http://www.w3.org/2000/svg">
<path d="M0.117769 11.282C0.0588835 10.2826 0.0588855 9.2833 0 8.28396C0 7.75486 0.0588889 7.22581 0.0588889 6.69671C0.117774 5.87373 0.235545 5.1095 0.353316 4.28653C0.412201 4.05138 0.471088 3.81624 0.529976 3.5811C0.647744 3.28717 0.883284 3.05203 1.2366 2.93446C2.11988 2.7581 3.00316 2.64052 3.88644 2.87567C4.23975 2.93445 4.53418 3.05202 4.76972 3.34595C4.88749 3.46352 5.00526 3.63988 5.00526 3.81624C5.00526 4.22773 5.06416 4.58044 5.06416 4.93316C5.12301 6.16765 5.18191 7.40217 5.18191 8.63664C5.24081 9.81235 5.24081 10.9881 5.24081 12.1638C5.24081 13.2219 5.29971 14.2801 5.29971 15.2794C5.29971 15.8085 5.29971 16.3963 5.35856 16.9254C5.35856 18.9829 5.41745 21.0404 5.41745 23.0391C5.41745 23.4506 5.47635 23.8621 5.5941 24.2736C5.653 24.4499 5.77075 24.5675 5.88855 24.5675C6.06519 24.6263 6.30074 24.6263 6.53628 24.6263C7.71396 24.6851 8.95059 24.7439 10.1283 24.8614C10.4816 24.8614 10.8349 24.9202 11.1882 24.9202C11.8948 24.979 12.3659 25.3905 12.6015 25.9784C12.7192 26.1548 12.7781 26.3899 12.7781 26.625C12.837 27.448 12.837 28.271 12.5426 29.094C12.4248 29.3879 12.307 29.6231 12.0715 29.7995C11.9537 29.917 11.7771 29.9758 11.6004 29.9758C10.2461 30.1521 8.83279 30.0934 7.47842 30.0934C6.71293 30.0346 5.94744 29.9758 5.24081 29.9758C4.8286 29.9758 4.4164 29.9758 4.0042 30.0346C3.35647 30.0346 2.70873 30.0934 2.06099 30.0934C1.70767 30.0934 1.41326 30.0346 1.11883 29.917C0.765516 29.7995 0.588855 29.5055 0.471085 29.2116C0.294429 28.8001 0.235547 28.3886 0.235547 27.9771C0.235547 24.8027 0.235547 21.6282 0.235547 18.395C0.235547 18.1011 0.235547 17.866 0.235547 17.572C0.117776 15.4558 0.117769 13.3983 0.117769 11.282Z" fill="#13ABB0"/>
<path d="M33.2701 24.8614C33.9767 24.8026 34.4478 25.1553 34.7423 25.7432C35.1545 26.6838 35.2134 27.6831 35.0367 28.6825C34.9778 28.9764 34.86 29.3291 34.7423 29.623C34.5656 29.917 34.3301 30.0933 33.9767 30.1521C33.4468 30.2109 32.9168 30.2109 32.3869 30.2109C32.0924 30.2109 31.7391 30.1521 31.4447 30.1521C30.6203 30.2109 29.6781 30.2109 28.8537 30.2109C28.206 30.2697 27.676 30.1521 27.0872 30.2109C25.6739 30.2697 24.3196 30.2697 22.9652 30.3285C22.1408 30.3285 21.3164 30.2697 20.5509 30.2697C20.492 30.2697 20.4331 30.2697 20.3742 30.2697C20.0798 30.0345 19.7265 29.8582 19.491 29.623C19.4321 29.5642 19.3732 29.4467 19.3143 29.3291C19.0787 28.6825 18.961 28.0358 19.0199 27.2716C19.0787 26.0959 19.1376 24.979 19.1965 23.862C19.2554 22.3336 19.3143 20.864 19.3732 19.3356C19.4321 18.7477 19.3732 18.1599 19.4321 17.572C19.5498 16.3375 19.4321 15.103 19.3732 13.8685C19.3732 13.7509 19.3732 13.6334 19.3732 13.5746C19.3143 11.5171 19.2554 9.51838 19.1965 7.46088C19.1965 6.87303 19.2554 6.28517 19.3732 5.69731C19.3732 5.40339 19.4321 5.16821 19.5498 4.93308C19.7265 4.34522 19.9032 3.75736 20.1976 3.22829C20.3742 2.93437 20.6098 2.75801 20.9042 2.64044C21.3164 2.52287 21.7286 2.46408 22.1997 2.46408C22.8474 2.52287 23.4952 2.52287 24.2018 2.52287C25.0262 2.58166 25.9095 2.58166 26.7339 2.69923C27.9116 2.75801 29.1482 2.75801 30.3258 2.69923C31.0325 2.64044 31.7391 2.64044 32.4458 2.64044C32.7402 2.64044 33.0935 2.75801 33.3879 2.8168C33.5645 2.87559 33.8001 2.93437 33.9179 2.99316C34.3301 3.16951 34.5656 3.58101 34.6834 3.99251C34.9189 4.99185 34.9778 5.99119 34.7423 6.99059C34.6834 7.28451 34.5656 7.46088 34.389 7.6372C34.0356 7.93113 33.6234 8.22505 33.2112 8.40142C32.858 8.51898 32.4458 8.46023 32.0924 8.51898C31.9747 8.51898 31.9158 8.51898 31.798 8.51898C31.0325 8.69535 30.267 8.63659 29.5015 8.63659C28.9715 8.63659 28.5004 8.63654 27.9704 8.75415C27.7938 8.81291 27.6171 8.81291 27.4405 8.81291C27.1461 8.87172 26.7928 8.93052 26.4983 8.98928C26.0861 9.04808 25.8506 9.34201 25.8506 9.7535C25.7917 10.2826 25.7917 10.7528 25.7917 11.2819C25.7917 11.3995 25.7917 11.5171 25.7917 11.6346C25.8506 12.0461 26.0272 12.2813 26.4394 12.3989C26.5572 12.4577 26.675 12.4577 26.8517 12.4577C27.2639 12.4577 27.7349 12.3989 28.1471 12.3989C28.3238 12.3989 28.4415 12.3989 28.6182 12.3989C29.4426 12.4577 30.267 12.3989 31.0325 12.4577C31.798 12.4577 32.3869 12.9867 32.5635 13.6921C32.6224 13.9861 32.6224 14.2212 32.7402 14.5152C32.7991 14.8091 32.7991 15.103 32.7991 15.3969C32.7991 16.0435 32.5635 16.455 32.0924 16.8078C31.7391 17.1017 31.3269 17.2193 30.9147 17.2193C30.5614 17.2193 30.2081 17.2781 29.8548 17.2781C29.7959 17.3368 29.6781 17.3368 29.6193 17.3368C28.9715 17.3956 28.3238 17.4544 27.676 17.5132C27.2639 17.572 26.8517 17.6308 26.4394 17.6896C26.0861 17.7484 25.9684 17.9247 25.9095 18.2186C25.7328 18.8653 25.7917 19.5119 25.7328 20.2173C25.615 21.1579 25.615 22.0985 25.6739 23.0978C25.6739 23.3917 25.7328 23.7445 25.7917 24.0384C25.8506 24.5675 26.2039 24.8026 26.675 24.8614C27.0872 24.9202 27.4405 24.9202 27.8527 24.9202C28.3826 24.9202 28.7948 24.9202 29.3248 24.9202V24.979C30.6203 24.979 31.9747 24.9202 33.2701 24.8614Z" fill="#13ABB0"/>
<path d="M51.3484 2.64047C51.7017 2.58168 52.055 2.69925 52.3495 2.9344C52.7028 3.16954 53.0561 3.46346 53.2917 3.75739C53.3505 3.87496 53.4681 3.93375 53.4681 4.05132C53.7038 4.63917 53.8802 5.22703 53.9983 5.87369C54.0571 6.34399 54.2335 6.81423 54.3516 7.28453C54.528 7.93119 54.6461 8.51904 54.7637 9.16566C54.8225 9.22446 54.8225 9.28322 54.8225 9.34202C54.7637 9.87107 54.9994 10.4002 55.117 10.8705C55.3527 11.6347 55.5291 12.3989 55.7648 13.2219C55.8236 13.457 55.8824 13.6334 55.9412 13.8685C56.1181 14.5152 56.2357 15.103 56.4126 15.7496C56.7071 16.8666 57.0604 17.9835 57.3549 19.1005C57.767 20.6289 58.1203 22.1573 58.4736 23.6857C58.7093 24.5675 59.0033 25.4493 59.239 26.2723C59.4158 26.8014 59.5334 27.3304 59.651 27.8595C59.7098 28.271 59.5922 28.6237 59.4746 29.0352C59.2389 29.6819 58.7093 29.8582 58.1791 30.0346C57.1192 30.3285 55.9412 30.3873 54.8813 30.0933C54.8225 30.0346 54.7637 30.0346 54.7637 30.0346C54.4692 29.7407 54.1159 29.5055 53.8802 29.2116C53.5857 28.9176 53.4093 28.4474 53.3505 28.0359C53.2917 27.6244 53.0561 27.2717 52.644 27.1541C52.5259 27.1541 52.4083 27.0953 52.2907 27.0953C51.2308 27.0365 50.1116 27.0365 49.0518 27.0365C48.8751 27.0365 48.6396 26.9777 48.404 26.9777C48.0507 26.9189 47.7563 27.0365 47.5796 27.3304C47.403 27.6244 47.2264 27.9183 47.1675 28.1534C46.9908 28.8001 46.6375 29.2116 46.1075 29.5643C45.9309 29.6819 45.8131 29.7994 45.6364 29.8582C45.2831 30.0345 44.9298 30.1522 44.5176 30.1522C43.6932 30.2109 42.9277 30.0345 42.1622 29.8582C41.8677 29.7994 41.5144 29.6231 41.22 29.4467C40.9256 29.3291 40.8667 29.0352 40.8667 28.8001C40.8078 28.271 40.8078 27.8007 41.0434 27.2716C41.22 26.625 41.4555 25.9784 41.6322 25.3317C41.8089 24.6851 41.9266 24.0384 42.1033 23.333C42.3388 22.3925 42.5155 21.3931 42.751 20.4525C43.0455 19.2768 43.3988 18.1011 43.6932 16.9254C43.8699 16.1612 44.0465 15.5145 44.2232 14.8091C44.3998 14.0449 44.6354 13.3983 44.812 12.6928C44.9887 12.1637 45.1065 11.7523 45.2242 11.2232C45.5187 10.1651 45.872 9.16566 46.1664 8.10755C46.3431 7.5197 46.402 6.93179 46.5786 6.28518C46.8142 5.52096 46.9908 4.75675 47.3441 4.05132C47.6385 3.40468 48.2274 2.99318 48.9929 2.81683C49.0518 2.81683 49.1107 2.81683 49.1696 2.81683C49.6995 2.58168 50.1704 2.64047 50.7006 2.64047C50.8182 2.64047 51.0539 2.64047 51.3484 2.64047ZM50.9363 20.041C51.5248 20.041 51.8193 19.6883 51.7017 19.1005C51.6429 18.8653 51.5841 18.689 51.5248 18.4538C51.3484 17.9835 51.2308 17.5133 51.1127 17.043C50.9951 16.4551 50.9363 15.926 50.8182 15.3382C50.7594 15.2794 50.7594 15.1618 50.7594 15.103C50.7006 14.9267 50.583 14.9267 50.4649 15.103C50.4061 15.1618 50.4061 15.3381 50.3473 15.4557C50.1704 16.2787 49.8171 17.1605 49.6995 18.0423C49.6995 18.2187 49.6407 18.3362 49.5819 18.4538C49.5231 18.689 49.4051 18.9829 49.2873 19.218C49.1696 19.6295 49.2285 19.8059 49.6407 19.8647C50.0528 19.9234 50.4649 19.9822 50.8182 20.041C50.8775 20.041 50.877 20.041 50.9363 20.041Z" fill="#13ABB0"/>
<path d="M71.193 28.6237C71.193 29.2703 70.8985 29.7994 70.4276 30.2696C70.0743 30.5636 69.6617 30.7988 69.1321 30.7988C68.72 30.8575 68.3667 30.8575 67.9541 30.7988C67.2475 30.7399 66.659 30.5048 66.1876 29.9757C65.8931 29.6818 65.7167 29.2703 65.7167 28.8588C65.6579 27.9182 65.6579 26.9189 65.6579 25.9783C65.5991 24.4499 65.5991 22.8627 65.5398 21.2755C65.481 19.2768 65.4222 17.3369 65.3634 15.3969C65.3046 13.9273 65.2453 12.4577 65.1865 10.988C65.1865 9.98867 65.1865 8.98932 65.2453 7.98993C65.3046 7.10819 65.4222 6.22636 65.5398 5.40338C65.5398 5.34458 65.5398 5.34458 65.5398 5.28582C65.7755 4.69796 66.0112 4.16888 66.4821 3.75738C66.7766 3.46346 67.1299 3.3459 67.4244 3.40468C67.9541 3.46347 68.4843 3.34589 68.9552 3.34589C69.2497 3.2871 69.4853 3.34589 69.721 3.34589C70.7809 3.34589 71.782 3.40468 72.7831 3.40468C73.843 3.40468 74.9617 3.34589 76.0215 3.34589C76.4336 3.34589 76.8462 3.40468 77.2583 3.52225C78.6715 3.99253 79.6726 4.99189 80.438 6.22641C80.6148 6.52034 80.7324 6.81426 80.85 7.10819C81.4978 8.75415 81.8511 10.4589 81.8511 12.2813C81.8511 12.9867 81.8511 13.6334 81.8511 14.3388C81.7923 15.4557 81.4978 16.5726 81.1445 17.572C80.9681 18.2774 80.5556 18.8653 80.2023 19.4531C80.1435 19.5707 80.0259 19.6883 79.9083 19.8059C79.3193 20.3349 79.2012 21.0403 79.6138 21.687C79.7902 22.0985 79.9671 22.4512 80.1435 22.8039C80.3792 23.333 80.6148 23.862 80.85 24.3911C80.85 24.4499 80.9088 24.5675 80.9088 24.5675C81.1445 25.2729 81.439 25.9195 81.7335 26.5662C81.9099 26.8601 81.9099 27.2128 82.028 27.5067C82.0868 27.9182 82.1456 28.271 82.2044 28.6824C82.2632 29.2115 81.9099 29.623 81.5566 29.9757C81.2626 30.2697 80.9088 30.2696 80.5556 30.2696C80.3792 30.2696 80.1435 30.3285 79.9083 30.3285C79.5545 30.3285 79.1424 30.3873 78.8479 30.3285C78.3182 30.2697 77.7292 30.1521 77.1995 29.8582C76.8462 29.623 76.4924 29.3291 76.316 28.9176C76.1391 28.5061 76.0215 28.1534 75.8451 27.8007C75.6094 27.3892 75.3149 26.9777 75.0793 26.5662C74.726 25.9783 74.3727 25.3905 74.1375 24.7438C74.0782 24.5675 73.9606 24.4499 73.9606 24.3323C73.843 24.0384 73.6661 23.8032 73.6073 23.5094C73.4309 22.9803 73.0771 22.6863 72.5474 22.7451C72.3117 22.7451 72.0172 22.8039 71.782 22.7451C71.5463 22.7451 71.3694 22.8627 71.3106 23.0978C71.193 23.4506 71.1342 23.862 71.1342 24.2148C71.1342 24.9202 71.193 25.6256 71.193 26.331C71.193 27.154 71.193 27.8595 71.193 28.6237ZM71.2518 13.3394C71.193 14.2212 71.193 15.103 71.193 16.0435C71.193 16.2787 71.193 16.5138 71.193 16.749C71.193 17.3956 71.6051 17.7484 72.1941 17.7484C72.4298 17.7484 72.7238 17.7484 72.9595 17.7484C73.0183 17.7484 73.1364 17.7484 73.254 17.6896C73.6661 17.5132 74.1375 17.4544 74.5496 17.2193C74.9617 17.0429 75.1973 16.8078 75.4918 16.5138C75.8451 16.1023 76.1391 15.5733 76.2572 14.9854C76.4336 14.1624 76.316 13.2219 76.316 12.3988C76.316 12.1049 76.2572 11.7522 76.2572 11.4583C76.1984 11.0468 76.0215 10.6941 75.9039 10.2826C75.727 9.87111 75.4918 9.51837 75.2561 9.22445C74.7848 8.69539 74.1963 8.40147 73.4897 8.40147C73.254 8.40147 72.9595 8.40147 72.7238 8.40147C72.3117 8.46022 71.9584 8.57778 71.6639 8.81296C71.3106 9.10688 71.193 9.45957 71.1342 9.92986C71.193 11.1644 71.193 12.2225 71.2518 13.3394Z" fill="#13ABB0"/>
<path d="M94.6294 28.0946C94.6294 28.5649 94.4525 29.0352 94.2173 29.4467C94.158 29.623 94.0404 29.7406 93.8047 29.7406C93.3926 29.7994 92.9806 29.917 92.5685 30.0345C91.9207 30.1521 91.3317 30.0345 90.6839 29.9757C89.9773 29.8582 89.5064 29.2703 89.5064 28.5649C89.4476 27.0953 89.4476 25.6844 89.3883 24.2148C89.3883 23.6269 89.3295 23.0978 89.3295 22.51C89.3295 22.216 89.2707 21.9809 89.2707 21.7458C89.2707 19.5119 89.2707 17.3369 89.2707 15.103C89.2707 12.8691 89.2119 10.5765 89.2119 8.34266C89.2119 7.81361 89.2707 7.28451 89.3295 6.75546C89.3883 6.22636 89.4476 5.69731 89.5064 5.22702C89.5652 4.69795 89.7416 4.16889 89.9185 3.6986C90.213 3.16953 90.5663 2.81682 91.1553 2.75803C91.2141 2.69924 91.3317 2.69925 91.4493 2.69925C92.2152 2.75804 92.9806 2.87561 93.6871 3.28711C94.158 3.52225 94.5113 3.87496 94.747 4.34524C95.2179 5.22702 95.6893 6.1088 96.1014 6.93183C96.5135 7.696 96.8668 8.46022 97.1613 9.16564C97.4558 9.69474 97.6915 10.2238 97.986 10.8116C98.2212 11.2819 98.4569 11.7522 98.6926 12.1637C99.1635 13.1043 99.6343 14.0449 100.165 15.0442C100.4 15.5145 100.695 15.9848 100.93 16.4551C100.989 16.5138 101.107 16.6314 101.224 16.6902C101.46 16.749 101.637 16.6902 101.755 16.4551C101.931 16.2199 101.99 15.926 101.931 15.6321C101.872 14.28 101.813 12.928 101.755 11.5759C101.695 10.8116 101.695 10.0474 101.695 9.22445C101.637 8.1663 101.637 7.10815 101.578 6.05004C101.578 5.63851 101.637 5.28582 101.637 4.9331C101.755 4.34524 101.99 3.75739 102.343 3.28711C102.638 2.87561 102.991 2.64047 103.462 2.69925C103.58 2.69925 103.639 2.69925 103.757 2.64046C104.581 2.58168 105.288 2.69924 105.994 3.16953C106.524 3.58103 106.819 4.1101 106.819 4.81553C106.878 6.93183 106.878 8.98932 106.878 11.1056C106.878 11.3995 106.936 11.6934 106.936 11.9286C106.995 13.3394 106.995 14.8091 107.113 16.1612C107.172 17.5132 107.231 18.8065 107.29 20.1585C107.29 20.57 107.29 20.9228 107.349 21.2755C107.407 22.9215 107.407 24.5675 107.466 26.2135C107.466 26.7426 107.525 27.1541 107.525 27.6244C107.525 28.271 107.407 28.8001 107.231 29.3879C107.172 29.623 106.995 29.6819 106.819 29.7994C105.935 30.2109 104.993 30.1521 104.051 29.8582C103.757 29.7406 103.462 29.5642 103.227 29.3291C102.932 28.9764 102.579 28.6825 102.284 28.3298C101.755 27.6831 101.224 27.1541 100.812 26.4486C100.4 25.802 100.047 25.2141 99.6343 24.5675C99.1635 23.7445 98.5745 22.9215 98.0448 22.0397C97.2201 20.7464 96.2783 19.3944 95.4536 18.0423C95.336 17.8659 95.1591 17.7484 94.9239 17.7484C94.6882 17.8072 94.5706 17.8659 94.5113 18.101C94.4525 18.2774 94.4525 18.395 94.4525 18.5126C94.4525 20.0998 94.5113 21.687 94.5113 23.2742C94.5706 23.2742 94.5706 23.2742 94.5706 23.2742C94.6294 24.9202 94.6294 26.5074 94.6294 28.0946Z" fill="#13ABB0"/>
<path d="M119.066 9.69472C119.125 10.6353 119.125 11.5758 119.125 12.5164C119.125 14.3976 119.125 16.2787 119.125 18.1598C119.066 19.6295 119.007 21.0991 118.948 22.6275C118.89 23.4505 118.89 24.2735 118.89 25.1553C118.831 25.9195 118.831 26.6837 118.772 27.448C118.713 27.8006 118.713 28.2121 118.654 28.5061C118.654 28.6824 118.595 28.9176 118.477 29.1527C118.419 29.3291 118.301 29.5055 118.183 29.6818C117.888 30.1521 117.418 30.3284 116.887 30.3284C116.652 30.3284 116.357 30.3872 116.122 30.3284C115.592 30.3284 115.062 30.2696 114.709 29.8581C114.532 29.6818 114.296 29.3879 114.179 29.0939C113.884 28.5649 113.884 28.0358 113.884 27.448C113.943 26.0959 114.002 24.8026 114.061 23.4505C114.061 22.8039 114.12 22.1573 114.12 21.5106C114.12 19.2767 114.12 17.0429 114.12 14.8678C114.12 13.8097 114.061 12.7516 114.002 11.7522C113.884 9.87109 113.825 7.98991 113.943 6.10878C113.943 5.57973 114.002 5.05063 114.061 4.52158C114.12 3.99251 114.414 3.52223 114.709 3.05194C114.885 2.75801 115.121 2.64044 115.474 2.64044C116.24 2.69923 117.005 2.69923 117.83 2.69923C118.124 2.69923 118.359 2.87559 118.477 3.11073C118.772 3.58102 118.89 4.0513 118.89 4.58037C118.948 5.3446 118.89 6.10878 118.89 7.16693C118.948 7.87235 119.066 8.75413 119.066 9.69472Z" fill="#13ABB0"/>
<path d="M130.667 28.0946C130.667 28.5649 130.49 29.0352 130.254 29.4467C130.196 29.623 130.078 29.7406 129.842 29.7406C129.43 29.7994 129.018 29.917 128.606 30.0345C127.958 30.1521 127.369 30.0345 126.721 29.9757C126.015 29.8582 125.544 29.2703 125.544 28.5649C125.485 27.0953 125.485 25.6844 125.426 24.2148C125.426 23.6269 125.367 23.0978 125.367 22.51C125.367 22.216 125.308 21.9809 125.308 21.7458C125.308 19.5119 125.308 17.3369 125.308 15.103C125.308 12.8691 125.25 10.5765 125.25 8.34266C125.25 7.81361 125.308 7.28451 125.367 6.75546C125.426 6.22636 125.485 5.69731 125.544 5.22702C125.603 4.69795 125.779 4.16889 125.956 3.6986C126.251 3.16953 126.604 2.81682 127.192 2.75803C127.252 2.69924 127.369 2.69925 127.487 2.69925C128.253 2.75804 129.018 2.87561 129.725 3.28711C130.196 3.52225 130.549 3.87496 130.785 4.34524C131.256 5.22702 131.727 6.1088 132.139 6.93183C132.551 7.696 132.904 8.46022 133.199 9.16564C133.493 9.69474 133.729 10.2238 134.023 10.8116C134.259 11.2819 134.494 11.7522 134.73 12.1637C135.201 13.1043 135.672 14.0449 136.202 15.0442C136.438 15.5145 136.732 15.9848 136.968 16.4551C137.026 16.5138 137.144 16.6314 137.262 16.6902C137.498 16.749 137.674 16.6902 137.792 16.4551C137.969 16.2199 138.027 15.926 137.969 15.6321C137.91 14.28 137.851 12.928 137.792 11.5759C137.733 10.8116 137.733 10.0474 137.733 9.22445C137.674 8.1663 137.674 7.10815 137.615 6.05004C137.615 5.63851 137.674 5.28582 137.674 4.9331C137.792 4.34524 138.027 3.75739 138.381 3.28711C138.675 2.87561 139.029 2.64047 139.5 2.69925C139.617 2.69925 139.676 2.69925 139.794 2.64046C140.619 2.58168 141.325 2.69924 142.032 3.16953C142.562 3.58103 142.856 4.1101 142.856 4.81553C142.915 6.93183 142.915 8.98932 142.915 11.1056C142.915 11.3995 142.974 11.6934 142.974 11.9286C143.033 13.3394 143.033 14.8091 143.15 16.1612C143.209 17.5132 143.269 18.8065 143.327 20.1585C143.327 20.57 143.327 20.9228 143.386 21.2755C143.445 22.9215 143.445 24.5675 143.504 26.2135C143.504 26.7426 143.563 27.1541 143.563 27.6244C143.563 28.271 143.445 28.8001 143.269 29.3879C143.209 29.623 143.033 29.6819 142.856 29.7994C141.973 30.2109 141.031 30.1521 140.088 29.8582C139.794 29.7406 139.5 29.5642 139.264 29.3291C138.97 28.9764 138.616 28.6825 138.322 28.3298C137.792 27.6831 137.262 27.1541 136.85 26.4486C136.438 25.802 136.085 25.2141 135.672 24.5675C135.201 23.7445 134.612 22.9215 134.082 22.0397C133.258 20.7464 132.315 19.3944 131.491 18.0423C131.374 17.8659 131.197 17.7484 130.961 17.7484C130.726 17.8072 130.608 17.8659 130.549 18.101C130.49 18.2774 130.49 18.395 130.49 18.5126C130.49 20.0998 130.549 21.687 130.549 23.2742C130.608 23.2742 130.608 23.2742 130.608 23.2742C130.667 24.9202 130.667 26.5074 130.667 28.0946Z" fill="#13ABB0"/>
<path d="M165.586 15.8672C165.88 15.8084 166.233 15.8672 166.587 15.926C166.881 15.9848 167.116 16.1023 167.293 16.3963C167.705 16.9841 167.823 17.572 167.882 18.2186C167.941 19.5707 167.941 20.864 168 22.2748C168 23.2742 167.941 24.2735 167.882 25.2729C167.882 25.4492 167.823 25.6844 167.823 25.8608C167.823 26.2723 167.823 26.6249 167.823 27.0365C167.823 27.6831 167.823 28.3298 167.764 29.0352C167.705 29.5642 167.47 30.0933 167.057 30.5048C166.881 30.6812 166.763 30.7399 166.528 30.7399C165.939 30.7987 165.35 30.8576 164.761 30.7987C164.29 30.7399 163.878 30.6812 163.407 30.6224C162.994 30.5636 162.759 30.2697 162.582 29.9758C162.523 29.917 162.523 29.7994 162.523 29.6818C162.465 29.3879 162.229 29.2115 161.876 29.3879C161.876 29.4467 161.817 29.4467 161.817 29.4467C161.169 29.9758 160.521 30.0933 159.756 30.3285C159.638 30.3873 159.52 30.3873 159.403 30.446C158.46 30.7399 157.459 30.8576 156.458 30.6224C156.223 30.5636 155.987 30.5636 155.752 30.5048C154.868 30.2697 154.044 29.7994 153.337 29.1527C153.102 28.9176 152.866 28.7413 152.572 28.5061C151.571 27.6831 150.982 26.5074 150.57 25.2729C150.275 24.2148 150.04 23.0978 149.922 22.0397C149.804 21.2755 149.745 20.5113 149.745 19.6883C149.745 18.5126 149.804 17.3369 149.804 16.1612C149.804 15.5733 149.863 14.9854 149.863 14.3976C149.863 13.5746 149.981 12.7516 150.158 11.9286C150.452 10.2826 150.982 8.69539 151.688 7.16695C152.101 6.22636 152.69 5.40338 153.514 4.75674C153.926 4.40403 154.456 4.1101 154.927 3.81617C155.221 3.63981 155.457 3.52224 155.752 3.34589C156.458 2.93439 157.283 2.69924 158.048 2.4641C158.225 2.40532 158.343 2.34653 158.46 2.28774C159.285 1.99381 160.168 1.93503 161.052 1.99381C161.876 2.0526 162.759 2.28775 163.583 2.52289C163.701 2.58167 163.76 2.58167 163.878 2.64046C164.29 2.81682 164.702 3.05196 165.115 3.28711C165.409 3.46346 165.644 3.6986 165.88 3.93374C166.056 4.1101 166.175 4.28646 166.292 4.46282C166.587 4.75674 166.763 5.16825 166.94 5.52094C167.352 6.34397 167.47 7.22575 167.47 8.04873C167.529 8.28385 167.47 8.57778 167.529 8.81295C167.588 9.45956 167.411 9.98866 167.176 10.5765C166.999 11.2231 166.528 11.5171 165.88 11.5759C165.232 11.6347 164.584 11.5171 163.937 11.2819C163.583 11.2231 163.289 10.988 163.112 10.6353C163.053 10.459 162.936 10.3413 162.877 10.2238C162.7 9.92986 162.582 9.69474 162.582 9.40081C162.523 9.04808 162.406 8.75415 162.288 8.46022C162.111 8.16629 161.876 7.98997 161.522 7.98997C160.875 7.93117 160.227 7.93117 159.638 7.98997C158.991 8.10753 158.402 8.28385 157.871 8.81295C156.988 9.75349 156.341 10.8116 155.987 12.0462C155.693 12.9867 155.516 14.0449 155.457 15.0442C155.457 15.6909 155.34 16.2787 155.281 16.9253C155.221 17.3369 155.221 17.7484 155.281 18.101C155.281 18.1598 155.281 18.2186 155.281 18.2774C155.281 18.9241 155.281 19.5707 155.34 20.1585C155.34 20.3937 155.34 20.6288 155.398 20.864C155.575 21.5694 155.693 22.216 155.929 22.9215C156.105 23.4505 156.341 23.9796 156.753 24.4499C156.929 24.6263 157.165 24.8026 157.4 24.8614C158.048 25.0377 158.696 25.1553 159.403 25.1553C159.815 25.0966 160.227 25.0966 160.639 24.9202C160.698 24.8614 160.757 24.8614 160.816 24.8614C161.405 24.8026 161.758 24.4499 162.111 24.0384C162.17 23.9796 162.17 23.9208 162.229 23.862C162.406 23.333 162.523 22.8039 162.406 22.216C162.347 21.8045 162.111 21.5694 161.699 21.5106C161.405 21.4519 161.052 21.4519 160.757 21.3342C160.227 21.1579 159.874 20.6876 159.638 20.1585C159.403 19.5119 159.52 18.8065 159.697 18.1598C159.815 17.6895 159.991 17.2781 160.345 16.9253C160.639 16.6314 161.052 16.3963 161.522 16.2787C162.053 16.1612 162.582 16.2787 163.112 16.2199C163.937 15.926 164.761 15.8672 165.586 15.8672Z" fill="#13ABB0"/>
<path d="M90.3303 56.5469C90.3303 57.8399 90.3303 59.1921 90.3303 60.4857C90.3891 62.4255 90.3891 64.424 90.4483 66.3642C90.4483 66.717 90.3891 67.1284 90.2715 67.4224C90.0951 67.9513 89.7418 68.304 89.1528 68.3627C88.8583 68.4214 88.6226 68.4214 88.3281 68.4214C88.0341 68.3627 87.7984 68.4214 87.5627 68.4214C87.2094 68.4801 86.8561 68.4801 86.5028 68.4801C86.0319 68.4801 85.6786 68.304 85.4429 67.8339C85.2072 67.3045 85.0308 66.7757 85.0308 66.1289C85.0308 63.6011 84.972 61.1319 84.972 58.6633C84.972 57.4872 84.972 56.2529 84.972 55.0773C84.972 54.7832 84.9127 54.6658 84.6775 54.5479C84.5006 54.4892 84.383 54.4892 84.3242 54.6658C84.1474 54.9598 84.0298 55.2534 83.8529 55.5474C83.4408 56.4295 83.0287 57.3111 82.5573 58.1927C82.3221 58.722 82.0864 59.2509 81.7919 59.7802C81.6155 60.1916 81.3798 60.6031 81.0853 60.9558C80.8496 61.2498 80.2611 61.2498 80.0254 60.9558C79.7309 60.6031 79.5545 60.1916 79.3776 59.8389C79.0243 59.1334 78.671 58.428 78.3177 57.7225C77.9645 56.9583 77.6112 56.1942 77.2579 55.4887C77.081 55.1947 76.9634 54.8419 76.7277 54.6658C76.6101 54.6071 76.4925 54.4892 76.3744 54.5479C76.198 54.6071 76.198 54.7245 76.198 54.8419C76.1392 55.0773 76.1392 55.3126 76.1392 55.6061C76.1392 58.8394 76.0799 62.1314 76.0799 65.3647C76.0211 65.8349 76.0211 66.2463 76.0211 66.6578C75.9623 67.0697 75.9035 67.4224 75.7266 67.716C75.5502 68.2453 75.02 68.4801 74.5491 68.4801C74.137 68.4801 73.7244 68.4214 73.3711 68.4214C73.1947 68.3627 72.959 68.3627 72.7238 68.4214C72.3112 68.4801 71.8992 68.3627 71.4283 68.1866C71.0162 68.0687 70.7217 67.7752 70.486 67.4224C70.3091 67.2458 70.3091 66.8931 70.3091 66.6578C70.3091 64.8946 70.3091 63.1896 70.3684 61.4847C70.486 59.3688 70.5448 57.2524 70.4272 55.1947C70.3684 53.2549 70.3684 51.2564 70.3684 49.3748C70.4272 48.552 70.486 47.729 70.486 46.906C70.5448 45.7303 70.486 44.4958 70.5448 43.3201C70.5448 42.7323 70.6036 42.1444 70.8393 41.6741C71.075 41.145 71.4283 40.9099 71.9579 40.8511C72.7238 40.7923 73.4892 40.7335 74.3134 40.6748C74.4903 40.6748 74.6079 40.6748 74.7255 40.6748C75.1381 40.616 75.4914 40.7923 75.7859 40.9099C75.9623 41.0275 76.0799 41.145 76.198 41.3214C76.4925 42.0268 76.7865 42.7322 77.081 43.4377C77.4936 44.5546 77.9057 45.6715 78.4946 46.7297C78.9655 47.6702 79.4364 48.552 79.9078 49.4927C79.9666 49.5514 79.9666 49.6101 79.9666 49.6688C80.2611 50.0803 80.6732 50.0803 80.9089 49.6688C80.9089 49.6688 80.9677 49.6688 80.9677 49.6101C81.7331 48.0817 82.6166 46.5533 83.2644 44.9073C83.6177 44.0255 83.971 43.1438 84.3242 42.262C84.383 41.968 84.5006 41.7329 84.6775 41.4977C84.9127 41.0863 85.266 40.7923 85.7962 40.7335C86.6797 40.5572 87.5627 40.616 88.4462 40.7923C89.094 40.9099 89.6237 41.2038 89.8594 41.8505C89.977 42.1444 90.0358 42.3795 90.0951 42.6735C90.3303 44.3195 90.3303 46.0242 90.3303 47.6702C90.2715 49.0811 90.2715 50.433 90.2715 51.8439C90.2715 52.5494 90.2127 53.2549 90.2127 53.9603C90.2127 54.5479 90.1539 55.136 90.1539 55.724C90.3303 56.0767 90.3303 56.3116 90.3303 56.5469Z" fill="#13ABB0"/>
<path d="M114.826 59.0747C114.65 60.015 114.414 60.8971 114.061 61.7199C113.885 62.1314 113.767 62.4841 113.59 62.8955C113.296 63.5423 112.825 64.0712 112.412 64.6592C112.118 65.1881 111.764 65.6 111.352 66.0701C110.704 66.8343 109.998 67.4811 109.115 67.8925C108.467 68.1866 107.819 68.4214 107.113 68.5393C106.818 68.598 106.465 68.598 106.17 68.6567C106.112 68.6567 105.994 68.6567 105.876 68.6567C105.287 68.598 104.698 68.4801 104.109 68.4214C103.639 68.304 103.167 68.1866 102.696 68.0099C102.284 67.8338 101.872 67.6572 101.46 67.3632C101.106 67.1871 100.812 66.8343 100.458 66.599C100.4 66.5403 100.341 66.4816 100.282 66.4229C99.5162 65.8935 99.0453 65.2473 98.5156 64.4831C97.5733 63.0722 97.1019 61.4846 96.8667 59.7802C96.6898 58.722 96.6898 57.5463 96.8079 56.4294C96.8667 55.8414 96.8079 55.2533 96.8667 54.6658C96.8667 53.725 96.9843 52.726 97.1612 51.7852C97.22 51.315 97.2788 50.8444 97.3376 50.3743C97.5145 49.3748 97.6321 48.3756 97.9266 47.3763C98.4563 45.9654 98.9865 44.6133 100.164 43.5552C100.93 42.791 101.695 42.0856 102.638 41.5565C103.403 41.145 104.109 40.851 104.993 40.7335C105.758 40.6747 106.524 40.5571 107.348 40.6159C107.937 40.6747 108.526 40.7335 109.115 40.9098C109.88 41.2038 110.646 41.6153 111.352 42.0268C111.882 42.3207 112.295 42.791 112.648 43.3201C113.237 44.0842 113.649 44.966 113.943 45.8478C114.297 46.906 114.591 47.9053 114.886 48.9635C115.298 50.3743 115.474 51.4912 115.415 53.1961C115.415 55.2533 115.239 57.1936 114.826 59.0747ZM109.35 52.6081C109.291 51.4325 109.115 50.1394 108.644 49.0223C108.349 48.3756 108.114 47.7878 107.642 47.2587C107.466 47.0823 107.289 46.906 106.995 46.8472C106.701 46.7884 106.406 46.6708 106.112 46.6708C105.581 46.612 105.052 46.6708 104.698 47.0823C104.051 47.729 103.52 48.3756 103.05 49.1986C102.225 50.727 101.872 52.4319 101.813 54.1364C101.754 55.7827 101.813 57.3697 102.107 58.9568C102.225 59.6035 102.343 60.2503 102.638 60.8383C102.932 61.3672 103.285 61.8373 103.815 62.1901C104.286 62.4841 104.757 62.7194 105.287 62.8368C105.935 63.0722 106.465 62.8955 107.054 62.6015C107.584 62.308 107.996 61.7786 108.231 61.1911C108.644 60.309 108.997 59.3095 109.115 58.3105C109.291 56.9583 109.409 55.6061 109.409 54.2543C109.409 53.6663 109.409 53.1374 109.35 52.6081Z" fill="#13ABB0"/>
<path d="M127.133 51.2559C127.133 51.3151 127.193 51.3738 127.193 51.4325C127.251 53.8429 127.428 56.3115 127.428 58.7807C127.369 59.7802 127.428 60.8384 127.428 61.8374C127.428 61.9553 127.428 62.0727 127.428 62.1901C127.487 62.7194 127.899 63.0722 128.429 63.013C129.254 62.9543 130.019 63.0722 130.843 63.1309C131.373 63.1896 131.844 63.1896 132.375 63.1896C132.551 63.1896 132.787 63.1896 133.022 63.2483C133.611 63.307 134.023 63.601 134.2 64.1891C134.494 65.012 134.494 65.8348 134.377 66.6577C134.2 67.3045 133.847 67.7159 133.317 68.0687C133.14 68.1274 132.904 68.1866 132.728 68.1866C132.08 68.1866 131.491 68.1866 130.843 68.2453C129.666 68.304 128.429 68.304 127.251 68.3627C126.25 68.4214 125.249 68.4214 124.189 68.4801C124.013 68.4801 123.777 68.4801 123.542 68.4214C123.365 68.3627 123.13 68.304 123.011 68.1866C122.423 67.6572 122.128 67.0105 122.128 66.1876C122.07 64.2478 122.01 62.3667 121.952 60.4264C121.893 58.4279 121.893 56.4881 121.893 54.5479C121.834 51.6678 121.834 48.7283 121.834 45.7302C121.834 45.5539 121.834 45.3187 121.893 45.0836C122.07 44.3194 122.07 43.614 122.364 42.9086C122.482 42.4971 122.658 42.1443 122.953 41.9092C123.424 41.4977 123.954 41.3801 124.484 41.2625C124.602 41.2625 124.719 41.2625 124.837 41.2625C125.249 41.145 125.603 41.3214 125.956 41.5565C126.074 41.6153 126.192 41.7916 126.25 41.968C126.368 42.3207 126.486 42.6734 126.545 43.0261C126.721 43.614 126.78 44.2018 126.898 44.8484C126.957 45.0248 126.957 45.2012 126.957 45.3775C127.016 46.1418 127.016 46.9059 127.016 47.4938C127.016 48.9047 127.016 50.0802 127.133 51.2559Z" fill="#13ABB0"/>
<path d="M154.575 63.2482C155.281 63.1895 155.752 63.5423 156.047 64.1303C156.459 65.0706 156.518 66.0701 156.341 67.0696C156.283 67.3631 156.164 67.7159 156.047 68.0099C155.87 68.3039 155.635 68.48 155.281 68.5392C154.751 68.598 154.222 68.598 153.691 68.598C153.397 68.598 153.044 68.5392 152.749 68.5392C151.925 68.598 150.983 68.598 150.158 68.598C149.511 68.6567 148.98 68.5392 148.392 68.598C146.978 68.6567 145.624 68.6567 144.27 68.7154C143.445 68.7154 142.621 68.6567 141.855 68.6567C141.797 68.6567 141.738 68.6567 141.679 68.6567C141.384 68.4213 141.031 68.2452 140.795 68.0099C140.737 67.9512 140.678 67.8338 140.619 67.7159C140.383 67.0696 140.266 66.4228 140.325 65.6587C140.383 64.4826 140.442 63.3657 140.501 62.2488C140.56 60.7204 140.619 59.2508 140.678 57.7224C140.737 57.1344 140.678 56.5468 140.737 55.9588C140.854 54.7244 140.737 53.4901 140.678 52.2553C140.678 52.1379 140.678 52.0205 140.678 51.9613C140.619 49.9041 140.56 47.9053 140.501 45.8478C140.501 45.2599 140.56 44.6721 140.678 44.0842C140.678 43.7903 140.737 43.5551 140.854 43.32C141.031 42.7321 141.208 42.1443 141.502 41.6152C141.679 41.3213 141.915 41.1449 142.209 41.0273C142.621 40.9098 143.033 40.851 143.504 40.851C144.152 40.9098 144.8 40.9098 145.506 40.9098C146.331 40.9686 147.214 40.9686 148.039 41.0861C149.216 41.1449 150.453 41.1449 151.63 41.0861C152.337 41.0273 153.044 41.0273 153.75 41.0273C154.045 41.0273 154.398 41.1449 154.692 41.2037C154.869 41.2625 155.105 41.3213 155.223 41.3801C155.635 41.5564 155.87 41.9679 155.988 42.3794C156.224 43.3788 156.283 44.3781 156.047 45.3775C155.988 45.6714 155.87 45.8477 155.694 46.0241C155.34 46.318 154.928 46.612 154.516 46.7883C154.163 46.9059 153.75 46.8471 153.397 46.9059C153.279 46.9059 153.221 46.9059 153.102 46.9059C152.337 47.0823 151.572 47.0235 150.806 47.0235C150.276 47.0235 149.805 47.0235 149.275 47.1411C149.099 47.1998 148.922 47.1998 148.745 47.1998C148.451 47.2586 148.098 47.3174 147.803 47.3762C147.391 47.435 147.155 47.7289 147.155 48.1404C147.096 48.6695 147.096 49.1398 147.096 49.6688C147.096 49.7862 147.096 49.9041 147.096 50.0215C147.155 50.4329 147.332 50.6682 147.744 50.7857C147.862 50.8444 147.979 50.8444 148.156 50.8444C148.568 50.8444 149.039 50.7857 149.452 50.7857C149.628 50.7857 149.746 50.7857 149.923 50.7857C150.747 50.8444 151.572 50.7857 152.337 50.8444C153.102 50.8444 153.691 51.3737 153.868 52.0792C153.927 52.3732 153.927 52.608 154.045 52.9021C154.104 53.1961 154.104 53.4901 154.104 53.7836C154.104 54.4304 153.868 54.8418 153.397 55.1946C153.044 55.4886 152.632 55.606 152.219 55.606C151.866 55.606 151.513 55.6647 151.16 55.6647C151.101 55.7239 150.983 55.7239 150.924 55.7239C150.276 55.7826 149.628 55.8413 148.98 55.9C148.568 55.9588 148.156 56.0175 147.744 56.0767C147.391 56.1354 147.273 56.3115 147.214 56.6055C147.038 57.2523 147.096 57.899 147.038 58.604C146.92 59.5448 146.92 60.4856 146.978 61.4846C146.978 61.7786 147.038 62.1313 147.096 62.4254C147.155 62.9542 147.509 63.1895 147.979 63.2482C148.392 63.3069 148.745 63.307 149.157 63.307C149.687 63.307 150.1 63.307 150.629 63.307V63.3657C151.925 63.3657 153.279 63.3069 154.575 63.2482Z" fill="#13ABB0"/>
<path d="M35.2132 46.6709C34.7422 45.2012 33.3289 44.0255 31.6801 43.4965C29.2069 42.6735 27.0281 43.9079 26.2627 46.3769C25.4383 48.846 25.7327 51.3151 29.0303 52.3145C31.5035 53.0787 34.2122 52.3733 35.2132 48.9635C35.3899 48.3757 35.3899 47.8466 35.331 47.3175C35.2721 47.1412 35.2721 46.906 35.2132 46.6709Z" fill="white"/>
<path d="M35.3901 48.5521C35.2135 48.0818 34.8013 47.7291 34.3302 47.6115C33.5647 47.3764 32.9169 47.7291 32.6814 48.4933C32.4459 49.2575 32.5047 49.9628 33.5058 50.3156C34.2713 50.5509 35.0957 50.3156 35.3901 49.3163C35.449 49.1399 35.449 48.9636 35.449 48.846C35.3901 48.6696 35.3901 48.6109 35.3901 48.5521Z" fill="#171009"/>
<path d="M31.7394 69.0681C48.2604 69.0681 61.6533 65.4101 61.6533 60.8971C61.6533 56.3841 48.2604 52.726 31.7394 52.726C15.2185 52.726 1.82568 56.3841 1.82568 60.8971C1.82568 65.4101 15.2185 69.0681 31.7394 69.0681Z" fill="#514638"/>
<path d="M46.6377 65.6C46.6377 65.6 46.6377 65.6587 46.7555 65.7174C46.6966 65.5413 46.6966 65.4826 46.6377 65.6Z" fill="#EDA38F"/>
<path d="M51.4069 46.1421C50.4063 46.0245 49.464 46.8475 49.2872 48.082C49.1106 49.3165 49.7585 50.3748 50.8184 50.5509C51.8195 50.6683 52.7612 49.8454 52.9381 48.6111C53.1145 47.4354 52.4079 46.3184 51.4069 46.1421Z" fill="#514638"/>
<path d="M33.3291 38.8524C33.7413 39.0876 34.1535 39.3227 34.5657 39.4991C34.9779 39.6755 35.449 39.793 35.8612 39.9106C36.3323 39.9694 36.8033 40.0282 37.2155 39.9694C37.4511 39.9694 37.6866 39.9106 37.9222 39.8518C38.1577 39.793 38.3344 39.7342 38.5699 39.6167V39.5579C38.3344 39.5579 38.0988 39.6167 37.8633 39.6167C37.8044 39.6167 37.7455 39.6167 37.6866 39.6167C37.6277 39.6167 37.5688 39.6167 37.51 39.6167C37.4511 39.6167 37.3922 39.6167 37.3333 39.6167H37.1566C36.9211 39.6167 36.7444 39.6167 36.5089 39.5579C36.3912 39.5579 36.2734 39.5579 36.2145 39.4991C36.0967 39.4991 35.979 39.4403 35.9201 39.4403C35.5079 39.3815 35.0957 39.2639 34.6246 39.1464C34.2124 39.0876 33.8001 38.97 33.3291 38.8524Z" fill="#514638"/>
<path d="M27.9712 40.5574C27.9123 40.5574 27.9123 40.6161 27.8534 40.6161C27.7357 40.6749 27.6768 40.7337 27.559 40.7925C27.3823 40.91 27.2057 40.9688 27.0291 41.0864C26.9113 41.1452 26.8524 41.204 26.7346 41.204C26.6169 41.2628 26.558 41.2628 26.4402 41.3215C26.2636 41.3803 26.028 41.4979 25.8513 41.5567C25.4391 41.6743 25.0269 41.8506 24.6147 41.9682V42.027C25.0858 42.027 25.498 41.9682 25.9691 41.8506C26.3813 41.7331 26.8524 41.6155 27.2646 41.4391C27.4412 41.3215 27.6768 41.204 27.8534 41.0864C28.0301 40.9688 28.2067 40.7925 28.3834 40.6749C28.5601 40.4985 28.6778 40.381 28.8545 40.2046C28.9723 40.0283 29.09 39.8519 29.2078 39.6168H29.1489C28.7956 39.9695 28.5012 40.2046 28.1479 40.4985C28.089 40.5574 28.0301 40.5574 27.9712 40.5574Z" fill="#514638"/>
<path d="M48.4033 47.0237C45.7342 45.0555 44.1636 44.6723 44.1636 44.6723L43.7164 45.0555C43.7164 45.0555 42.2792 49.0224 39.8061 48.8461C37.9806 48.7285 36.3907 47.788 35.7429 46.3183C35.213 46.2007 34.6242 46.4359 34.0942 46.7298C33.8586 46.8474 33.682 46.9649 33.5053 47.0826C33.6231 47.6704 33.6231 48.3758 33.4464 49.0224C32.3865 52.4907 29.6777 53.1962 27.1457 52.432C23.7892 51.4325 23.4948 48.9049 24.3192 46.3771C25.1436 43.8493 27.3223 42.6148 29.8544 43.4378C31.5621 43.9669 32.9164 45.2014 33.4464 46.671C33.6231 46.5535 33.7997 46.4359 34.0353 46.3183C34.5064 46.0832 35.0363 45.848 35.6252 45.9068C35.5074 45.4953 35.4485 45.025 35.4485 44.5548C35.5074 43.673 35.8607 42.7912 36.3318 42.0858C17.4844 38.7598 11.1787 58.9573 11.1787 58.9573C16.4755 54.6249 22.5766 57.5952 23.538 59.0748C25.5558 62.1798 24.0836 68.8334 24.0836 68.8334C29.9722 69.3622 37.0973 69.1269 41.7493 68.6568C40.1594 63.5424 38.805 61.6026 40.2771 59.0748C40.336 58.9573 38.0984 58.8986 36.8029 58.3693C35.684 57.8991 35.5663 56.8409 35.6841 56.7822C35.8607 56.7235 36.3907 57.7225 37.6273 58.0165C38.8639 58.3693 40.8071 58.0753 41.2782 57.6638C43.8103 54.9599 47.9911 51.3151 48.4622 50.9624C49.2654 50.0921 48.4033 47.0237 48.4033 47.0237Z" fill="#9B6544"/>
<path d="M43.8603 46.4331C44.6387 44.3667 43.419 41.9966 41.136 41.1395C38.853 40.2824 36.3712 41.2628 35.5928 43.3292C34.8144 45.3956 36.034 47.7656 38.3171 48.6228C40.6 49.4798 43.0818 48.4995 43.8603 46.4331Z" fill="white"/>
<path d="M33.3879 46.671C32.8579 45.2013 31.5036 43.9668 29.7959 43.4378C27.2638 42.6148 25.085 43.8493 24.2607 46.377C23.4363 48.9048 23.7307 51.4325 27.0872 52.432C29.6192 53.1961 32.3868 52.4907 33.3879 49.0224C33.5645 48.4345 33.5645 47.9055 33.5056 47.3764C33.5056 47.1413 33.4467 46.9061 33.3879 46.671Z" fill="white"/>
<path d="M43.2774 46.8296C43.9516 46.721 44.4017 46.0354 44.2827 45.2981C44.1636 44.5609 43.5204 44.0512 42.8462 44.1598C42.1719 44.2683 41.7218 44.9539 41.8409 45.6912C41.96 46.4284 42.6031 46.9381 43.2774 46.8296Z" fill="#272727"/>
<path d="M33.5645 48.5522C33.3878 48.0819 32.9756 47.7292 32.5045 47.5529C31.739 47.3177 31.0913 47.6704 30.8557 48.4346C30.6202 49.1988 30.6791 49.9628 31.6801 50.2569C32.4457 50.4922 33.27 50.2569 33.5645 49.1988C33.6234 49.0225 33.6234 48.8461 33.6234 48.6698C33.6234 48.7285 33.5645 48.6698 33.5645 48.5522Z" fill="#272727"/>
<path d="M0.117769 11.282C0.0588835 10.2826 0.0588855 9.2833 0 8.28396C0 7.75486 0.0588889 7.22581 0.0588889 6.69671C0.117774 5.87373 0.235545 5.1095 0.353316 4.28653C0.412201 4.05138 0.471088 3.81624 0.529976 3.5811C0.647744 3.28717 0.883284 3.05203 1.2366 2.93446C2.11988 2.7581 3.00316 2.64052 3.88644 2.87567C4.23975 2.93445 4.53418 3.05202 4.76972 3.34595C4.88749 3.46352 5.00526 3.63988 5.00526 3.81624C5.00526 4.22773 5.06416 4.58044 5.06416 4.93316C5.12301 6.16765 5.18191 7.40217 5.18191 8.63664C5.24081 9.81235 5.24081 10.9881 5.24081 12.1638C5.24081 13.2219 5.29971 14.2801 5.29971 15.2794C5.29971 15.8085 5.29971 16.3963 5.35856 16.9254C5.35856 18.9829 5.41745 21.0404 5.41745 23.0391C5.41745 23.4506 5.47635 23.8621 5.5941 24.2736C5.653 24.4499 5.77075 24.5675 5.88855 24.5675C6.06519 24.6263 6.30074 24.6263 6.53628 24.6263C7.71396 24.6851 8.95059 24.7439 10.1283 24.8614C10.4816 24.8614 10.8349 24.9202 11.1882 24.9202C11.8948 24.979 12.3659 25.3905 12.6015 25.9784C12.7192 26.1548 12.7781 26.3899 12.7781 26.625C12.837 27.448 12.837 28.271 12.5426 29.094C12.4248 29.3879 12.307 29.6231 12.0715 29.7995C11.9537 29.917 11.7771 29.9758 11.6004 29.9758C10.2461 30.1521 8.83279 30.0934 7.47842 30.0934C6.71293 30.0346 5.94744 29.9758 5.24081 29.9758C4.8286 29.9758 4.4164 29.9758 4.0042 30.0346C3.35647 30.0346 2.70873 30.0934 2.06099 30.0934C1.70767 30.0934 1.41326 30.0346 1.11883 29.917C0.765516 29.7995 0.588855 29.5055 0.471085 29.2116C0.294429 28.8001 0.235547 28.3886 0.235547 27.9771C0.235547 24.8027 0.235547 21.6282 0.235547 18.395C0.235547 18.1011 0.235547 17.866 0.235547 17.572C0.117776 15.4558 0.117769 13.3983 0.117769 11.282Z" fill="#13ABB0"/>
<path d="M33.2701 24.8614C33.9767 24.8026 34.4478 25.1553 34.7423 25.7432C35.1545 26.6838 35.2134 27.6831 35.0367 28.6825C34.9778 28.9764 34.86 29.3291 34.7423 29.623C34.5656 29.917 34.3301 30.0933 33.9767 30.1521C33.4468 30.2109 32.9168 30.2109 32.3869 30.2109C32.0924 30.2109 31.7391 30.1521 31.4447 30.1521C30.6203 30.2109 29.6781 30.2109 28.8537 30.2109C28.206 30.2697 27.676 30.1521 27.0872 30.2109C25.6739 30.2697 24.3196 30.2697 22.9652 30.3285C22.1408 30.3285 21.3164 30.2697 20.5509 30.2697C20.492 30.2697 20.4331 30.2697 20.3742 30.2697C20.0798 30.0345 19.7265 29.8582 19.491 29.623C19.4321 29.5642 19.3732 29.4467 19.3143 29.3291C19.0787 28.6825 18.961 28.0358 19.0199 27.2716C19.0787 26.0959 19.1376 24.979 19.1965 23.862C19.2554 22.3336 19.3143 20.864 19.3732 19.3356C19.4321 18.7477 19.3732 18.1599 19.4321 17.572C19.5498 16.3375 19.4321 15.103 19.3732 13.8685C19.3732 13.7509 19.3732 13.6334 19.3732 13.5746C19.3143 11.5171 19.2554 9.51838 19.1965 7.46088C19.1965 6.87303 19.2554 6.28517 19.3732 5.69731C19.3732 5.40339 19.4321 5.16821 19.5498 4.93308C19.7265 4.34522 19.9032 3.75736 20.1976 3.22829C20.3742 2.93437 20.6098 2.75801 20.9042 2.64044C21.3164 2.52287 21.7286 2.46408 22.1997 2.46408C22.8474 2.52287 23.4952 2.52287 24.2018 2.52287C25.0262 2.58166 25.9095 2.58166 26.7339 2.69923C27.9116 2.75801 29.1482 2.75801 30.3258 2.69923C31.0325 2.64044 31.7391 2.64044 32.4458 2.64044C32.7402 2.64044 33.0935 2.75801 33.3879 2.8168C33.5645 2.87559 33.8001 2.93437 33.9179 2.99316C34.3301 3.16951 34.5656 3.58101 34.6834 3.99251C34.9189 4.99185 34.9778 5.99119 34.7423 6.99059C34.6834 7.28451 34.5656 7.46088 34.389 7.6372C34.0356 7.93113 33.6234 8.22505 33.2112 8.40142C32.858 8.51898 32.4458 8.46023 32.0924 8.51898C31.9747 8.51898 31.9158 8.51898 31.798 8.51898C31.0325 8.69535 30.267 8.63659 29.5015 8.63659C28.9715 8.63659 28.5004 8.63654 27.9704 8.75415C27.7938 8.81291 27.6171 8.81291 27.4405 8.81291C27.1461 8.87172 26.7928 8.93052 26.4983 8.98928C26.0861 9.04808 25.8506 9.34201 25.8506 9.7535C25.7917 10.2826 25.7917 10.7528 25.7917 11.2819C25.7917 11.3995 25.7917 11.5171 25.7917 11.6346C25.8506 12.0461 26.0272 12.2813 26.4394 12.3989C26.5572 12.4577 26.675 12.4577 26.8517 12.4577C27.2639 12.4577 27.7349 12.3989 28.1471 12.3989C28.3238 12.3989 28.4415 12.3989 28.6182 12.3989C29.4426 12.4577 30.267 12.3989 31.0325 12.4577C31.798 12.4577 32.3869 12.9867 32.5635 13.6921C32.6224 13.9861 32.6224 14.2212 32.7402 14.5152C32.7991 14.8091 32.7991 15.103 32.7991 15.3969C32.7991 16.0435 32.5635 16.455 32.0924 16.8078C31.7391 17.1017 31.3269 17.2193 30.9147 17.2193C30.5614 17.2193 30.2081 17.2781 29.8548 17.2781C29.7959 17.3368 29.6781 17.3368 29.6193 17.3368C28.9715 17.3956 28.3238 17.4544 27.676 17.5132C27.2639 17.572 26.8517 17.6308 26.4394 17.6896C26.0861 17.7484 25.9684 17.9247 25.9095 18.2186C25.7328 18.8653 25.7917 19.5119 25.7328 20.2173C25.615 21.1579 25.615 22.0985 25.6739 23.0978C25.6739 23.3917 25.7328 23.7445 25.7917 24.0384C25.8506 24.5675 26.2039 24.8026 26.675 24.8614C27.0872 24.9202 27.4405 24.9202 27.8527 24.9202C28.3826 24.9202 28.7948 24.9202 29.3248 24.9202V24.979C30.6203 24.979 31.9747 24.9202 33.2701 24.8614Z" fill="#13ABB0"/>
<path d="M51.3484 2.64047C51.7017 2.58168 52.055 2.69925 52.3495 2.9344C52.7028 3.16954 53.0561 3.46346 53.2917 3.75739C53.3505 3.87496 53.4681 3.93375 53.4681 4.05132C53.7038 4.63917 53.8802 5.22703 53.9983 5.87369C54.0571 6.34399 54.2335 6.81423 54.3516 7.28453C54.528 7.93119 54.6461 8.51904 54.7637 9.16566C54.8225 9.22446 54.8225 9.28322 54.8225 9.34202C54.7637 9.87107 54.9994 10.4002 55.117 10.8705C55.3527 11.6347 55.5291 12.3989 55.7648 13.2219C55.8236 13.457 55.8824 13.6334 55.9412 13.8685C56.1181 14.5152 56.2357 15.103 56.4126 15.7496C56.7071 16.8666 57.0604 17.9835 57.3549 19.1005C57.767 20.6289 58.1203 22.1573 58.4736 23.6857C58.7093 24.5675 59.0033 25.4493 59.239 26.2723C59.4158 26.8014 59.5334 27.3304 59.651 27.8595C59.7098 28.271 59.5922 28.6237 59.4746 29.0352C59.2389 29.6819 58.7093 29.8582 58.1791 30.0346C57.1192 30.3285 55.9412 30.3873 54.8813 30.0933C54.8225 30.0346 54.7637 30.0346 54.7637 30.0346C54.4692 29.7407 54.1159 29.5055 53.8802 29.2116C53.5857 28.9176 53.4093 28.4474 53.3505 28.0359C53.2917 27.6244 53.0561 27.2717 52.644 27.1541C52.5259 27.1541 52.4083 27.0953 52.2907 27.0953C51.2308 27.0365 50.1116 27.0365 49.0518 27.0365C48.8751 27.0365 48.6396 26.9777 48.404 26.9777C48.0507 26.9189 47.7563 27.0365 47.5796 27.3304C47.403 27.6244 47.2264 27.9183 47.1675 28.1534C46.9908 28.8001 46.6375 29.2116 46.1075 29.5643C45.9309 29.6819 45.8131 29.7994 45.6364 29.8582C45.2831 30.0345 44.9298 30.1522 44.5176 30.1522C43.6932 30.2109 42.9277 30.0345 42.1622 29.8582C41.8677 29.7994 41.5144 29.6231 41.22 29.4467C40.9256 29.3291 40.8667 29.0352 40.8667 28.8001C40.8078 28.271 40.8078 27.8007 41.0434 27.2716C41.22 26.625 41.4555 25.9784 41.6322 25.3317C41.8089 24.6851 41.9266 24.0384 42.1033 23.333C42.3388 22.3925 42.5155 21.3931 42.751 20.4525C43.0455 19.2768 43.3988 18.1011 43.6932 16.9254C43.8699 16.1612 44.0465 15.5145 44.2232 14.8091C44.3998 14.0449 44.6354 13.3983 44.812 12.6928C44.9887 12.1637 45.1065 11.7523 45.2242 11.2232C45.5187 10.1651 45.872 9.16566 46.1664 8.10755C46.3431 7.5197 46.402 6.93179 46.5786 6.28518C46.8142 5.52096 46.9908 4.75675 47.3441 4.05132C47.6385 3.40468 48.2274 2.99318 48.9929 2.81683C49.0518 2.81683 49.1107 2.81683 49.1696 2.81683C49.6995 2.58168 50.1704 2.64047 50.7006 2.64047C50.8182 2.64047 51.0539 2.64047 51.3484 2.64047ZM50.9363 20.041C51.5248 20.041 51.8193 19.6883 51.7017 19.1005C51.6429 18.8653 51.5841 18.689 51.5248 18.4538C51.3484 17.9835 51.2308 17.5133 51.1127 17.043C50.9951 16.4551 50.9363 15.926 50.8182 15.3382C50.7594 15.2794 50.7594 15.1618 50.7594 15.103C50.7006 14.9267 50.583 14.9267 50.4649 15.103C50.4061 15.1618 50.4061 15.3381 50.3473 15.4557C50.1704 16.2787 49.8171 17.1605 49.6995 18.0423C49.6995 18.2187 49.6407 18.3362 49.5819 18.4538C49.5231 18.689 49.4051 18.9829 49.2873 19.218C49.1696 19.6295 49.2285 19.8059 49.6407 19.8647C50.0528 19.9234 50.4649 19.9822 50.8182 20.041C50.8775 20.041 50.877 20.041 50.9363 20.041Z" fill="#13ABB0"/>
<path d="M71.193 28.6237C71.193 29.2703 70.8985 29.7994 70.4276 30.2696C70.0743 30.5636 69.6617 30.7988 69.1321 30.7988C68.72 30.8575 68.3667 30.8575 67.9541 30.7988C67.2475 30.7399 66.659 30.5048 66.1876 29.9757C65.8931 29.6818 65.7167 29.2703 65.7167 28.8588C65.6579 27.9182 65.6579 26.9189 65.6579 25.9783C65.5991 24.4499 65.5991 22.8627 65.5398 21.2755C65.481 19.2768 65.4222 17.3369 65.3634 15.3969C65.3046 13.9273 65.2453 12.4577 65.1865 10.988C65.1865 9.98867 65.1865 8.98932 65.2453 7.98993C65.3046 7.10819 65.4222 6.22636 65.5398 5.40338C65.5398 5.34458 65.5398 5.34458 65.5398 5.28582C65.7755 4.69796 66.0112 4.16888 66.4821 3.75738C66.7766 3.46346 67.1299 3.3459 67.4244 3.40468C67.9541 3.46347 68.4843 3.34589 68.9552 3.34589C69.2497 3.2871 69.4853 3.34589 69.721 3.34589C70.7809 3.34589 71.782 3.40468 72.7831 3.40468C73.843 3.40468 74.9617 3.34589 76.0215 3.34589C76.4336 3.34589 76.8462 3.40468 77.2583 3.52225C78.6715 3.99253 79.6726 4.99189 80.438 6.22641C80.6148 6.52034 80.7324 6.81426 80.85 7.10819C81.4978 8.75415 81.8511 10.4589 81.8511 12.2813C81.8511 12.9867 81.8511 13.6334 81.8511 14.3388C81.7923 15.4557 81.4978 16.5726 81.1445 17.572C80.9681 18.2774 80.5556 18.8653 80.2023 19.4531C80.1435 19.5707 80.0259 19.6883 79.9083 19.8059C79.3193 20.3349 79.2012 21.0403 79.6138 21.687C79.7902 22.0985 79.9671 22.4512 80.1435 22.8039C80.3792 23.333 80.6148 23.862 80.85 24.3911C80.85 24.4499 80.9088 24.5675 80.9088 24.5675C81.1445 25.2729 81.439 25.9195 81.7335 26.5662C81.9099 26.8601 81.9099 27.2128 82.028 27.5067C82.0868 27.9182 82.1456 28.271 82.2044 28.6824C82.2632 29.2115 81.9099 29.623 81.5566 29.9757C81.2626 30.2697 80.9088 30.2696 80.5556 30.2696C80.3792 30.2696 80.1435 30.3285 79.9083 30.3285C79.5545 30.3285 79.1424 30.3873 78.8479 30.3285C78.3182 30.2697 77.7292 30.1521 77.1995 29.8582C76.8462 29.623 76.4924 29.3291 76.316 28.9176C76.1391 28.5061 76.0215 28.1534 75.8451 27.8007C75.6094 27.3892 75.3149 26.9777 75.0793 26.5662C74.726 25.9783 74.3727 25.3905 74.1375 24.7438C74.0782 24.5675 73.9606 24.4499 73.9606 24.3323C73.843 24.0384 73.6661 23.8032 73.6073 23.5094C73.4309 22.9803 73.0771 22.6863 72.5474 22.7451C72.3117 22.7451 72.0172 22.8039 71.782 22.7451C71.5463 22.7451 71.3694 22.8627 71.3106 23.0978C71.193 23.4506 71.1342 23.862 71.1342 24.2148C71.1342 24.9202 71.193 25.6256 71.193 26.331C71.193 27.154 71.193 27.8595 71.193 28.6237ZM71.2518 13.3394C71.193 14.2212 71.193 15.103 71.193 16.0435C71.193 16.2787 71.193 16.5138 71.193 16.749C71.193 17.3956 71.6051 17.7484 72.1941 17.7484C72.4298 17.7484 72.7238 17.7484 72.9595 17.7484C73.0183 17.7484 73.1364 17.7484 73.254 17.6896C73.6661 17.5132 74.1375 17.4544 74.5496 17.2193C74.9617 17.0429 75.1973 16.8078 75.4918 16.5138C75.8451 16.1023 76.1391 15.5733 76.2572 14.9854C76.4336 14.1624 76.316 13.2219 76.316 12.3988C76.316 12.1049 76.2572 11.7522 76.2572 11.4583C76.1984 11.0468 76.0215 10.6941 75.9039 10.2826C75.727 9.87111 75.4918 9.51837 75.2561 9.22445C74.7848 8.69539 74.1963 8.40147 73.4897 8.40147C73.254 8.40147 72.9595 8.40147 72.7238 8.40147C72.3117 8.46022 71.9584 8.57778 71.6639 8.81296C71.3106 9.10688 71.193 9.45957 71.1342 9.92986C71.193 11.1644 71.193 12.2225 71.2518 13.3394Z" fill="#13ABB0"/>
<path d="M94.6294 28.0946C94.6294 28.5649 94.4525 29.0352 94.2173 29.4467C94.158 29.623 94.0404 29.7406 93.8047 29.7406C93.3926 29.7994 92.9806 29.917 92.5685 30.0345C91.9207 30.1521 91.3317 30.0345 90.6839 29.9757C89.9773 29.8582 89.5064 29.2703 89.5064 28.5649C89.4476 27.0953 89.4476 25.6844 89.3883 24.2148C89.3883 23.6269 89.3295 23.0978 89.3295 22.51C89.3295 22.216 89.2707 21.9809 89.2707 21.7458C89.2707 19.5119 89.2707 17.3369 89.2707 15.103C89.2707 12.8691 89.2119 10.5765 89.2119 8.34266C89.2119 7.81361 89.2707 7.28451 89.3295 6.75546C89.3883 6.22636 89.4476 5.69731 89.5064 5.22702C89.5652 4.69795 89.7416 4.16889 89.9185 3.6986C90.213 3.16953 90.5663 2.81682 91.1553 2.75803C91.2141 2.69924 91.3317 2.69925 91.4493 2.69925C92.2152 2.75804 92.9806 2.87561 93.6871 3.28711C94.158 3.52225 94.5113 3.87496 94.747 4.34524C95.2179 5.22702 95.6893 6.1088 96.1014 6.93183C96.5135 7.696 96.8668 8.46022 97.1613 9.16564C97.4558 9.69474 97.6915 10.2238 97.986 10.8116C98.2212 11.2819 98.4569 11.7522 98.6926 12.1637C99.1635 13.1043 99.6343 14.0449 100.165 15.0442C100.4 15.5145 100.695 15.9848 100.93 16.4551C100.989 16.5138 101.107 16.6314 101.224 16.6902C101.46 16.749 101.637 16.6902 101.755 16.4551C101.931 16.2199 101.99 15.926 101.931 15.6321C101.872 14.28 101.813 12.928 101.755 11.5759C101.695 10.8116 101.695 10.0474 101.695 9.22445C101.637 8.1663 101.637 7.10815 101.578 6.05004C101.578 5.63851 101.637 5.28582 101.637 4.9331C101.755 4.34524 101.99 3.75739 102.343 3.28711C102.638 2.87561 102.991 2.64047 103.462 2.69925C103.58 2.69925 103.639 2.69925 103.757 2.64046C104.581 2.58168 105.288 2.69924 105.994 3.16953C106.524 3.58103 106.819 4.1101 106.819 4.81553C106.878 6.93183 106.878 8.98932 106.878 11.1056C106.878 11.3995 106.936 11.6934 106.936 11.9286C106.995 13.3394 106.995 14.8091 107.113 16.1612C107.172 17.5132 107.231 18.8065 107.29 20.1585C107.29 20.57 107.29 20.9228 107.349 21.2755C107.407 22.9215 107.407 24.5675 107.466 26.2135C107.466 26.7426 107.525 27.1541 107.525 27.6244C107.525 28.271 107.407 28.8001 107.231 29.3879C107.172 29.623 106.995 29.6819 106.819 29.7994C105.935 30.2109 104.993 30.1521 104.051 29.8582C103.757 29.7406 103.462 29.5642 103.227 29.3291C102.932 28.9764 102.579 28.6825 102.284 28.3298C101.755 27.6831 101.224 27.1541 100.812 26.4486C100.4 25.802 100.047 25.2141 99.6343 24.5675C99.1635 23.7445 98.5745 22.9215 98.0448 22.0397C97.2201 20.7464 96.2783 19.3944 95.4536 18.0423C95.336 17.8659 95.1591 17.7484 94.9239 17.7484C94.6882 17.8072 94.5706 17.8659 94.5113 18.101C94.4525 18.2774 94.4525 18.395 94.4525 18.5126C94.4525 20.0998 94.5113 21.687 94.5113 23.2742C94.5706 23.2742 94.5706 23.2742 94.5706 23.2742C94.6294 24.9202 94.6294 26.5074 94.6294 28.0946Z" fill="#13ABB0"/>
<path d="M119.066 9.69472C119.125 10.6353 119.125 11.5758 119.125 12.5164C119.125 14.3976 119.125 16.2787 119.125 18.1598C119.066 19.6295 119.007 21.0991 118.948 22.6275C118.89 23.4505 118.89 24.2735 118.89 25.1553C118.831 25.9195 118.831 26.6837 118.772 27.448C118.713 27.8006 118.713 28.2121 118.654 28.5061C118.654 28.6824 118.595 28.9176 118.477 29.1527C118.419 29.3291 118.301 29.5055 118.183 29.6818C117.888 30.1521 117.418 30.3284 116.887 30.3284C116.652 30.3284 116.357 30.3872 116.122 30.3284C115.592 30.3284 115.062 30.2696 114.709 29.8581C114.532 29.6818 114.296 29.3879 114.179 29.0939C113.884 28.5649 113.884 28.0358 113.884 27.448C113.943 26.0959 114.002 24.8026 114.061 23.4505C114.061 22.8039 114.12 22.1573 114.12 21.5106C114.12 19.2767 114.12 17.0429 114.12 14.8678C114.12 13.8097 114.061 12.7516 114.002 11.7522C113.884 9.87109 113.825 7.98991 113.943 6.10878C113.943 5.57973 114.002 5.05063 114.061 4.52158C114.12 3.99251 114.414 3.52223 114.709 3.05194C114.885 2.75801 115.121 2.64044 115.474 2.64044C116.24 2.69923 117.005 2.69923 117.83 2.69923C118.124 2.69923 118.359 2.87559 118.477 3.11073C118.772 3.58102 118.89 4.0513 118.89 4.58037C118.948 5.3446 118.89 6.10878 118.89 7.16693C118.948 7.87235 119.066 8.75413 119.066 9.69472Z" fill="#13ABB0"/>
<path d="M130.667 28.0946C130.667 28.5649 130.49 29.0352 130.254 29.4467C130.196 29.623 130.078 29.7406 129.842 29.7406C129.43 29.7994 129.018 29.917 128.606 30.0345C127.958 30.1521 127.369 30.0345 126.721 29.9757C126.015 29.8582 125.544 29.2703 125.544 28.5649C125.485 27.0953 125.485 25.6844 125.426 24.2148C125.426 23.6269 125.367 23.0978 125.367 22.51C125.367 22.216 125.308 21.9809 125.308 21.7458C125.308 19.5119 125.308 17.3369 125.308 15.103C125.308 12.8691 125.25 10.5765 125.25 8.34266C125.25 7.81361 125.308 7.28451 125.367 6.75546C125.426 6.22636 125.485 5.69731 125.544 5.22702C125.603 4.69795 125.779 4.16889 125.956 3.6986C126.251 3.16953 126.604 2.81682 127.192 2.75803C127.252 2.69924 127.369 2.69925 127.487 2.69925C128.253 2.75804 129.018 2.87561 129.725 3.28711C130.196 3.52225 130.549 3.87496 130.785 4.34524C131.256 5.22702 131.727 6.1088 132.139 6.93183C132.551 7.696 132.904 8.46022 133.199 9.16564C133.493 9.69474 133.729 10.2238 134.023 10.8116C134.259 11.2819 134.494 11.7522 134.73 12.1637C135.201 13.1043 135.672 14.0449 136.202 15.0442C136.438 15.5145 136.732 15.9848 136.968 16.4551C137.026 16.5138 137.144 16.6314 137.262 16.6902C137.498 16.749 137.674 16.6902 137.792 16.4551C137.969 16.2199 138.027 15.926 137.969 15.6321C137.91 14.28 137.851 12.928 137.792 11.5759C137.733 10.8116 137.733 10.0474 137.733 9.22445C137.674 8.1663 137.674 7.10815 137.615 6.05004C137.615 5.63851 137.674 5.28582 137.674 4.9331C137.792 4.34524 138.027 3.75739 138.381 3.28711C138.675 2.87561 139.029 2.64047 139.5 2.69925C139.617 2.69925 139.676 2.69925 139.794 2.64046C140.619 2.58168 141.325 2.69924 142.032 3.16953C142.562 3.58103 142.856 4.1101 142.856 4.81553C142.915 6.93183 142.915 8.98932 142.915 11.1056C142.915 11.3995 142.974 11.6934 142.974 11.9286C143.033 13.3394 143.033 14.8091 143.15 16.1612C143.209 17.5132 143.269 18.8065 143.327 20.1585C143.327 20.57 143.327 20.9228 143.386 21.2755C143.445 22.9215 143.445 24.5675 143.504 26.2135C143.504 26.7426 143.563 27.1541 143.563 27.6244C143.563 28.271 143.445 28.8001 143.269 29.3879C143.209 29.623 143.033 29.6819 142.856 29.7994C141.973 30.2109 141.031 30.1521 140.088 29.8582C139.794 29.7406 139.5 29.5642 139.264 29.3291C138.97 28.9764 138.616 28.6825 138.322 28.3298C137.792 27.6831 137.262 27.1541 136.85 26.4486C136.438 25.802 136.085 25.2141 135.672 24.5675C135.201 23.7445 134.612 22.9215 134.082 22.0397C133.258 20.7464 132.315 19.3944 131.491 18.0423C131.374 17.8659 131.197 17.7484 130.961 17.7484C130.726 17.8072 130.608 17.8659 130.549 18.101C130.49 18.2774 130.49 18.395 130.49 18.5126C130.49 20.0998 130.549 21.687 130.549 23.2742C130.608 23.2742 130.608 23.2742 130.608 23.2742C130.667 24.9202 130.667 26.5074 130.667 28.0946Z" fill="#13ABB0"/>
<path d="M165.586 15.8672C165.88 15.8084 166.233 15.8672 166.587 15.926C166.881 15.9848 167.116 16.1023 167.293 16.3963C167.705 16.9841 167.823 17.572 167.882 18.2186C167.941 19.5707 167.941 20.864 168 22.2748C168 23.2742 167.941 24.2735 167.882 25.2729C167.882 25.4492 167.823 25.6844 167.823 25.8608C167.823 26.2723 167.823 26.6249 167.823 27.0365C167.823 27.6831 167.823 28.3298 167.764 29.0352C167.705 29.5642 167.47 30.0933 167.057 30.5048C166.881 30.6812 166.763 30.7399 166.528 30.7399C165.939 30.7987 165.35 30.8576 164.761 30.7987C164.29 30.7399 163.878 30.6812 163.407 30.6224C162.994 30.5636 162.759 30.2697 162.582 29.9758C162.523 29.917 162.523 29.7994 162.523 29.6818C162.465 29.3879 162.229 29.2115 161.876 29.3879C161.876 29.4467 161.817 29.4467 161.817 29.4467C161.169 29.9758 160.521 30.0933 159.756 30.3285C159.638 30.3873 159.52 30.3873 159.403 30.446C158.46 30.7399 157.459 30.8576 156.458 30.6224C156.223 30.5636 155.987 30.5636 155.752 30.5048C154.868 30.2697 154.044 29.7994 153.337 29.1527C153.102 28.9176 152.866 28.7413 152.572 28.5061C151.571 27.6831 150.982 26.5074 150.57 25.2729C150.275 24.2148 150.04 23.0978 149.922 22.0397C149.804 21.2755 149.745 20.5113 149.745 19.6883C149.745 18.5126 149.804 17.3369 149.804 16.1612C149.804 15.5733 149.863 14.9854 149.863 14.3976C149.863 13.5746 149.981 12.7516 150.158 11.9286C150.452 10.2826 150.982 8.69539 151.688 7.16695C152.101 6.22636 152.69 5.40338 153.514 4.75674C153.926 4.40403 154.456 4.1101 154.927 3.81617C155.221 3.63981 155.457 3.52224 155.752 3.34589C156.458 2.93439 157.283 2.69924 158.048 2.4641C158.225 2.40532 158.343 2.34653 158.46 2.28774C159.285 1.99381 160.168 1.93503 161.052 1.99381C161.876 2.0526 162.759 2.28775 163.583 2.52289C163.701 2.58167 163.76 2.58167 163.878 2.64046C164.29 2.81682 164.702 3.05196 165.115 3.28711C165.409 3.46346 165.644 3.6986 165.88 3.93374C166.056 4.1101 166.175 4.28646 166.292 4.46282C166.587 4.75674 166.763 5.16825 166.94 5.52094C167.352 6.34397 167.47 7.22575 167.47 8.04873C167.529 8.28385 167.47 8.57778 167.529 8.81295C167.588 9.45956 167.411 9.98866 167.176 10.5765C166.999 11.2231 166.528 11.5171 165.88 11.5759C165.232 11.6347 164.584 11.5171 163.937 11.2819C163.583 11.2231 163.289 10.988 163.112 10.6353C163.053 10.459 162.936 10.3413 162.877 10.2238C162.7 9.92986 162.582 9.69474 162.582 9.40081C162.523 9.04808 162.406 8.75415 162.288 8.46022C162.111 8.16629 161.876 7.98997 161.522 7.98997C160.875 7.93117 160.227 7.93117 159.638 7.98997C158.991 8.10753 158.402 8.28385 157.871 8.81295C156.988 9.75349 156.341 10.8116 155.987 12.0462C155.693 12.9867 155.516 14.0449 155.457 15.0442C155.457 15.6909 155.34 16.2787 155.281 16.9253C155.221 17.3369 155.221 17.7484 155.281 18.101C155.281 18.1598 155.281 18.2186 155.281 18.2774C155.281 18.9241 155.281 19.5707 155.34 20.1585C155.34 20.3937 155.34 20.6288 155.398 20.864C155.575 21.5694 155.693 22.216 155.929 22.9215C156.105 23.4505 156.341 23.9796 156.753 24.4499C156.929 24.6263 157.165 24.8026 157.4 24.8614C158.048 25.0377 158.696 25.1553 159.403 25.1553C159.815 25.0966 160.227 25.0966 160.639 24.9202C160.698 24.8614 160.757 24.8614 160.816 24.8614C161.405 24.8026 161.758 24.4499 162.111 24.0384C162.17 23.9796 162.17 23.9208 162.229 23.862C162.406 23.333 162.523 22.8039 162.406 22.216C162.347 21.8045 162.111 21.5694 161.699 21.5106C161.405 21.4519 161.052 21.4519 160.757 21.3342C160.227 21.1579 159.874 20.6876 159.638 20.1585C159.403 19.5119 159.52 18.8065 159.697 18.1598C159.815 17.6895 159.991 17.2781 160.345 16.9253C160.639 16.6314 161.052 16.3963 161.522 16.2787C162.053 16.1612 162.582 16.2787 163.112 16.2199C163.937 15.926 164.761 15.8672 165.586 15.8672Z" fill="#13ABB0"/>
<path d="M90.3303 56.5469C90.3303 57.8399 90.3303 59.1921 90.3303 60.4857C90.3891 62.4255 90.3891 64.424 90.4483 66.3642C90.4483 66.717 90.3891 67.1284 90.2715 67.4224C90.0951 67.9513 89.7418 68.304 89.1528 68.3627C88.8583 68.4214 88.6226 68.4214 88.3281 68.4214C88.0341 68.3627 87.7984 68.4214 87.5627 68.4214C87.2094 68.4801 86.8561 68.4801 86.5028 68.4801C86.0319 68.4801 85.6786 68.304 85.4429 67.8339C85.2072 67.3045 85.0308 66.7757 85.0308 66.1289C85.0308 63.6011 84.972 61.1319 84.972 58.6633C84.972 57.4872 84.972 56.2529 84.972 55.0773C84.972 54.7832 84.9127 54.6658 84.6775 54.5479C84.5006 54.4892 84.383 54.4892 84.3242 54.6658C84.1474 54.9598 84.0298 55.2534 83.8529 55.5474C83.4408 56.4295 83.0287 57.3111 82.5573 58.1927C82.3221 58.722 82.0864 59.2509 81.7919 59.7802C81.6155 60.1916 81.3798 60.6031 81.0853 60.9558C80.8496 61.2498 80.2611 61.2498 80.0254 60.9558C79.7309 60.6031 79.5545 60.1916 79.3776 59.8389C79.0243 59.1334 78.671 58.428 78.3177 57.7225C77.9645 56.9583 77.6112 56.1942 77.2579 55.4887C77.081 55.1947 76.9634 54.8419 76.7277 54.6658C76.6101 54.6071 76.4925 54.4892 76.3744 54.5479C76.198 54.6071 76.198 54.7245 76.198 54.8419C76.1392 55.0773 76.1392 55.3126 76.1392 55.6061C76.1392 58.8394 76.0799 62.1314 76.0799 65.3647C76.0211 65.8349 76.0211 66.2463 76.0211 66.6578C75.9623 67.0697 75.9035 67.4224 75.7266 67.716C75.5502 68.2453 75.02 68.4801 74.5491 68.4801C74.137 68.4801 73.7244 68.4214 73.3711 68.4214C73.1947 68.3627 72.959 68.3627 72.7238 68.4214C72.3112 68.4801 71.8992 68.3627 71.4283 68.1866C71.0162 68.0687 70.7217 67.7752 70.486 67.4224C70.3091 67.2458 70.3091 66.8931 70.3091 66.6578C70.3091 64.8946 70.3091 63.1896 70.3684 61.4847C70.486 59.3688 70.5448 57.2524 70.4272 55.1947C70.3684 53.2549 70.3684 51.2564 70.3684 49.3748C70.4272 48.552 70.486 47.729 70.486 46.906C70.5448 45.7303 70.486 44.4958 70.5448 43.3201C70.5448 42.7323 70.6036 42.1444 70.8393 41.6741C71.075 41.145 71.4283 40.9099 71.9579 40.8511C72.7238 40.7923 73.4892 40.7335 74.3134 40.6748C74.4903 40.6748 74.6079 40.6748 74.7255 40.6748C75.1381 40.616 75.4914 40.7923 75.7859 40.9099C75.9623 41.0275 76.0799 41.145 76.198 41.3214C76.4925 42.0268 76.7865 42.7322 77.081 43.4377C77.4936 44.5546 77.9057 45.6715 78.4946 46.7297C78.9655 47.6702 79.4364 48.552 79.9078 49.4927C79.9666 49.5514 79.9666 49.6101 79.9666 49.6688C80.2611 50.0803 80.6732 50.0803 80.9089 49.6688C80.9089 49.6688 80.9677 49.6688 80.9677 49.6101C81.7331 48.0817 82.6166 46.5533 83.2644 44.9073C83.6177 44.0255 83.971 43.1438 84.3242 42.262C84.383 41.968 84.5006 41.7329 84.6775 41.4977C84.9127 41.0863 85.266 40.7923 85.7962 40.7335C86.6797 40.5572 87.5627 40.616 88.4462 40.7923C89.094 40.9099 89.6237 41.2038 89.8594 41.8505C89.977 42.1444 90.0358 42.3795 90.0951 42.6735C90.3303 44.3195 90.3303 46.0242 90.3303 47.6702C90.2715 49.0811 90.2715 50.433 90.2715 51.8439C90.2715 52.5494 90.2127 53.2549 90.2127 53.9603C90.2127 54.5479 90.1539 55.136 90.1539 55.724C90.3303 56.0767 90.3303 56.3116 90.3303 56.5469Z" fill="#13ABB0"/>
<path d="M114.826 59.0747C114.65 60.015 114.414 60.8971 114.061 61.7199C113.885 62.1314 113.767 62.4841 113.59 62.8955C113.296 63.5423 112.825 64.0712 112.412 64.6592C112.118 65.1881 111.764 65.6 111.352 66.0701C110.704 66.8343 109.998 67.4811 109.115 67.8925C108.467 68.1866 107.819 68.4214 107.113 68.5393C106.818 68.598 106.465 68.598 106.17 68.6567C106.112 68.6567 105.994 68.6567 105.876 68.6567C105.287 68.598 104.698 68.4801 104.109 68.4214C103.639 68.304 103.167 68.1866 102.696 68.0099C102.284 67.8338 101.872 67.6572 101.46 67.3632C101.106 67.1871 100.812 66.8343 100.458 66.599C100.4 66.5403 100.341 66.4816 100.282 66.4229C99.5162 65.8935 99.0453 65.2473 98.5156 64.4831C97.5733 63.0722 97.1019 61.4846 96.8667 59.7802C96.6898 58.722 96.6898 57.5463 96.8079 56.4294C96.8667 55.8414 96.8079 55.2533 96.8667 54.6658C96.8667 53.725 96.9843 52.726 97.1612 51.7852C97.22 51.315 97.2788 50.8444 97.3376 50.3743C97.5145 49.3748 97.6321 48.3756 97.9266 47.3763C98.4563 45.9654 98.9865 44.6133 100.164 43.5552C100.93 42.791 101.695 42.0856 102.638 41.5565C103.403 41.145 104.109 40.851 104.993 40.7335C105.758 40.6747 106.524 40.5571 107.348 40.6159C107.937 40.6747 108.526 40.7335 109.115 40.9098C109.88 41.2038 110.646 41.6153 111.352 42.0268C111.882 42.3207 112.295 42.791 112.648 43.3201C113.237 44.0842 113.649 44.966 113.943 45.8478C114.297 46.906 114.591 47.9053 114.886 48.9635C115.298 50.3743 115.474 51.4912 115.415 53.1961C115.415 55.2533 115.239 57.1936 114.826 59.0747ZM109.35 52.6081C109.291 51.4325 109.115 50.1394 108.644 49.0223C108.349 48.3756 108.114 47.7878 107.642 47.2587C107.466 47.0823 107.289 46.906 106.995 46.8472C106.701 46.7884 106.406 46.6708 106.112 46.6708C105.581 46.612 105.052 46.6708 104.698 47.0823C104.051 47.729 103.52 48.3756 103.05 49.1986C102.225 50.727 101.872 52.4319 101.813 54.1364C101.754 55.7827 101.813 57.3697 102.107 58.9568C102.225 59.6035 102.343 60.2503 102.638 60.8383C102.932 61.3672 103.285 61.8373 103.815 62.1901C104.286 62.4841 104.757 62.7194 105.287 62.8368C105.935 63.0722 106.465 62.8955 107.054 62.6015C107.584 62.308 107.996 61.7786 108.231 61.1911C108.644 60.309 108.997 59.3095 109.115 58.3105C109.291 56.9583 109.409 55.6061 109.409 54.2543C109.409 53.6663 109.409 53.1374 109.35 52.6081Z" fill="#13ABB0"/>
<path d="M127.133 51.2559C127.133 51.3151 127.193 51.3738 127.193 51.4325C127.251 53.8429 127.428 56.3115 127.428 58.7807C127.369 59.7802 127.428 60.8384 127.428 61.8374C127.428 61.9553 127.428 62.0727 127.428 62.1901C127.487 62.7194 127.899 63.0722 128.429 63.013C129.254 62.9543 130.019 63.0722 130.843 63.1309C131.373 63.1896 131.844 63.1896 132.375 63.1896C132.551 63.1896 132.787 63.1896 133.022 63.2483C133.611 63.307 134.023 63.601 134.2 64.1891C134.494 65.012 134.494 65.8348 134.377 66.6577C134.2 67.3045 133.847 67.7159 133.317 68.0687C133.14 68.1274 132.904 68.1866 132.728 68.1866C132.08 68.1866 131.491 68.1866 130.843 68.2453C129.666 68.304 128.429 68.304 127.251 68.3627C126.25 68.4214 125.249 68.4214 124.189 68.4801C124.013 68.4801 123.777 68.4801 123.542 68.4214C123.365 68.3627 123.13 68.304 123.011 68.1866C122.423 67.6572 122.128 67.0105 122.128 66.1876C122.07 64.2478 122.01 62.3667 121.952 60.4264C121.893 58.4279 121.893 56.4881 121.893 54.5479C121.834 51.6678 121.834 48.7283 121.834 45.7302C121.834 45.5539 121.834 45.3187 121.893 45.0836C122.07 44.3194 122.07 43.614 122.364 42.9086C122.482 42.4971 122.658 42.1443 122.953 41.9092C123.424 41.4977 123.954 41.3801 124.484 41.2625C124.602 41.2625 124.719 41.2625 124.837 41.2625C125.249 41.145 125.603 41.3214 125.956 41.5565C126.074 41.6153 126.192 41.7916 126.25 41.968C126.368 42.3207 126.486 42.6734 126.545 43.0261C126.721 43.614 126.78 44.2018 126.898 44.8484C126.957 45.0248 126.957 45.2012 126.957 45.3775C127.016 46.1418 127.016 46.9059 127.016 47.4938C127.016 48.9047 127.016 50.0802 127.133 51.2559Z" fill="#13ABB0"/>
<path d="M154.575 63.2482C155.281 63.1895 155.752 63.5423 156.047 64.1303C156.459 65.0706 156.518 66.0701 156.341 67.0696C156.283 67.3631 156.164 67.7159 156.047 68.0099C155.87 68.3039 155.635 68.48 155.281 68.5392C154.751 68.598 154.222 68.598 153.691 68.598C153.397 68.598 153.044 68.5392 152.749 68.5392C151.925 68.598 150.983 68.598 150.158 68.598C149.511 68.6567 148.98 68.5392 148.392 68.598C146.978 68.6567 145.624 68.6567 144.27 68.7154C143.445 68.7154 142.621 68.6567 141.855 68.6567C141.797 68.6567 141.738 68.6567 141.679 68.6567C141.384 68.4213 141.031 68.2452 140.795 68.0099C140.737 67.9512 140.678 67.8338 140.619 67.7159C140.383 67.0696 140.266 66.4228 140.325 65.6587C140.383 64.4826 140.442 63.3657 140.501 62.2488C140.56 60.7204 140.619 59.2508 140.678 57.7224C140.737 57.1344 140.678 56.5468 140.737 55.9588C140.854 54.7244 140.737 53.4901 140.678 52.2553C140.678 52.1379 140.678 52.0205 140.678 51.9613C140.619 49.9041 140.56 47.9053 140.501 45.8478C140.501 45.2599 140.56 44.6721 140.678 44.0842C140.678 43.7903 140.737 43.5551 140.854 43.32C141.031 42.7321 141.208 42.1443 141.502 41.6152C141.679 41.3213 141.915 41.1449 142.209 41.0273C142.621 40.9098 143.033 40.851 143.504 40.851C144.152 40.9098 144.8 40.9098 145.506 40.9098C146.331 40.9686 147.214 40.9686 148.039 41.0861C149.216 41.1449 150.453 41.1449 151.63 41.0861C152.337 41.0273 153.044 41.0273 153.75 41.0273C154.045 41.0273 154.398 41.1449 154.692 41.2037C154.869 41.2625 155.105 41.3213 155.223 41.3801C155.635 41.5564 155.87 41.9679 155.988 42.3794C156.224 43.3788 156.283 44.3781 156.047 45.3775C155.988 45.6714 155.87 45.8477 155.694 46.0241C155.34 46.318 154.928 46.612 154.516 46.7883C154.163 46.9059 153.75 46.8471 153.397 46.9059C153.279 46.9059 153.221 46.9059 153.102 46.9059C152.337 47.0823 151.572 47.0235 150.806 47.0235C150.276 47.0235 149.805 47.0235 149.275 47.1411C149.099 47.1998 148.922 47.1998 148.745 47.1998C148.451 47.2586 148.098 47.3174 147.803 47.3762C147.391 47.435 147.155 47.7289 147.155 48.1404C147.096 48.6695 147.096 49.1398 147.096 49.6688C147.096 49.7862 147.096 49.9041 147.096 50.0215C147.155 50.4329 147.332 50.6682 147.744 50.7857C147.862 50.8444 147.979 50.8444 148.156 50.8444C148.568 50.8444 149.039 50.7857 149.452 50.7857C149.628 50.7857 149.746 50.7857 149.923 50.7857C150.747 50.8444 151.572 50.7857 152.337 50.8444C153.102 50.8444 153.691 51.3737 153.868 52.0792C153.927 52.3732 153.927 52.608 154.045 52.9021C154.104 53.1961 154.104 53.4901 154.104 53.7836C154.104 54.4304 153.868 54.8418 153.397 55.1946C153.044 55.4886 152.632 55.606 152.219 55.606C151.866 55.606 151.513 55.6647 151.16 55.6647C151.101 55.7239 150.983 55.7239 150.924 55.7239C150.276 55.7826 149.628 55.8413 148.98 55.9C148.568 55.9588 148.156 56.0175 147.744 56.0767C147.391 56.1354 147.273 56.3115 147.214 56.6055C147.038 57.2523 147.096 57.899 147.038 58.604C146.92 59.5448 146.92 60.4856 146.978 61.4846C146.978 61.7786 147.038 62.1313 147.096 62.4254C147.155 62.9542 147.509 63.1895 147.979 63.2482C148.392 63.3069 148.745 63.307 149.157 63.307C149.687 63.307 150.1 63.307 150.629 63.307V63.3657C151.925 63.3657 153.279 63.3069 154.575 63.2482Z" fill="#13ABB0"/>
<path d="M35.2132 46.6709C34.7422 45.2012 33.3289 44.0255 31.6801 43.4965C29.2069 42.6735 27.0281 43.9079 26.2627 46.3769C25.4383 48.846 25.7327 51.3151 29.0303 52.3145C31.5035 53.0787 34.2122 52.3733 35.2132 48.9635C35.3899 48.3757 35.3899 47.8466 35.331 47.3175C35.2721 47.1412 35.2721 46.906 35.2132 46.6709Z" fill="white"/>
<path d="M35.3901 48.5521C35.2135 48.0818 34.8013 47.7291 34.3302 47.6115C33.5647 47.3764 32.9169 47.7291 32.6814 48.4933C32.4459 49.2575 32.5047 49.9628 33.5058 50.3156C34.2713 50.5509 35.0957 50.3156 35.3901 49.3163C35.449 49.1399 35.449 48.9636 35.449 48.846C35.3901 48.6696 35.3901 48.6109 35.3901 48.5521Z" fill="#171009"/>
<path d="M31.7394 69.0681C48.2604 69.0681 61.6533 65.4101 61.6533 60.8971C61.6533 56.3845 48.2604 52.726 31.7394 52.726C15.2185 52.726 1.82568 56.3845 1.82568 60.8971C1.82568 65.4101 15.2185 69.0681 31.7394 69.0681Z" fill="#514638"/>
<path d="M46.6377 65.6C46.6377 65.6 46.6377 65.6587 46.7555 65.7174C46.6966 65.5413 46.6966 65.4826 46.6377 65.6Z" fill="#EDA38F"/>
<path d="M51.4069 46.1421C50.4063 46.0245 49.464 46.8475 49.2872 48.082C49.1106 49.3165 49.7585 50.3748 50.8184 50.5509C51.8195 50.6683 52.7612 49.8454 52.9381 48.6111C53.1145 47.4354 52.4079 46.3184 51.4069 46.1421Z" fill="#514638"/>
<path d="M33.3291 38.8524C33.7413 39.0876 34.1535 39.3227 34.5657 39.4991C34.9779 39.6755 35.449 39.793 35.8612 39.9106C36.3323 39.9694 36.8033 40.0282 37.2155 39.9694C37.4511 39.9694 37.6866 39.9106 37.9222 39.8518C38.1577 39.793 38.3344 39.7342 38.5699 39.6167V39.5579C38.3344 39.5579 38.0988 39.6167 37.8633 39.6167C37.8044 39.6167 37.7455 39.6167 37.6866 39.6167C37.6277 39.6167 37.5688 39.6167 37.51 39.6167C37.4511 39.6167 37.3922 39.6167 37.3333 39.6167H37.1566C36.9211 39.6167 36.7444 39.6167 36.5089 39.5579C36.3912 39.5579 36.2734 39.5579 36.2145 39.4991C36.0967 39.4991 35.979 39.4403 35.9201 39.4403C35.5079 39.3815 35.0957 39.2639 34.6246 39.1464C34.2124 39.0876 33.8001 38.97 33.3291 38.8524Z" fill="#514638"/>
<path d="M27.9712 40.5574C27.9123 40.5574 27.9123 40.6161 27.8534 40.6161C27.7357 40.6749 27.6768 40.7337 27.559 40.7925C27.3823 40.91 27.2057 40.9688 27.0291 41.0864C26.9113 41.1452 26.8524 41.204 26.7346 41.204C26.6169 41.2628 26.558 41.2628 26.4402 41.3215C26.2636 41.3803 26.028 41.4979 25.8513 41.5567C25.4391 41.6743 25.0269 41.8506 24.6147 41.9682V42.027C25.0858 42.027 25.498 41.9682 25.9691 41.8506C26.3813 41.7331 26.8524 41.6155 27.2646 41.4391C27.4412 41.3215 27.6768 41.204 27.8534 41.0864C28.0301 40.9688 28.2067 40.7925 28.3834 40.6749C28.5601 40.4985 28.6778 40.381 28.8545 40.2046C28.9723 40.0283 29.09 39.8519 29.2078 39.6168H29.1489C28.7956 39.9695 28.5012 40.2046 28.1479 40.4985C28.089 40.5574 28.0301 40.5574 27.9712 40.5574Z" fill="#514638"/>
<path d="M48.4042 47.0237C45.735 45.0555 44.1644 44.6723 44.1644 44.6723L43.7172 45.0555C43.7172 45.0555 42.2801 49.0224 39.8069 48.8461C37.9814 48.7285 36.3915 47.7879 35.7438 46.3183C35.2138 46.2007 34.625 46.4358 34.095 46.7298C33.8595 46.8474 33.6828 46.9649 33.5062 47.0825C33.6239 47.6703 33.6239 48.3758 33.4473 49.0224C32.3873 52.4907 29.6786 53.1961 27.1465 52.4319C23.7901 51.4325 23.4956 48.9049 24.32 46.3771C25.1444 43.8493 27.3232 42.6148 29.8553 43.4378C31.5629 43.9668 32.9173 45.2014 33.4473 46.671C33.6239 46.5534 33.8006 46.4358 34.0361 46.3183C34.5072 46.0831 35.0372 45.848 35.626 45.9068C35.5083 45.4953 35.4494 45.025 35.4494 44.5547C35.5083 43.6729 35.8616 42.7911 36.3327 42.0857C17.4853 38.7598 11.8151 55.2499 11.1796 58.9573C10.544 62.6642 10.8462 66.6937 10.8462 66.6937L12.864 67.1974L13.6207 67.449L24.0845 68.8333C29.973 69.3622 37.0981 69.1269 41.7501 68.6567C40.1602 63.5423 38.8058 61.6025 40.278 59.0747C40.3368 58.9573 38.0992 58.8986 36.8038 58.3692C35.6849 57.8991 35.5671 56.8409 35.6849 56.7822C35.8616 56.7235 36.3916 57.7225 37.6281 58.0165C38.8647 58.3692 40.8079 58.0752 41.279 57.6638C43.8111 54.9598 47.992 51.315 48.4631 50.9623C49.2662 50.0921 48.4042 47.0237 48.4042 47.0237Z" fill="#9B6544"/>
<g filter="url(#filter0_d)">
<path d="M43.8603 46.4331C44.6387 44.3667 43.419 41.9966 41.136 41.1395C38.853 40.2824 36.3712 41.2628 35.5928 43.3292C34.8144 45.3956 36.034 47.7656 38.3171 48.6228C40.6 49.4798 43.0818 48.4995 43.8603 46.4331Z" fill="white"/>
</g>
<path d="M33.3879 46.671C32.8579 45.2013 31.5036 43.9668 29.7959 43.4378C27.2638 42.6148 25.085 43.8493 24.2607 46.377C23.4363 48.9048 23.7307 51.4325 27.0872 52.432C29.6192 53.1961 32.3868 52.4907 33.3879 49.0224C33.5645 48.4345 33.5645 47.9055 33.5056 47.3764C33.5056 47.1413 33.4467 46.9061 33.3879 46.671Z" fill="white"/>
<path d="M43.2774 46.8296C43.9516 46.721 44.4017 46.0354 44.2827 45.2981C44.1636 44.5609 43.5204 44.0512 42.8462 44.1598C42.1719 44.2683 41.7218 44.9539 41.8409 45.6912C41.96 46.4284 42.6031 46.9381 43.2774 46.8296Z" fill="#272727"/>
<path d="M33.5645 48.5522C33.3878 48.0819 32.9756 47.7292 32.5045 47.5529C31.739 47.3177 31.0913 47.6704 30.8557 48.4346C30.6202 49.1988 30.6791 49.9628 31.6801 50.2569C32.4457 50.4922 33.27 50.2569 33.5645 49.1988C33.6234 49.0225 33.6234 48.8461 33.6234 48.6698C33.6234 48.7285 33.5645 48.6698 33.5645 48.5522Z" fill="#272727"/>
<path d="M47.2798 57.9134C46.7647 57.9494 46.2064 58.0747 45.6718 58.2661C43.4663 59.0555 41.6667 61.1857 42.6123 63.8191L43.7942 67.1106L44.5034 69.0854C44.8107 69.9413 45.3185 70.7253 46.0464 71.2817L46.4792 71.6473C46.7074 71.8624 47.0416 71.743 47.1475 71.408L47.4295 69.6725C47.555 69.1816 48.1328 68.9009 48.542 69.1999L50.1785 70.3972C50.3831 70.5467 50.7176 70.4273 50.7804 70.1816L51.1761 68.5541C51.3016 68.0637 51.8363 67.8723 52.2454 68.1713L53.4728 69.0691C53.7683 69.261 54.0786 69.0755 54.1176 68.7643L54.1329 68.3874C54.1448 67.7889 54.0223 67.2384 53.833 66.7115L51.6347 60.5893C50.768 58.5967 49.0493 57.8004 47.2798 57.9134Z" fill="#FFBFAE"/>
<path d="M19.3347 58.8562C18.8377 58.7215 18.2697 58.6544 17.7017 58.6544C15.3588 58.6544 12.9448 59.9992 12.9448 62.6889V66.0509V68.0682C12.9448 68.9424 13.1578 69.8166 13.6548 70.5566L13.9388 71.0272C14.0808 71.2961 14.4358 71.2961 14.6488 71.0272L15.5008 69.5477C15.7848 69.1441 16.4238 69.077 16.7078 69.4806L17.8437 71.0943C17.9857 71.2961 18.3407 71.2961 18.4827 71.0943L19.4057 69.7495C19.6897 69.3459 20.2577 69.3459 20.5417 69.7495L21.3936 70.9601C21.6066 71.229 21.9616 71.1614 22.1036 70.8925L22.2457 70.5566C22.4586 70.0183 22.5296 69.4806 22.5296 68.9424V62.6889C22.4586 60.604 21.0386 59.3268 19.3347 58.8562Z" fill="#FFBFAE"/>
<defs>
<filter id="filter0_d" x="34.3579" y="38.8294" width="10.7372" height="10.1035" filterUnits="userSpaceOnUse" color-interpolation-filters="sRGB">
<feFlood flood-opacity="0" result="BackgroundImageFix"/>
<feColorMatrix in="SourceAlpha" type="matrix" values="0 0 0 0 0 0 0 0 0 0 0 0 0 0 0 0 0 0 127 0" result="hardAlpha"/>
<feOffset dy="-1"/>
<feGaussianBlur stdDeviation="0.5"/>
<feColorMatrix type="matrix" values="0 0 0 0 0 0 0 0 0 0 0 0 0 0 0 0 0 0 0.1 0"/>
<feBlend mode="normal" in2="BackgroundImageFix" result="effect1_dropShadow"/>
<feBlend mode="normal" in="SourceGraphic" in2="effect1_dropShadow" result="shape"/>
</filter>
</defs>
</svg>
